<svg width="19" height="19" viewBox="0 0 19 19" fill="none" xmlns="http://www.w3.org/2000/svg">
<path d="M12.6536 0C11.0571 0 9.52721 0.633418 8.40114 1.7632C7.27136 2.89298 6.63794 4.42281 6.63794 6.01562C6.63794 7.61213 7.27136 9.14197 8.40114 10.268C9.53092 11.3941 11.0608 12.0312 12.6536 12.0312C14.2501 12.0312 15.7799 11.3978 16.906 10.268C18.0358 9.13826 18.6692 7.60843 18.6692 6.01562C18.6692 4.41911 18.0321 2.89298 16.906 1.7632C15.7762 0.637122 14.2501 0 12.6536 0ZM12.6536 11.2274C11.2719 11.2274 9.94579 10.6792 8.96788 9.7013C7.98997 8.72339 7.44175 7.39729 7.44175 6.01562C7.44175 4.63395 7.98997 3.30785 8.96788 2.32994C9.94579 1.35203 11.2719 0.803811 12.6536 0.803811C14.0352 0.803811 15.3613 1.35203 16.3392 2.32994C17.3171 3.30785 17.8654 4.63395 17.8654 6.01562C17.8654 7.39729 17.3134 8.72339 16.3355 9.7013C15.3613 10.6792 14.0352 11.2274 12.6536 11.2274Z" fill="#CACACA"/>
<path d="M18.358 12.1611C17.9172 11.8907 17.3727 11.8537 16.9023 12.0648L13.2536 13.7169C13.3573 13.891 13.4277 14.0873 13.4537 14.291C13.5314 14.8281 13.3203 15.3652 12.8943 15.6986C12.6239 15.9135 12.2868 16.032 11.9386 16.032C11.8571 16.032 11.7757 16.0246 11.6942 16.0135L6.56014 15.1763C6.37493 15.1467 6.24528 14.9689 6.27862 14.7837C6.30825 14.5985 6.48606 14.4688 6.67127 14.5022L11.7608 15.3319C12.0201 15.3652 12.2794 15.2986 12.4906 15.1467C12.7128 14.9541 12.8202 14.6614 12.7721 14.3725C12.7276 14.0836 12.5313 13.8391 12.2609 13.7243L8.10479 11.9944C7.99737 11.95 7.88254 11.9277 7.76771 11.9277H3.65605C3.46343 11.9277 3.27822 11.9907 3.12264 12.1092L2.24845 12.7797V12.6352C2.24845 12.3574 2.02249 12.1352 1.74838 12.1352H0.500067C0.222252 12.1352 0 12.3611 0 12.6352V17.5618C0 17.6952 0.0518588 17.8211 0.148168 17.9174C0.240773 18.01 0.37042 18.0656 0.503771 18.0656H1.75209C2.0299 18.0656 2.25215 17.8396 2.25215 17.5655V17.284L8.03812 18.599C8.80489 18.7731 9.6124 18.6249 10.268 18.1878L18.3617 13.2687C18.5543 13.1501 18.6729 12.939 18.6729 12.713C18.6692 12.4871 18.5506 12.2796 18.358 12.1611Z" fill="#CACACA"/>
<path d="M15.0056 2.57031L14.5241 3.63342H13.4202C13.4758 3.69639 13.5277 3.78159 13.5795 3.8816C13.6314 3.98161 13.6647 4.08533 13.6795 4.18905H15.0019L14.5204 5.25215H13.6795C13.6425 5.48181 13.561 5.69295 13.4425 5.88187C13.3202 6.07078 13.1721 6.23377 12.9905 6.37082C12.809 6.50788 12.6053 6.619 12.3794 6.7042C12.1497 6.7894 11.9089 6.84126 11.657 6.86719L14.2759 9.63052H12.572L10.1568 6.94497V5.88187H10.868C10.9569 5.88187 11.0718 5.87446 11.2088 5.86335C11.3459 5.85223 11.4829 5.8226 11.62 5.77815C11.757 5.7337 11.8793 5.67073 11.9941 5.58924C12.1052 5.50774 12.183 5.39662 12.2238 5.25586H9.91235L10.3939 4.19275H12.2238C12.1867 4.06311 12.1164 3.96309 12.0126 3.88901C11.9089 3.81492 11.7867 3.75936 11.6459 3.72232C11.5015 3.68528 11.3422 3.66305 11.1681 3.65194C10.9903 3.64083 10.8088 3.63712 10.6199 3.63712H9.92347L10.405 2.57402H15.0056V2.57031Z" fill="#CACACA"/>
</svg>
