<svg width="220" height="51" viewBox="0 0 220 51" fill="none" xmlns="http://www.w3.org/2000/svg">
<g clip-path="url(#clip0_2291_2706)">
<path d="M40.9968 0H9.37495C4.19731 0 0 4.19731 0 9.37495V40.9968C0 46.1745 4.19731 50.3718 9.37495 50.3718H40.9968C46.1745 50.3718 50.3718 46.1745 50.3718 40.9968V9.37495C50.3718 4.19731 46.1745 0 40.9968 0Z" fill="#131313"/>
<path d="M28.5817 27.4353L28.3318 27.5775L28.5817 27.4353Z" fill="#CCCCCC"/>
<path d="M37.8295 19.0408V10.8746L25.1859 3.57458L12.5424 10.8746V18.4633L27.332 27.0023L25.1859 28.2412L12.5424 20.9412V29.1074L25.1859 36.4074L37.8295 29.1074V21.5186L23.0399 12.9797L25.1859 11.7408L37.8295 19.0408ZM13.5421 11.452L25.1859 4.72733L36.8298 11.452V13.9299L25.1859 7.23105L13.5421 13.9299V11.452ZM13.5421 17.8859V15.6601L30.2602 25.313L28.3318 26.427L13.5421 17.888V17.8859ZM36.8319 28.5278L25.1881 35.2525L13.5443 28.5278V26.0499L25.1881 32.7725L36.8319 26.0499V28.5278ZM36.8319 22.0939V24.3197L20.1139 14.6668L22.0423 13.5528L36.8319 22.0918V22.0939ZM22.0401 12.4023L21.7902 12.5466L18.1143 14.669L36.332 25.1859L25.1859 31.6219L13.5421 24.8972V22.6714L25.1859 29.3939L28.3318 27.5776L28.5817 27.4332L32.2576 25.3109L14.042 14.7939L25.1859 8.3838L36.8298 15.0827V17.3084L25.1859 10.5859L22.0401 12.4023Z" fill="#CCCCCC"/>
<path d="M22.0401 12.4022L21.7902 12.5466L22.0401 12.4022Z" fill="#CCCCCC"/>
<path d="M25.1859 38.6331L12.5424 31.3331V39.4993L25.1859 46.7993L37.8295 39.4993V31.3331L25.1859 38.6331ZM36.8319 38.9219L25.1881 45.6444L13.5443 38.9219V36.444L25.1881 43.1666L36.8319 36.444V38.9219ZM36.8319 35.2891L25.1881 42.0117L13.5443 35.2891V33.0633L25.1881 39.7859L36.8319 33.0633V35.2891Z" fill="#CCCCCC"/>
<path d="M28.5816 27.4353L28.3317 27.5775L28.5816 27.4353Z" fill="white"/>
<path d="M37.8294 19.0408V10.8746L25.1858 3.57458L12.5422 10.8746V18.4633L27.3319 27.0023L25.1858 28.2412L12.5422 20.9412V29.1074L25.1858 36.4074L37.8294 29.1074V21.5186L23.0398 12.9797L25.1858 11.7408L37.8294 19.0408ZM13.542 11.452L25.1858 4.72733L36.8296 11.452V13.9299L25.1858 7.23105L13.542 13.9299V11.452ZM13.542 17.8859V15.6601L30.2601 25.313L28.3316 26.427L13.542 17.888V17.8859ZM36.8318 28.5278L25.188 35.2525L13.5442 28.5278V26.0499L25.188 32.7725L36.8318 26.0499V28.5278ZM36.8318 22.0939V24.3197L20.1137 14.6668L22.0422 13.5528L36.8318 22.0918V22.0939ZM22.04 12.4023L21.7901 12.5466L18.1142 14.669L36.3319 25.1859L25.1858 31.6219L13.542 24.8972V22.6714L25.1858 29.3939L28.3316 27.5776L28.5816 27.4332L32.2574 25.3109L14.0419 14.7939L25.1858 8.3838L36.8296 15.0827V17.3084L25.1858 10.5859L22.04 12.4023Z" fill="white"/>
<path d="M22.04 12.4022L21.79 12.5466L22.04 12.4022Z" fill="white"/>
<path d="M25.1858 38.6331L12.5422 31.3331V39.4993L25.1858 46.7993L37.8294 39.4993V31.3331L25.1858 38.6331ZM36.8318 38.9219L25.188 45.6444L13.5442 38.9219V36.444L25.188 43.1666L36.8318 36.444V38.9219ZM36.8318 35.2891L25.188 42.0117L13.5442 35.2891V33.0633L25.188 39.7859L36.8318 33.0633V35.2891Z" fill="white"/>
</g>
<g clip-path="url(#clip1_2291_2706)">
<path d="M67.3808 36.9202C65.7195 36.9202 64.1337 36.6659 62.6189 36.1574C61.1042 35.6489 59.9105 34.9896 59.04 34.1816L60.1928 31.7533C61.0223 32.4794 62.0803 33.0805 63.3688 33.5589C64.6551 34.0372 65.9931 34.2742 67.3851 34.2742C68.6499 34.2742 69.6776 34.1299 70.4662 33.839C71.2548 33.5481 71.8366 33.1495 72.2094 32.641C72.5821 32.1325 72.7696 31.5572 72.7696 30.9129C72.7696 30.1653 72.5261 29.5641 72.0391 29.1073C71.5522 28.6505 70.9187 28.2821 70.1409 28.002C69.363 27.7219 68.5076 27.4784 67.5725 27.2716C66.6395 27.0647 65.7001 26.8212 64.7564 26.5411C63.8126 26.261 62.9508 25.9033 62.1729 25.4681C61.3951 25.0329 60.7659 24.4468 60.2897 23.7099C59.8114 22.973 59.5744 22.0249 59.5744 20.8614C59.5744 19.6979 59.8696 18.7089 60.4621 17.7652C61.0525 16.8214 61.9661 16.063 63.2007 15.492C64.4353 14.921 66.0061 14.6366 67.9173 14.6366C69.1821 14.6366 70.4382 14.8025 71.6836 15.1343C72.929 15.4661 74.0085 15.9445 74.9199 16.5672L73.8922 19.058C72.9592 18.4353 71.9723 17.9849 70.936 17.7048C69.8974 17.4247 68.8912 17.2847 67.9173 17.2847C66.6934 17.2847 65.6872 17.4398 64.8986 17.7522C64.11 18.0625 63.5347 18.4784 63.1705 18.9976C62.8064 19.5169 62.6254 20.0987 62.6254 20.7408C62.6254 21.5078 62.8689 22.1219 63.3558 22.5765C63.8428 23.0333 64.4763 23.3975 65.2541 23.6668C66.0319 23.9361 66.8873 24.1796 67.8225 24.3972C68.7554 24.6149 69.6949 24.8583 70.6386 25.1277C71.5824 25.397 72.4442 25.7504 73.2221 26.1856C73.9999 26.6208 74.6269 27.2026 75.1052 27.9287C75.5814 28.6549 75.8206 29.59 75.8206 30.7298C75.8206 31.8696 75.5189 32.8521 74.9178 33.7959C74.3166 34.7396 73.388 35.4981 72.1318 36.0691C70.8756 36.64 69.2941 36.9245 67.3851 36.9245L67.3808 36.9202Z" fill="black"/>
<path d="M87.0227 33.5589C86.4 34.076 85.6222 34.3367 84.6871 34.3367C83.8575 34.3367 83.2197 34.0975 82.7737 33.6214C82.3277 33.143 82.1036 32.4578 82.1036 31.5658V16.5629H79.1151V31.6908C79.1151 33.3499 79.5719 34.6276 80.4855 35.5196C81.3991 36.4116 82.6854 36.8577 84.3445 36.8577C85.0297 36.8577 85.689 36.765 86.3225 36.5776C86.9559 36.3901 87.4989 36.1014 87.9557 35.7049L87.0227 33.5589ZM83.8748 20.1741L82.1036 22.6326H86.8353V20.1741H83.8748ZM76.3119 20.1741V22.6326H82.1015V20.1741H76.3119Z" fill="black"/>
<path d="M96.8264 36.8577C95.1651 36.8577 93.6935 36.4957 92.4072 35.7675C91.1208 35.0413 90.1038 34.0394 89.3561 32.7638C88.6085 31.4883 88.2357 30.0404 88.2357 28.4222C88.2357 26.804 88.6085 25.3303 89.3561 24.0633C90.1038 22.7985 91.1208 21.8074 92.4072 21.0899C93.6935 20.3745 95.1673 20.0168 96.8264 20.0168C98.4855 20.0168 99.9334 20.3745 101.231 21.0899C102.528 21.8052 103.545 22.7921 104.282 24.0461C105.018 25.3022 105.387 26.7588 105.387 28.42C105.387 30.0813 105.018 31.512 104.282 32.7789C103.545 34.0459 102.528 35.0413 101.231 35.7675C99.9334 36.4936 98.4661 36.8577 96.8264 36.8577ZM96.8264 34.2419C97.8843 34.2419 98.8345 34.0028 99.6748 33.5266C100.515 33.0504 101.174 32.3695 101.651 31.4883C102.127 30.607 102.366 29.5836 102.366 28.4222C102.366 27.2608 102.127 26.218 101.651 25.3561C101.172 24.4942 100.515 23.8263 99.6748 23.348C98.8345 22.8718 97.8843 22.6326 96.8264 22.6326C95.7684 22.6326 94.8225 22.8718 93.993 23.348C93.1634 23.8263 92.4998 24.4942 91.9999 25.3561C91.5022 26.218 91.2523 27.2393 91.2523 28.4222C91.2523 29.6051 91.5022 30.607 91.9999 31.4883C92.4976 32.3695 93.1613 33.0504 93.993 33.5266C94.8225 34.0049 95.7663 34.2419 96.8264 34.2419Z" fill="black"/>
<path d="M115.473 36.8577C113.792 36.8577 112.293 36.4957 110.974 35.7674C109.655 35.0413 108.623 34.0458 107.878 32.7789C107.13 31.5141 106.757 30.0597 106.757 28.42C106.757 26.7803 107.13 25.3281 107.878 24.0611C108.625 22.7963 109.658 21.8052 110.974 21.0877C112.291 20.3723 113.79 20.0146 115.473 20.0146C116.966 20.0146 118.3 20.3098 119.472 20.9024C120.644 21.4927 121.551 22.3697 122.196 23.5332L119.922 24.9962C119.382 24.1861 118.724 23.5914 117.947 23.2057C117.169 22.8222 116.333 22.6304 115.441 22.6304C114.361 22.6304 113.396 22.8696 112.545 23.3458C111.694 23.8241 111.019 24.492 110.522 25.3539C110.024 26.2158 109.774 27.2371 109.774 28.42C109.774 29.6029 110.024 30.6307 110.522 31.5012C111.019 32.3717 111.694 33.0482 112.545 33.5244C113.396 34.0027 114.361 34.2398 115.441 34.2398C116.333 34.2398 117.169 34.048 117.947 33.6645C118.724 33.2809 119.384 32.6841 119.922 31.8739L122.196 33.3068C121.551 34.4488 120.644 35.3257 119.472 35.9376C118.3 36.5496 116.966 36.8555 115.473 36.8555V36.8577Z" fill="black"/>
<path d="M140.189 20.1741L133.249 26.9936L130.995 28.9737L127.58 32.1626L127.561 32.182L127.58 36.6702H124.594V13.5743H127.58V28.4028L136.576 20.1741H140.189Z" fill="black"/>
<path d="M148.967 36.6702L139.379 14.8822H142.74L151.548 34.9917H149.618L158.491 14.8822H161.604L152.048 36.6723H148.967V36.6702Z" fill="black"/>
<path d="M168.794 36.8577C167.03 36.8577 165.478 36.4957 164.14 35.7674C162.802 35.0413 161.764 34.0458 161.027 32.7789C160.29 31.5141 159.922 30.0597 159.922 28.42C159.922 26.7803 160.279 25.3281 160.995 24.0611C161.71 22.7963 162.697 21.8052 163.951 21.0877C165.207 20.3723 166.623 20.0146 168.2 20.0146C169.777 20.0146 171.208 20.368 172.434 21.0726C173.658 21.7793 174.618 22.7683 175.312 24.046C176.008 25.3216 176.355 26.8105 176.355 28.5127C176.355 28.6376 176.351 28.782 176.34 28.9479C176.329 29.1138 176.314 29.2689 176.293 29.4155H162.255V27.2673H174.737L173.524 28.0149C173.545 26.957 173.326 26.0132 172.871 25.1815C172.414 24.352 171.787 23.7034 170.988 23.2359C170.188 22.7683 169.26 22.5356 168.202 22.5356C167.144 22.5356 166.241 22.7683 165.431 23.2359C164.621 23.7034 163.99 24.3563 163.533 25.1966C163.076 26.0369 162.848 26.9979 162.848 28.0753V28.573C162.848 29.674 163.102 30.6544 163.61 31.5141C164.119 32.376 164.83 33.0439 165.743 33.5222C166.657 34.0006 167.704 34.2376 168.887 34.2376C169.863 34.2376 170.749 34.0717 171.548 33.7399C172.347 33.4081 173.048 32.9103 173.649 32.2467L175.299 34.1773C174.552 35.0478 173.623 35.7135 172.513 36.1703C171.404 36.6271 170.163 36.8555 168.794 36.8555V36.8577Z" fill="black"/>
<path d="M179.253 36.6702V20.1741H182.117V24.6558L181.837 23.5353C182.293 22.3934 183.06 21.5229 184.14 20.9217C185.219 20.3206 186.547 20.0189 188.124 20.0189V22.9148C187.999 22.8932 187.88 22.8846 187.766 22.8846H187.439C185.84 22.8846 184.575 23.363 183.642 24.3153C182.709 25.2698 182.242 26.651 182.242 28.4544V36.6723H179.253V36.6702Z" fill="black"/>
<path d="M195.471 36.8577C194.101 36.8577 192.8 36.6703 191.565 36.2975C190.33 35.9247 189.361 35.468 188.654 34.9271L189.899 32.5613C190.604 33.0396 191.477 33.4426 192.513 33.7744C193.549 34.1062 194.609 34.2721 195.689 34.2721C197.079 34.2721 198.081 34.076 198.693 33.6817C199.304 33.2874 199.61 32.738 199.61 32.0313C199.61 31.512 199.423 31.1091 199.05 30.8182C198.677 30.5273 198.184 30.3097 197.572 30.1653C196.96 30.021 196.279 29.8895 195.534 29.7753C194.786 29.6611 194.041 29.5168 193.293 29.3401C192.545 29.1634 191.86 28.9156 191.24 28.5924C190.617 28.2714 190.119 27.8254 189.746 27.2544C189.374 26.6834 189.186 25.9206 189.186 24.9661C189.186 24.0116 189.466 23.098 190.026 22.3525C190.587 21.6048 191.38 21.0295 192.407 20.6245C193.435 20.2194 194.653 20.0168 196.064 20.0168C197.143 20.0168 198.238 20.1461 199.348 20.4068C200.457 20.6676 201.366 21.0338 202.071 21.5122L200.795 23.878C200.048 23.3803 199.27 23.0377 198.462 22.8502C197.652 22.6628 196.844 22.5701 196.034 22.5701C194.726 22.5701 193.75 22.7834 193.108 23.2079C192.463 23.6324 192.142 24.1775 192.142 24.8411C192.142 25.4014 192.334 25.8323 192.718 26.1339C193.101 26.4356 193.599 26.6683 194.211 26.8342C194.823 27.0001 195.504 27.1402 196.249 27.2544C196.997 27.3686 197.742 27.5151 198.49 27.6896C199.238 27.8663 199.916 28.1098 200.528 28.42C201.14 28.7303 201.638 29.1677 202.021 29.7279C202.405 30.2881 202.597 31.0358 202.597 31.9688C202.597 32.9642 202.306 33.8261 201.724 34.5522C201.142 35.2783 200.324 35.845 199.266 36.2479C198.208 36.653 196.941 36.8556 195.469 36.8556L195.471 36.8577Z" fill="black"/>
<path d="M212.435 36.8577C210.67 36.8577 209.119 36.4957 207.781 35.7674C206.443 35.0413 205.404 34.0458 204.667 32.7789C203.931 31.5141 203.562 30.0597 203.562 28.42C203.562 26.7803 203.92 25.3281 204.635 24.0611C205.351 22.7963 206.337 21.8052 207.591 21.0877C208.848 20.3723 210.263 20.0146 211.84 20.0146C213.418 20.0146 214.848 20.368 216.074 21.0726C217.298 21.7793 218.259 22.7683 218.953 24.046C219.649 25.3216 219.996 26.8105 219.996 28.5127C219.996 28.6376 219.991 28.782 219.981 28.9479C219.97 29.1138 219.955 29.2689 219.933 29.4155H205.896V27.2673H218.378L217.165 28.0149C217.186 26.957 216.966 26.0132 216.512 25.1815C216.055 24.352 215.428 23.7034 214.628 23.2359C213.829 22.7683 212.9 22.5356 211.843 22.5356C210.785 22.5356 209.882 22.7683 209.072 23.2359C208.261 23.7034 207.63 24.3563 207.173 25.1966C206.717 26.0369 206.488 26.9979 206.488 28.0753V28.573C206.488 29.674 206.742 30.6544 207.251 31.5141C207.759 32.376 208.47 33.0439 209.384 33.5222C210.298 34.0006 211.345 34.2376 212.528 34.2376C213.504 34.2376 214.389 34.0717 215.189 33.7399C215.988 33.4081 216.688 32.9103 217.29 32.2467L218.94 34.1773C218.192 35.0478 217.264 35.7135 216.154 36.1703C215.044 36.6271 213.803 36.8555 212.435 36.8555V36.8577Z" fill="black"/>
<path d="M140.872 36.6702H137.198L131.795 29.9692L130.995 28.9738L134.822 28.991L140.872 36.6702Z" fill="black"/>
</g>
<defs>
<clipPath id="clip0_2291_2706">
<rect width="50.3718" height="50.3718" fill="white"/>
</clipPath>
<clipPath id="clip1_2291_2706">
<rect width="160.962" height="23.3458" fill="white" transform="translate(59.0378 13.5743)"/>
</clipPath>
</defs>
</svg>
