<svg width="16" height="16" viewBox="0 0 16 16" fill="none" xmlns="http://www.w3.org/2000/svg">
<path d="M9.33353 13.9997H6.66687M1.52943 3.8796C1.51986 2.91204 2.04152 2.00851 2.88423 1.53301M14.4683 3.87961C14.4779 2.91204 13.9562 2.00851 13.1135 1.53301M12.0002 5.33301C12.0002 4.27214 11.5788 3.25473 10.8286 2.50458C10.0785 1.75444 9.06106 1.33301 8.0002 1.33301C6.93933 1.33301 5.92192 1.75444 5.17177 2.50458C4.42163 3.25473 4.0002 4.27214 4.0002 5.33301C4.0002 7.39313 3.48051 8.80365 2.89998 9.73662C2.41028 10.5236 2.16544 10.9171 2.17442 11.0268C2.18436 11.1484 2.21011 11.1947 2.30805 11.2674C2.3965 11.333 2.79526 11.333 3.59277 11.333H12.4076C13.2051 11.333 13.6039 11.333 13.6923 11.2674C13.7903 11.1947 13.816 11.1484 13.826 11.0268C13.835 10.9171 13.5901 10.5236 13.1004 9.73662C12.5199 8.80365 12.0002 7.39313 12.0002 5.33301Z" stroke="black" strokeWidth="1.2" strokeLinecap="round" strokeLinejoin="round"/>
</svg>
