<svg width="18" height="19" viewBox="0 0 18 19" fill="none" xmlns="http://www.w3.org/2000/svg">
<path d="M6.75 5.75H3.45C3.02996 5.75 2.81994 5.75 2.65951 5.83175C2.51839 5.90365 2.40365 6.01839 2.33175 6.15951C2.25 6.31994 2.25 6.52996 2.25 6.95V15.05C2.25 15.47 2.25 15.6801 2.33175 15.8405C2.40365 15.9816 2.51839 16.0964 2.65951 16.1683C2.81994 16.25 3.02996 16.25 3.45 16.25H6.75M6.75 16.25H11.25M6.75 16.25L6.75 3.95C6.75 3.52996 6.75 3.31994 6.83175 3.15951C6.90365 3.01839 7.01839 2.90365 7.15951 2.83175C7.31994 2.75 7.52996 2.75 7.95 2.75L10.05 2.75C10.47 2.75 10.6801 2.75 10.8405 2.83175C10.9816 2.90365 11.0964 3.01839 11.1683 3.15951C11.25 3.31994 11.25 3.52996 11.25 3.95V16.25M11.25 8.75H14.55C14.97 8.75 15.1801 8.75 15.3405 8.83175C15.4816 8.90365 15.5964 9.01839 15.6683 9.15951C15.75 9.31994 15.75 9.52996 15.75 9.95V15.05C15.75 15.47 15.75 15.6801 15.6683 15.8405C15.5964 15.9816 15.4816 16.0964 15.3405 16.1683C15.1801 16.25 14.97 16.25 14.55 16.25H11.25" stroke="black" stroke-width="1.2" stroke-linecap="round" stroke-linejoin="round"/>
</svg>
