<svg width="24" height="24" viewBox="0 0 24 24" fill="none" xmlns="http://www.w3.org/2000/svg">
<path d="M16.9995 19.999H16.7995C15.1194 19.999 14.2793 19.999 13.6375 19.672C13.0731 19.3844 12.6141 18.9255 12.3265 18.361C11.9995 17.7193 11.9995 16.8792 11.9995 15.199V8.79902C11.9995 7.11887 11.9995 6.27879 12.3265 5.63705C12.6141 5.07257 13.0731 4.61362 13.6375 4.326C14.2793 3.99902 15.1194 3.99902 16.7995 3.99902H16.9995M16.9995 19.999C16.9995 21.1036 17.8949 21.999 18.9995 21.999C20.1041 21.999 20.9995 21.1036 20.9995 19.999C20.9995 18.8945 20.1041 17.999 18.9995 17.999C17.8949 17.999 16.9995 18.8945 16.9995 19.999ZM16.9995 3.99902C16.9995 5.10359 17.8949 5.99902 18.9995 5.99902C20.1041 5.99902 20.9995 5.10359 20.9995 3.99902C20.9995 2.89445 20.1041 1.99902 18.9995 1.99902C17.8949 1.99902 16.9995 2.89445 16.9995 3.99902ZM6.99951 11.999L16.9995 11.999M6.99951 11.999C6.99951 13.1036 6.10408 13.999 4.99951 13.999C3.89494 13.999 2.99951 13.1036 2.99951 11.999C2.99951 10.8945 3.89494 9.99902 4.99951 9.99902C6.10408 9.99902 6.99951 10.8945 6.99951 11.999ZM16.9995 11.999C16.9995 13.1036 17.8949 13.999 18.9995 13.999C20.1041 13.999 20.9995 13.1036 20.9995 11.999C20.9995 10.8945 20.1041 9.99902 18.9995 9.99902C17.8949 9.99902 16.9995 10.8945 16.9995 11.999Z" stroke="#634FF7" strokeWidth="1.5" strokeLinecap="round" stroke-linejoin="round"/>
</svg>
