<svg width="24" height="24" viewBox="0 0 24 24" fill="none" xmlns="http://www.w3.org/2000/svg">
<path d="M11.302 21.6143C11.5234 21.7434 11.6341 21.808 11.7903 21.8415C11.9116 21.8675 12.0884 21.8675 12.2097 21.8415C12.3659 21.808 12.4766 21.7434 12.698 21.6143C14.646 20.4778 20 16.9078 20 11.9994V7.21698C20 6.41747 20 6.01772 19.8692 5.67409C19.7537 5.37052 19.566 5.09966 19.3223 4.88491C19.0465 4.64182 18.6722 4.50146 17.9236 4.22073L12.5618 2.21006C12.3539 2.1321 12.25 2.09312 12.143 2.07766C12.0482 2.06396 11.9518 2.06396 11.857 2.07766C11.75 2.09312 11.6461 2.1321 11.4382 2.21006L6.0764 4.22073C5.3278 4.50146 4.9535 4.64182 4.67766 4.88491C4.43398 5.09966 4.24627 5.37052 4.13076 5.67409C4 6.01772 4 6.41747 4 7.21698V11.9994C4 16.9078 9.35396 20.4778 11.302 21.6143Z" stroke="black" stroke-width="1.5" stroke-linecap="round" stroke-linejoin="round"/>
</svg>
