<svg width="36" height="37" viewBox="0 0 36 37" fill="none" xmlns="http://www.w3.org/2000/svg">
<rect y="0.5" width="36" height="36" rx="18" fill="#24AD19" fill-opacity="0.1"/>
<path fill-rule="evenodd" clip-rule="evenodd" d="M17.9999 9.3335C12.9373 9.3335 8.83325 13.4376 8.83325 18.5002C8.83325 23.5628 12.9373 27.6668 17.9999 27.6668C23.0625 27.6668 27.1666 23.5628 27.1666 18.5002C27.1666 13.4376 23.0625 9.3335 17.9999 9.3335ZM22.3392 16.5894C22.6646 16.264 22.6646 15.7363 22.3392 15.4109C22.0137 15.0855 21.4861 15.0855 21.1607 15.4109L16.7499 19.8217L14.8392 17.9109C14.5137 17.5855 13.9861 17.5855 13.6607 17.9109C13.3352 18.2363 13.3352 18.764 13.6607 19.0894L16.1607 21.5894C16.4861 21.9149 17.0137 21.9149 17.3392 21.5894L22.3392 16.5894Z" fill="#24AD19"/>
</svg>
