<svg width="21" height="21" viewBox="0 0 21 21" fill="none" xmlns="http://www.w3.org/2000/svg">
<path d="M19.67 12.6739C16.7041 13.8732 13.5342 14.4878 10.335 14.4839C7.03352 14.4839 3.88348 13.8408 1 12.6739M10.335 11.3722H10.3454M14.4839 5.14889V3.07444C14.4839 2.52427 14.2653 1.99662 13.8763 1.60759C13.4873 1.21856 12.9596 1 12.4094 1H8.26056C7.71038 1 7.18274 1.21856 6.7937 1.60759C6.40467 1.99662 6.18611 2.52427 6.18611 3.07444V5.14889H14.4839ZM3.07444 19.67H17.5956C18.1457 19.67 18.6734 19.4514 19.0624 19.0624C19.4514 18.6734 19.67 18.1457 19.67 17.5956V7.22333C19.67 6.67316 19.4514 6.14551 19.0624 5.75648C18.6734 5.36745 18.1457 5.14889 17.5956 5.14889H3.07444C2.52427 5.14889 1.99662 5.36745 1.60759 5.75648C1.21856 6.14551 1 6.67316 1 7.22333V17.5956C1 18.1457 1.21856 18.6734 1.60759 19.0624C1.99662 19.4514 2.52427 19.67 3.07444 19.67Z" stroke="#CACACA" stroke-width="2" stroke-linecap="round" stroke-linejoin="round"/>
</svg>
