<svg width="32" height="32" viewBox="0 0 32 32" fill="none" xmlns="http://www.w3.org/2000/svg">
<path d="M21.5867 2.66663H10.4134C5.56008 2.66663 2.66675 5.55996 2.66675 10.4133V21.5733C2.66675 26.44 5.56008 29.3333 10.4134 29.3333H21.5734C26.4267 29.3333 29.3201 26.44 29.3201 21.5866V10.4133C29.3334 5.55996 26.4401 2.66663 21.5867 2.66663ZM16.0001 21.1733C13.1467 21.1733 10.8267 18.8533 10.8267 16C10.8267 13.1466 13.1467 10.8266 16.0001 10.8266C18.8534 10.8266 21.1734 13.1466 21.1734 16C21.1734 18.8533 18.8534 21.1733 16.0001 21.1733ZM23.8934 9.17329C23.8267 9.33329 23.7334 9.47996 23.6134 9.61329C23.4801 9.73329 23.3334 9.82663 23.1734 9.89329C23.0134 9.95996 22.8401 9.99996 22.6667 9.99996C22.3067 9.99996 21.9734 9.86663 21.7201 9.61329C21.6001 9.47996 21.5067 9.33329 21.4401 9.17329C21.3734 9.01329 21.3334 8.83996 21.3334 8.66663C21.3334 8.49329 21.3734 8.31996 21.4401 8.15996C21.5067 7.98663 21.6001 7.85329 21.7201 7.71996C22.0267 7.41329 22.4934 7.26663 22.9201 7.35996C23.0134 7.37329 23.0934 7.39996 23.1734 7.43996C23.2534 7.46663 23.3334 7.50663 23.4134 7.55996C23.4801 7.59996 23.5467 7.66663 23.6134 7.71996C23.7334 7.85329 23.8267 7.98663 23.8934 8.15996C23.9601 8.31996 24.0001 8.49329 24.0001 8.66663C24.0001 8.83996 23.9601 9.01329 23.8934 9.17329Z" fill="white"/>
</svg>
