<svg width="16" height="15" viewBox="0 0 16 15" fill="none" xmlns="http://www.w3.org/2000/svg">
<path d="M13.625 13.125H3.375C3.02497 13.125 2.84995 13.125 2.71626 13.0569C2.59865 12.997 2.50304 12.9013 2.44312 12.7837C2.375 12.65 2.375 12.475 2.375 12.125V1.875M13 9.375L10.5507 6.76084C10.4579 6.66177 10.4115 6.61223 10.3555 6.58663C10.3061 6.56403 10.2516 6.55471 10.1975 6.55959C10.1362 6.56511 10.0759 6.59639 9.95543 6.65895L7.91958 7.71605C7.79909 7.77861 7.73884 7.80989 7.67752 7.81542C7.6234 7.82029 7.56894 7.81097 7.51952 7.78837C7.46353 7.76277 7.41712 7.71323 7.32429 7.61416L4.875 5" stroke="black" strokeWidth="1.35759" strokeLinecap="round" stroke-linejoin="round"/>
</svg>
