<svg width="20" height="20" viewBox="0 0 20 20" fill="none" xmlns="http://www.w3.org/2000/svg">
<path d="M10.8334 4.16667C10.8334 5.08714 8.78139 5.83333 6.25008 5.83333C3.71878 5.83333 1.66675 5.08714 1.66675 4.16667M10.8334 4.16667C10.8334 3.24619 8.78139 2.5 6.25008 2.5C3.71878 2.5 1.66675 3.24619 1.66675 4.16667M10.8334 4.16667V7.88096C9.8155 8.18665 9.16675 8.64911 9.16675 9.16667M1.66675 4.16667V14.1667C1.66675 15.0871 3.71878 15.8333 6.25008 15.8333C7.35811 15.8333 8.3743 15.6904 9.16675 15.4524V9.16667M1.66675 7.5C1.66675 8.42047 3.71878 9.16667 6.25008 9.16667C7.35811 9.16667 8.3743 9.02369 9.16675 8.78571M1.66675 10.8333C1.66675 11.7538 3.71878 12.5 6.25008 12.5C7.35811 12.5 8.3743 12.357 9.16675 12.119M18.3334 9.16667C18.3334 10.0871 16.2814 10.8333 13.7501 10.8333C11.2188 10.8333 9.16675 10.0871 9.16675 9.16667M18.3334 9.16667C18.3334 8.24619 16.2814 7.5 13.7501 7.5C11.2188 7.5 9.16675 8.24619 9.16675 9.16667M18.3334 9.16667V15.8333C18.3334 16.7538 16.2814 17.5 13.7501 17.5C11.2188 17.5 9.16675 16.7538 9.16675 15.8333V9.16667M18.3334 12.5C18.3334 13.4205 16.2814 14.1667 13.7501 14.1667C11.2188 14.1667 9.16675 13.4205 9.16675 12.5" stroke="#634FF7" stroke-width="1.2" stroke-linecap="round" stroke-linejoin="round"/>
</svg>
