<svg width="27" height="21" viewBox="0 0 27 21" fill="none" xmlns="http://www.w3.org/2000/svg">
<path d="M20.1667 6.50033V3.83366C20.1667 3.12641 19.8857 2.44814 19.3856 1.94804C18.8855 1.44794 18.2072 1.16699 17.5 1.16699H4.16667C3.45942 1.16699 2.78115 1.44794 2.28105 1.94804C1.78095 2.44814 1.5 3.12641 1.5 3.83366V11.8337C1.5 12.5409 1.78095 13.2192 2.28105 13.7193C2.78115 14.2194 3.45942 14.5003 4.16667 14.5003H6.83333M9.5 19.8337H22.8333C23.5406 19.8337 24.2189 19.5527 24.719 19.0526C25.219 18.5525 25.5 17.8742 25.5 17.167V9.16699C25.5 8.45975 25.219 7.78147 24.719 7.28137C24.2189 6.78128 23.5406 6.50033 22.8333 6.50033H9.5C8.79276 6.50033 8.11448 6.78128 7.61438 7.28137C7.11428 7.78147 6.83333 8.45975 6.83333 9.16699V17.167C6.83333 17.8742 7.11428 18.5525 7.61438 19.0526C8.11448 19.5527 8.79276 19.8337 9.5 19.8337ZM18.8333 13.167C18.8333 13.8742 18.5524 14.5525 18.0523 15.0526C17.5522 15.5527 16.8739 15.8337 16.1667 15.8337C15.4594 15.8337 14.7811 15.5527 14.281 15.0526C13.781 14.5525 13.5 13.8742 13.5 13.167C13.5 12.4597 13.781 11.7815 14.281 11.2814C14.7811 10.7813 15.4594 10.5003 16.1667 10.5003C16.8739 10.5003 17.5522 10.7813 18.0523 11.2814C18.5524 11.7815 18.8333 12.4597 18.8333 13.167Z" stroke="#CACACA" stroke-width="2" stroke-linecap="round" stroke-linejoin="round"/>
</svg>
