<svg width="51" height="32" viewBox="0 0 51 32" fill="none" xmlns="http://www.w3.org/2000/svg">
<g clipPath="url(#clip0_8_178)">
<path d="M45.6759 0H4.63136C4.46041 0 4.28916 0 4.11852 0.000996555C3.97428 0.00202331 3.83037 0.00362383 3.68646 0.00754966C3.3726 0.0160355 3.05606 0.0345472 2.74613 0.0902335C2.43124 0.146886 2.13823 0.239294 1.85237 0.384791C1.57135 0.52766 1.31407 0.71453 1.09112 0.937516C0.868059 1.1605 0.681134 1.41728 0.538252 1.69852C0.392681 1.98429 0.300186 2.27731 0.243909 2.59234C0.187907 2.90227 0.169266 3.21866 0.160808 3.53209C0.156941 3.67596 0.155283 3.81982 0.154343 3.96366C0.153346 4.13461 0.153679 4.30545 0.153679 4.4767V27.5236C0.153679 27.6949 0.153346 27.8654 0.154343 28.0367C0.155283 28.1805 0.156941 28.3244 0.160808 28.4683C0.169266 28.7814 0.187907 29.0978 0.243909 29.4077C0.300186 29.7228 0.392681 30.0157 0.538252 30.3015C0.681134 30.5827 0.868059 30.8399 1.09112 31.0625C1.31407 31.2859 1.57135 31.4727 1.85237 31.6152C2.13823 31.7611 2.43124 31.8535 2.74613 31.9102C3.05606 31.9655 3.3726 31.9843 3.68646 31.9928C3.83037 31.9961 3.97428 31.998 4.11852 31.9987C4.28916 32 4.46041 32 4.63136 32H45.6759C45.8466 32 46.0178 32 46.1884 31.9987C46.3324 31.998 46.4763 31.9961 46.6208 31.9928C46.934 31.9843 47.2505 31.9655 47.5612 31.9102C47.8757 31.8535 48.1687 31.7611 48.4546 31.6152C48.736 31.4727 48.9925 31.2859 49.2159 31.0625C49.4386 30.8399 49.6255 30.5827 49.7688 30.3015C49.9146 30.0157 50.0071 29.7228 50.0631 29.4077C50.1191 29.0978 50.1373 28.7814 50.1458 28.4683C50.1497 28.3244 50.1516 28.1805 50.1523 28.0367C50.1536 27.8654 50.1536 27.6949 50.1536 27.5236V4.4767C50.1536 4.30545 50.1536 4.13461 50.1523 3.96366C50.1516 3.81982 50.1497 3.67596 50.1458 3.53209C50.1373 3.21866 50.1191 2.90227 50.0631 2.59234C50.0071 2.27731 49.9146 1.98429 49.7688 1.69852C49.6255 1.41728 49.4386 1.1605 49.2159 0.937516C48.9925 0.71453 48.736 0.52766 48.4546 0.384791C48.1687 0.239294 47.8757 0.146886 47.5612 0.0902335C47.2505 0.0345472 46.934 0.0160355 46.6208 0.00754966C46.4763 0.00362383 46.3324 0.00202331 46.1884 0.000996555C46.0178 0 45.8466 0 45.6759 0Z" fill="black"/>
<path d="M45.6759 1.06665L46.1809 1.06762C46.3176 1.06858 46.4544 1.07006 46.592 1.07381C46.8312 1.08027 47.1111 1.09323 47.372 1.13997C47.5987 1.1808 47.7889 1.24289 47.9714 1.33578C48.1516 1.42731 48.3167 1.54726 48.4608 1.69116C48.6055 1.83602 48.7257 2.00133 48.8184 2.18346C48.9108 2.3645 48.9726 2.55372 49.0132 2.78208C49.0598 3.04004 49.0727 3.32058 49.0793 3.56124C49.0829 3.69707 49.0847 3.8329 49.0854 3.97197C49.0867 4.14015 49.0867 4.30823 49.0867 4.47674V27.5237C49.0867 27.6922 49.0867 27.86 49.0854 28.0317C49.0848 28.1675 49.0829 28.3034 49.0792 28.4394C49.0727 28.6797 49.0598 28.9601 49.0126 29.2211C48.9726 29.4463 48.9109 29.6356 48.818 29.8175C48.7255 29.9992 48.6055 30.1643 48.4614 30.3083C48.3165 30.4533 48.1519 30.5728 47.9696 30.6652C47.7885 30.7577 47.5986 30.8197 47.3741 30.8601C47.1079 30.9075 46.8163 30.9205 46.5967 30.9265C46.4585 30.9296 46.321 30.9315 46.1802 30.9321C46.0123 30.9334 45.8438 30.9334 45.6759 30.9334H4.63136C4.62912 30.9334 4.62694 30.9334 4.62468 30.9334C4.45872 30.9334 4.29243 30.9334 4.12344 30.9321C3.98567 30.9315 3.84819 30.9296 3.71528 30.9266C3.49065 30.9205 3.19888 30.9075 2.93489 30.8604C2.70843 30.8197 2.51857 30.7577 2.33503 30.664C2.15442 30.5725 1.99 30.453 1.84497 30.3078C1.70106 30.1641 1.58147 29.9995 1.48901 29.8176C1.39645 29.6358 1.33452 29.446 1.29381 29.2181C1.24674 28.9576 1.23381 28.6783 1.22735 28.4396C1.22366 28.303 1.22212 28.1664 1.22125 28.0305L1.22058 27.6295L1.22061 27.5237V4.47674L1.22058 4.37086L1.22122 3.9707C1.22212 3.83405 1.22366 3.69743 1.22735 3.56091C1.23381 3.322 1.24674 3.04261 1.2942 2.77994C1.33455 2.55408 1.39645 2.36425 1.48949 2.18158C1.58123 2.00103 1.70103 1.8362 1.8457 1.69161C1.98979 1.5475 2.15475 1.4277 2.33651 1.3353C2.51809 1.24286 2.70831 1.1808 2.93477 1.14006C3.19571 1.09319 3.47576 1.08027 3.71561 1.07378C3.85233 1.07006 3.98905 1.06858 4.12474 1.06765L4.63136 1.06665H45.6759Z" fill="white"/>
<path d="M13.8033 10.763C14.2314 10.2277 14.522 9.50892 14.4453 8.77441C13.8186 8.80557 13.0539 9.18775 12.6111 9.72348C12.2136 10.1823 11.8617 10.9311 11.9534 11.6348C12.6569 11.6958 13.3598 11.2833 13.8033 10.763Z" fill="black"/>
<path d="M14.4374 11.7721C13.4157 11.7113 12.5471 12.3518 12.0592 12.3518C11.571 12.3518 10.8239 11.8028 10.0158 11.8176C8.96407 11.833 7.98816 12.4275 7.45444 13.3731C6.35666 15.2646 7.16473 18.0704 8.23227 19.6109C8.75068 20.3731 9.37546 21.2122 10.1987 21.1821C10.9765 21.1516 11.2814 20.6786 12.2269 20.6786C13.1717 20.6786 13.4463 21.1821 14.2697 21.1668C15.1236 21.1516 15.6574 20.4043 16.1758 19.6414C16.7705 18.7726 17.014 17.9337 17.0293 17.8876C17.014 17.8724 15.3828 17.2468 15.3677 15.371C15.3523 13.8004 16.6483 13.0533 16.7093 13.007C15.9774 11.9248 14.8339 11.8028 14.4374 11.7721Z" fill="black"/>
<path d="M23.3332 9.64673C25.5537 9.64673 27.1 11.1769 27.1 13.4048C27.1 15.6406 25.5219 17.1787 23.2775 17.1787H20.8189V21.0874H19.0426V9.64673H23.3332V9.64673ZM20.8189 15.6881H22.8571C24.4037 15.6881 25.2839 14.8557 25.2839 13.4127C25.2839 11.9698 24.4037 11.1453 22.8651 11.1453H20.8189V15.6881Z" fill="black"/>
<path d="M27.5641 18.7169C27.5641 17.258 28.6823 16.3622 30.6652 16.2511L32.949 16.1164V15.4743C32.949 14.5466 32.3225 13.9917 31.2758 13.9917C30.2842 13.9917 29.6656 14.4673 29.5151 15.2126H27.8973C27.9924 13.7061 29.2771 12.5962 31.3391 12.5962C33.3614 12.5962 34.6541 13.6665 34.6541 15.3394V21.0875H33.0124V19.7159H32.9729C32.4892 20.6435 31.4343 21.2301 30.3399 21.2301C28.7062 21.2301 27.5641 20.2153 27.5641 18.7169ZM32.949 17.9638V17.3057L30.8949 17.4325C29.8718 17.5039 29.293 17.9558 29.293 18.6694C29.293 19.3987 29.8957 19.8744 30.8157 19.8744C32.0131 19.8744 32.949 19.0499 32.949 17.9638Z" fill="black"/>
<path d="M36.204 24.1558V22.7683C36.3306 22.7999 36.6161 22.7999 36.759 22.7999C37.552 22.7999 37.9803 22.467 38.2419 21.6108C38.2419 21.5949 38.3927 21.1034 38.3927 21.0954L35.3792 12.7468H37.2347L39.3445 19.5336H39.376L41.4858 12.7468H43.294L40.169 21.5235C39.4556 23.5453 38.6307 24.1954 36.9018 24.1954C36.759 24.1954 36.3306 24.1795 36.204 24.1558Z" fill="black"/>
</g>
<defs>
<clipPath id="clip0_8_178">
<rect width="50" height="32" fill="white" transform="translate(0.153625)"/>
</clipPath>
</defs>
</svg>
