<svg width="78" height="26" viewBox="0 0 78 26" fill="none" xmlns="http://www.w3.org/2000/svg">
<path d="M39.9019 8.51603C39.8519 11.9729 43.002 13.9269 45.3521 15.0792C47.7022 16.2315 48.6023 17.0331 48.5523 18.0852C48.5023 19.1373 46.6522 20.3898 44.8521 20.4399C42.6205 20.4857 40.4152 19.9505 38.4518 18.8868L37.3018 24.1974C39.5212 25.048 41.8759 25.4893 44.2521 25.5C50.8024 25.5 55.1026 22.2435 55.1026 17.2335C55.1026 10.8707 46.3022 10.52 46.3522 7.66433C46.4022 6.76252 47.2022 5.86072 49.0023 5.61022C51.1139 5.41977 53.2378 5.8004 55.1526 6.71243L56.2526 1.6022C54.3845 0.885679 52.4027 0.512314 50.4024 0.5C44.2521 0.5 39.9019 3.80661 39.9019 8.51603ZM66.8031 0.950903C66.2287 0.936461 65.6642 1.10265 65.1889 1.42614C64.7136 1.74963 64.3513 2.21416 64.153 2.75451L54.8026 25.0992H61.3029L62.6029 21.492H70.6033L71.3533 25.0992H77.1536L72.1034 0.950903H66.8031ZM67.7032 7.46393L69.6033 16.5321H64.403L67.7032 7.46393ZM31.9515 0.950903L26.8013 25.0992H33.0516L38.2018 0.950903H31.9515ZM22.7511 0.950903L16.2508 17.3838L13.6006 3.40581C13.4938 2.7242 13.1484 2.10293 12.6262 1.65315C12.104 1.20337 11.4391 0.954443 10.7505 0.950903H0.150009L0 1.6523C2.12303 2.09434 4.18716 2.78374 6.15029 3.70641C7.05033 4.20742 7.30034 4.65832 7.60036 5.86072L12.6006 25.0992H19.1509L29.2514 0.950903H22.7511Z" fill="#15195A"/>
</svg>
