<svg width="96" height="26" viewBox="0 0 96 26" fill="none" xmlns="http://www.w3.org/2000/svg">
<path d="M93.7451 17.21L94.9594 14.8352H88.5969C85.9742 14.8352 84.42 16.2601 84.42 18.2031C84.42 20.146 85.877 21.355 88.1598 21.355H91.0253C91.1568 21.3432 91.2896 21.3553 91.4157 21.3906C91.5417 21.426 91.6583 21.4838 91.7583 21.5606C91.8584 21.6374 91.9397 21.7315 91.9974 21.8372C92.0551 21.943 92.0879 22.058 92.0938 22.1754V22.2618C92.0938 22.4908 91.9915 22.7104 91.8093 22.8724C91.6271 23.0343 91.3801 23.1253 91.1224 23.1253H84.8085V25.5001H90.9767C93.5994 25.5001 95.1536 24.1184 95.1536 22.0459C95.1536 19.9733 93.7937 18.9803 91.4138 18.9803H88.5483C88.4206 18.9922 88.2916 18.9815 88.1686 18.9488C88.0456 18.9161 87.9311 18.8621 87.8317 18.7898C87.7323 18.7175 87.6501 18.6284 87.5897 18.5277C87.5293 18.427 87.4919 18.3167 87.4798 18.2031V18.0735C87.4798 17.8445 87.5821 17.6248 87.7643 17.4629C87.9465 17.301 88.1935 17.21 88.4512 17.21H93.7451ZM76.4547 18.0735C76.4547 17.8445 76.557 17.6248 76.7392 17.4629C76.9214 17.301 77.1685 17.21 77.4261 17.21H82.7201L83.9343 14.8352H77.5718C74.9491 14.8352 73.3949 16.2601 73.3949 18.2031C73.3949 20.146 74.9005 21.355 77.1832 21.355H80.0002C80.1317 21.3432 80.2645 21.3553 80.3906 21.3906C80.5166 21.426 80.6332 21.4838 80.7332 21.5606C80.8333 21.6374 80.9146 21.7315 80.9723 21.8372C81.03 21.943 81.0628 22.058 81.0687 22.1754V22.2618C81.0757 22.3768 81.0554 22.4919 81.0091 22.5995C80.9627 22.707 80.8914 22.8048 80.7998 22.8862C80.7082 22.9677 80.5982 23.0311 80.4772 23.0723C80.3562 23.1135 80.2268 23.1315 80.0974 23.1253H73.7834V25.5001H80.0002C82.5744 25.5001 84.1285 24.1184 84.1285 22.0459C84.1285 19.9733 82.7686 18.9803 80.3888 18.9803H77.5232C77.3955 18.9922 77.2665 18.9815 77.1435 18.9488C77.0205 18.9161 76.906 18.8621 76.8066 18.7898C76.7073 18.7175 76.625 18.6284 76.5646 18.5277C76.5042 18.427 76.4668 18.3167 76.4547 18.2031V18.0735ZM62.6126 25.5001H72.4235V23.1253H65.6725V21.3118H72.2292V18.9803H65.6725V17.21H72.4235V14.8352H62.6126V25.5001ZM62.127 25.5001L58.2415 21.6141C59.1292 21.4896 59.9369 21.0851 60.5166 20.4746C61.0964 19.8641 61.4094 19.0883 61.3984 18.2894C61.3984 16.2169 59.7957 14.8352 57.2215 14.8352H50.519V25.5001H53.5789V21.7436H54.7445L58.3872 25.5001H62.127ZM56.8815 19.412H53.5789V17.21H56.8815C57.8529 17.21 58.29 17.7281 58.29 18.3326C58.29 18.9371 57.8043 19.412 56.8815 19.412ZM49.2077 18.4189C49.2077 16.3032 47.6049 14.8352 45.0308 14.8352H38.2797V25.5001H41.3396V22.0459H44.9336C47.6049 22.0459 49.2077 20.4915 49.2077 18.4189ZM46.1479 18.4621C46.1544 18.6131 46.1266 18.7638 46.066 18.905C46.0055 19.0462 45.9135 19.1751 45.7956 19.284C45.6777 19.3929 45.5363 19.4794 45.3798 19.5385C45.2233 19.5976 45.0551 19.628 44.8851 19.6279H41.3396V17.21H44.7394C44.9117 17.1982 45.0849 17.2168 45.2491 17.2648C45.4133 17.3127 45.5652 17.389 45.6961 17.4894C45.827 17.5897 45.9343 17.712 46.0118 17.8493C46.0893 17.9866 46.1356 18.1362 46.1479 18.2894V18.4621ZM38.0369 25.5001L33.18 20.146L37.9883 14.8352H34.2485L31.4316 18.1167L28.566 14.8352H24.7291L29.5859 20.1892L24.7776 25.5001H28.5174L31.3344 22.2186L34.2 25.5001H38.0369ZM14.7239 25.5001H24.5348V23.1253H17.7838V21.3118H24.3405V18.9803H17.7838V17.21H24.5348V14.8352H14.7239V25.5001Z" fill="#016FD0"/>
<path d="M93.3569 11.208V0.5H90.3456V7.14935L85.5373 0.5H81.6518V11.208H84.7117V4.34281L89.6657 11.208H93.3569ZM77.912 11.208H81.3604L76.2121 0.5H72.2295L67.0812 11.208H70.4325L71.4524 9.00599H76.8921L77.912 11.208ZM75.8236 6.71758H72.5209L74.1723 3.04748L75.8236 6.71758ZM66.0127 3.0043H69.2183V0.5H65.7699C61.9815 0.5 59.9416 2.74524 59.9416 5.76767V5.94038C59.9416 9.22188 62.0787 11.208 65.527 11.208H65.7699L67.0327 8.7901H66.0613C64.1185 8.7901 63.0015 7.75384 63.0015 5.94038V5.76767C63.0015 4.1701 64.0214 3.0043 66.0127 3.0043ZM55.4248 11.208H58.4846V0.5H55.4248V11.208ZM54.9391 11.208L51.0536 7.32206C51.9454 7.18813 52.7538 6.77499 53.3329 6.15731C53.9119 5.53963 54.2232 4.75817 54.2105 3.95421C54.2105 1.92486 52.6078 0.5 50.0336 0.5H43.3312V11.208H46.391V7.40842H47.5566L51.1507 11.208H54.9391ZM49.6937 5.07683H46.391V2.91795H49.6937C50.6165 2.91795 51.1021 3.3929 51.1021 3.99739C51.1021 4.60187 50.6165 5.07683 49.6937 5.07683ZM31.8204 11.208H41.5827V8.7901H34.8316V6.97664H41.437V4.64505H34.8802V2.91795H41.6313V0.5H31.8204V11.208ZM26.7693 11.208H29.7805V0.5H24.9722L22.3009 7.32206L19.5811 0.5H14.7242V11.208H17.784V3.30654L20.941 11.208H23.6123L26.7693 3.30654V11.208ZM10.9844 11.208H14.4328L9.28453 0.5H5.3019L0.153625 11.208H3.55343L4.5248 9.00599H9.96449L10.9844 11.208ZM8.89598 6.71758H5.59331L7.24465 3.04748L8.89598 6.71758Z" fill="#016FD0"/>
</svg>
