<svg width="71" height="28" viewBox="0 0 71 28" fill="none" xmlns="http://www.w3.org/2000/svg">
<path d="M33.7739 13.6718V21.8828H31.1875V1.64281H38.0847C38.9077 1.61863 39.7273 1.75866 40.4957 2.05472C41.264 2.35077 41.9656 2.79692 42.5597 3.36711C43.6967 4.42918 44.3657 5.89918 44.4196 7.45416C44.4734 9.00915 43.9078 10.5219 42.847 11.6602L42.5597 11.9475C41.9656 12.5177 41.264 12.9639 40.4957 13.2599C39.7273 13.556 38.9077 13.696 38.0847 13.6718H33.7739ZM33.7739 4.10609V11.2086H38.1668C38.8613 11.2202 39.5438 11.0267 40.1288 10.6524C40.7139 10.2781 41.1756 9.73947 41.456 9.10404C41.7365 8.4686 41.8233 7.76455 41.7056 7.08002C41.5879 6.39549 41.2709 5.76088 40.7943 5.25563H40.7122C40.3895 4.90256 39.9961 4.62139 39.5575 4.4304C39.119 4.23942 38.6451 4.14291 38.1668 4.14715L33.7739 4.10609Z" fill="#5F6368"/>
<path d="M50.4421 7.55493C52.3306 7.55493 53.8496 8.08864 54.9581 9.11501C56.0666 10.1414 56.6414 11.5372 56.6414 13.3436V21.883H54.137V19.9535H54.0549C53.6085 20.6937 52.9751 21.3034 52.2184 21.7213C51.4618 22.1393 50.6084 22.3508 49.7442 22.3346C48.348 22.3691 46.9883 21.8866 45.9261 20.9798C45.4263 20.5659 45.0265 20.0445 44.7564 19.4545C44.4862 18.8644 44.3528 18.2211 44.366 17.5723C44.3499 16.9148 44.4904 16.2628 44.7759 15.6704C45.0614 15.0779 45.4838 14.5618 46.0082 14.1647C47.0756 13.3026 48.5125 12.892 50.3189 12.892C51.6453 12.839 52.9622 13.1363 54.137 13.7542V13.1384C54.1531 12.6981 54.0648 12.2603 53.8793 11.8607C53.6938 11.4611 53.4163 11.1111 53.0696 10.8393C52.3843 10.2191 51.4894 9.88173 50.5653 9.89505C49.8787 9.87199 49.1981 10.0307 48.5926 10.3551C47.987 10.6795 47.4779 11.1581 47.1167 11.7425L44.8176 10.3056C46.0903 8.49919 47.9378 7.55493 50.4421 7.55493ZM47.0756 17.6544C47.0628 17.9854 47.1353 18.3141 47.2863 18.6089C47.4373 18.9037 47.6617 19.1547 47.9378 19.3376C48.5107 19.79 49.2194 20.0359 49.9494 20.0356C50.4926 20.0333 51.03 19.9233 51.5303 19.7119C52.0307 19.5005 52.4841 19.1918 52.8643 18.8039C53.2737 18.4447 53.6024 18.0029 53.8288 17.5076C54.0553 17.0123 54.1743 16.4747 54.1781 15.9301C53.1745 15.2545 51.9787 14.9231 50.7705 14.9858C49.8368 14.9318 48.9118 15.192 48.143 15.7248C47.8177 15.9312 47.5494 16.2161 47.3629 16.5533C47.1764 16.8904 47.0776 17.2691 47.0756 17.6544Z" fill="#5F6368"/>
<path d="M70.9287 8.04736L62.2251 28H59.5566L62.7999 21.0207L57.0522 8.04736H59.885L64.0316 17.9826H64.0726L68.096 8.04736H70.9287Z" fill="#5F6368"/>
<path d="M23.2638 11.9068C23.2769 11.1217 23.2081 10.3374 23.0585 9.56665H12.0969V14.0416H18.3783C18.257 14.7561 17.9904 15.4381 17.595 16.0454C17.1995 16.6527 16.6836 17.1724 16.0792 17.5723V20.4872H19.8152C22.0322 18.4345 23.2638 15.4375 23.2638 11.9068Z" fill="#4285F4"/>
<path d="M12.0966 23.279C15.2578 23.279 17.8853 22.2526 19.8149 20.4873L16.0789 17.5724C14.4978 18.5769 12.5839 18.9163 10.7539 18.5164C8.92384 18.1166 7.32586 17.01 6.30785 15.4375C6.02043 14.938 5.77332 14.4163 5.56886 13.8774H1.70972V16.8744C2.67301 18.8032 4.15572 20.4247 5.99086 21.5562C7.82599 22.6878 9.94062 23.2844 12.0966 23.279Z" fill="#34A853"/>
<path d="M5.56915 13.8774C5.07492 12.4408 5.07492 10.8802 5.56915 9.44353V6.44653H1.71C0.900623 8.06543 0.479248 9.85053 0.479248 11.6605C0.479248 13.4704 0.900623 15.2555 1.71 16.8744L5.56915 13.8774Z" fill="#FBBC04"/>
<path d="M12.0966 4.6401C12.9196 4.61593 13.7392 4.75595 14.5075 5.05201C15.2759 5.34806 15.9775 5.79421 16.5715 6.3644L19.897 3.03897C17.7891 1.05314 14.9923 -0.0361599 12.0966 0.000916335C9.94261 0.00485619 7.83184 0.605384 5.9984 1.73589C4.16496 2.86639 2.68051 4.48267 1.70972 6.40546L5.56886 9.40245C6.01786 8.02302 6.89037 6.82028 8.0623 5.96529C9.23423 5.11029 10.6459 4.64658 12.0966 4.6401Z" fill="#EA4335"/>
</svg>
