<svg width="44" height="28" viewBox="0 0 44 28" fill="none" xmlns="http://www.w3.org/2000/svg">
<path d="M27.9513 24.7061H16.0488V3.32666H27.9513V24.7061Z" fill="#FF5F00"/>
<path d="M16.8102 14.0162C16.8114 11.9541 17.2789 9.9189 18.1776 8.0629C19.0763 6.2069 20.383 4.5781 21.9999 3.2983C19.9943 1.7207 17.5853 0.739381 15.0482 0.466589C12.5111 0.193798 9.94848 0.640541 7.65338 1.75573C5.35827 2.87091 3.42335 4.60952 2.06991 6.7727C0.716471 8.93588 -0.000844622 11.4363 7.46349e-07 13.988C-0.000844622 16.5397 0.716471 19.0401 2.06991 21.2033C3.42335 23.3665 5.35827 25.1051 7.65338 26.2203C9.94848 27.3355 12.5111 27.7822 15.0482 27.5094C17.5853 27.2366 19.9943 26.2553 21.9999 24.6777C20.3867 23.4009 19.0823 21.7766 18.1837 19.9258C17.2852 18.075 16.8157 16.0454 16.8102 13.988" fill="#EB001B"/>
<path d="M44 14.0162C44 17.6218 42.5677 21.0797 40.0182 23.6292C37.4687 26.1787 34.0108 27.611 30.4052 27.611C27.3552 27.6234 24.3915 26.599 22.0001 24.7059C23.6194 23.431 24.9284 21.8053 25.8284 19.9512C26.7284 18.0972 27.1961 16.0631 27.1961 14.0021C27.1961 11.9411 26.7284 9.90702 25.8284 8.05295C24.9284 6.19889 23.6194 4.57319 22.0001 3.2983C24.0057 1.7207 26.4147 0.739381 28.9518 0.466589C31.4889 0.193798 34.0515 0.640541 36.3466 1.75573C38.6417 2.87091 40.5767 4.60952 41.9301 6.7727C43.2835 8.93588 44.0008 11.4363 44 13.988" fill="#F79E1B"/>
</svg>
