<svg width="160" height="24" viewBox="0 0 160 24" fill="none" xmlns="http://www.w3.org/2000/svg">
<g clipPath="url(#clip0_4_1465)">
<path d="M23.363 8.58405L15.985 7.45706L12.678 0.413055C12.431 -0.112945 11.568 -0.112945 11.321 0.413055L8.01497 7.45706L0.636973 8.58405C0.50075 8.60498 0.372927 8.66304 0.26754 8.75185C0.162152 8.84067 0.0832741 8.95681 0.0395673 9.08751C-0.00413947 9.21822 -0.0109853 9.35844 0.0197814 9.49279C0.0505481 9.62713 0.117738 9.7504 0.213973 9.84906L5.57397 15.3431L4.30697 23.1101C4.28435 23.249 4.30127 23.3914 4.35579 23.5212C4.41031 23.6509 4.50024 23.7627 4.6153 23.8438C4.73035 23.9248 4.86589 23.9719 5.00642 23.9795C5.14695 23.9872 5.28679 23.9551 5.40997 23.8871L12 20.2451L18.59 23.8881C18.7132 23.9561 18.853 23.9882 18.9935 23.9805C19.1341 23.9729 19.2696 23.9258 19.3847 23.8448C19.4997 23.7637 19.5896 23.6519 19.6442 23.5222C19.6987 23.3924 19.7156 23.25 19.693 23.1111L18.426 15.3441L23.786 9.85006C23.8825 9.75143 23.9499 9.62808 23.9809 9.4936C24.0118 9.35911 24.005 9.2187 23.9613 9.08781C23.9176 8.95693 23.8386 8.84065 23.733 8.75177C23.6274 8.66288 23.4994 8.60485 23.363 8.58405Z" fill="#FFC107"/>
</g>
<g clipPath="url(#clip1_4_1465)">
<path d="M57.363 8.58405L49.985 7.45706L46.678 0.413055C46.431 -0.112945 45.568 -0.112945 45.321 0.413055L42.015 7.45706L34.637 8.58405C34.5007 8.60498 34.3729 8.66304 34.2675 8.75185C34.1622 8.84067 34.0833 8.95681 34.0396 9.08751C33.9959 9.21822 33.989 9.35844 34.0198 9.49279C34.0505 9.62713 34.1177 9.7504 34.214 9.84906L39.574 15.3431L38.307 23.1101C38.2843 23.249 38.3013 23.3914 38.3558 23.5212C38.4103 23.6509 38.5002 23.7627 38.6153 23.8438C38.7304 23.9248 38.8659 23.9719 39.0064 23.9795C39.1469 23.9872 39.2868 23.9551 39.41 23.8871L46 20.2451L52.59 23.8881C52.7132 23.9561 52.853 23.9882 52.9935 23.9805C53.1341 23.9729 53.2696 23.9258 53.3847 23.8448C53.4997 23.7637 53.5896 23.6519 53.6442 23.5222C53.6987 23.3924 53.7156 23.25 53.693 23.1111L52.426 15.3441L57.786 9.85006C57.8825 9.75143 57.9499 9.62808 57.9809 9.4936C58.0118 9.35911 58.005 9.2187 57.9613 9.08781C57.9176 8.95693 57.8386 8.84065 57.733 8.75177C57.6274 8.66288 57.4994 8.60485 57.363 8.58405Z" fill="#FFC107"/>
</g>
<g clipPath="url(#clip2_4_1465)">
<path d="M91.363 8.58405L83.985 7.45706L80.678 0.413055C80.431 -0.112945 79.568 -0.112945 79.321 0.413055L76.015 7.45706L68.637 8.58405C68.5007 8.60498 68.3729 8.66304 68.2675 8.75185C68.1622 8.84067 68.0833 8.95681 68.0396 9.08751C67.9959 9.21822 67.989 9.35844 68.0198 9.49279C68.0505 9.62713 68.1177 9.7504 68.214 9.84906L73.574 15.3431L72.307 23.1101C72.2843 23.249 72.3013 23.3914 72.3558 23.5212C72.4103 23.6509 72.5002 23.7627 72.6153 23.8438C72.7304 23.9248 72.8659 23.9719 73.0064 23.9795C73.1469 23.9872 73.2868 23.9551 73.41 23.8871L80 20.2451L86.59 23.8881C86.7132 23.9561 86.853 23.9882 86.9935 23.9805C87.1341 23.9729 87.2696 23.9258 87.3847 23.8448C87.4997 23.7637 87.5896 23.6519 87.6442 23.5222C87.6987 23.3924 87.7156 23.25 87.693 23.1111L86.426 15.3441L91.786 9.85006C91.8825 9.75143 91.9499 9.62808 91.9809 9.4936C92.0118 9.35911 92.005 9.2187 91.9613 9.08781C91.9176 8.95693 91.8386 8.84065 91.733 8.75177C91.6274 8.66288 91.4994 8.60485 91.363 8.58405Z" fill="#FFC107"/>
</g>
<g clipPath="url(#clip3_4_1465)">
<path d="M125.363 8.58405L117.985 7.45706L114.678 0.413055C114.431 -0.112945 113.568 -0.112945 113.321 0.413055L110.015 7.45706L102.637 8.58405C102.501 8.60498 102.373 8.66304 102.268 8.75185C102.162 8.84067 102.083 8.95681 102.04 9.08751C101.996 9.21822 101.989 9.35844 102.02 9.49279C102.051 9.62713 102.118 9.7504 102.214 9.84906L107.574 15.3431L106.307 23.1101C106.284 23.249 106.301 23.3914 106.356 23.5212C106.41 23.6509 106.5 23.7627 106.615 23.8438C106.73 23.9248 106.866 23.9719 107.006 23.9795C107.147 23.9872 107.287 23.9551 107.41 23.8871L114 20.2451L120.59 23.8881C120.713 23.9561 120.853 23.9882 120.994 23.9805C121.134 23.9729 121.27 23.9258 121.385 23.8448C121.5 23.7637 121.59 23.6519 121.644 23.5222C121.699 23.3924 121.716 23.25 121.693 23.1111L120.426 15.3441L125.786 9.85006C125.882 9.75143 125.95 9.62808 125.981 9.4936C126.012 9.35911 126.005 9.2187 125.961 9.08781C125.918 8.95693 125.839 8.84065 125.733 8.75177C125.627 8.66288 125.499 8.60485 125.363 8.58405Z" fill="#FFC107"/>
</g>
<g clipPath="url(#clip4_4_1465)">
<path d="M159.363 8.58405L151.985 7.45706L148.678 0.413055C148.431 -0.112945 147.568 -0.112945 147.321 0.413055L144.015 7.45706L136.637 8.58405C136.501 8.60498 136.373 8.66304 136.268 8.75185C136.162 8.84067 136.083 8.95681 136.04 9.08751C135.996 9.21822 135.989 9.35844 136.02 9.49279C136.051 9.62713 136.118 9.7504 136.214 9.84906L141.574 15.3431L140.307 23.1101C140.284 23.249 140.301 23.3914 140.356 23.5212C140.41 23.6509 140.5 23.7627 140.615 23.8438C140.73 23.9248 140.866 23.9719 141.006 23.9795C141.147 23.9872 141.287 23.9551 141.41 23.8871L148 20.2451L154.59 23.8881C154.713 23.9561 154.853 23.9882 154.994 23.9805C155.134 23.9729 155.27 23.9258 155.385 23.8448C155.5 23.7637 155.59 23.6519 155.644 23.5222C155.699 23.3924 155.716 23.25 155.693 23.1111L154.426 15.3441L159.786 9.85006C159.882 9.75143 159.95 9.62808 159.981 9.4936C160.012 9.35911 160.005 9.2187 159.961 9.08781C159.918 8.95693 159.839 8.84065 159.733 8.75177C159.627 8.66288 159.499 8.60485 159.363 8.58405Z" fill="#FFC107"/>
</g>
<defs>
<clipPath id="clip0_4_1465">
<rect width="24" height="24" fill="white"/>
</clipPath>
<clipPath id="clip1_4_1465">
<rect width="24" height="24" fill="white" transform="translate(34)"/>
</clipPath>
<clipPath id="clip2_4_1465">
<rect width="24" height="24" fill="white" transform="translate(68)"/>
</clipPath>
<clipPath id="clip3_4_1465">
<rect width="24" height="24" fill="white" transform="translate(102)"/>
</clipPath>
<clipPath id="clip4_4_1465">
<rect width="24" height="24" fill="white" transform="translate(136)"/>
</clipPath>
</defs>
</svg>
