<svg width="396" height="40" viewBox="0 0 396 40" fill="none" xmlns="http://www.w3.org/2000/svg">
<path fill-rule="evenodd" clip-rule="evenodd" d="M396 0H0V40H2.94321C6.74711 33.4242 13.8569 29 22 29C30.1431 29 37.2529 33.4242 41.0568 40H46.9432C50.7471 33.4242 57.8569 29 66 29C74.1431 29 81.2529 33.4242 85.0568 40H90.9432C94.7471 33.4242 101.857 29 110 29C118.143 29 125.253 33.4242 129.057 40H134.943C138.747 33.4242 145.857 29 154 29C162.143 29 169.253 33.4242 173.057 40H178.943C182.747 33.4242 189.857 29 198 29C206.143 29 213.253 33.4242 217.057 40H222.943C226.747 33.4242 233.857 29 242 29C250.143 29 257.253 33.4242 261.057 40H266.943C270.747 33.4242 277.857 29 286 29C294.143 29 301.253 33.4242 305.057 40H310.943C314.747 33.4242 321.857 29 330 29C338.143 29 345.253 33.4242 349.057 40H354.943C358.747 33.4242 365.857 29 374 29C382.143 29 389.253 33.4242 393.057 40H396V0Z" fill="white"/>
</svg>
