<svg width="36" height="37" viewBox="0 0 36 37" fill="none" xmlns="http://www.w3.org/2000/svg">
<rect y="0.5" width="36" height="36" rx="18" fill="#C7372C" fill-opacity="0.1"/>
<path fillRule="evenodd" clipRule="evenodd" d="M17.9999 9.3335C12.9373 9.3335 8.83325 13.4376 8.83325 18.5002C8.83325 23.5628 12.9373 27.6668 17.9999 27.6668C23.0625 27.6668 27.1666 23.5628 27.1666 18.5002C27.1666 13.4376 23.0625 9.3335 17.9999 9.3335ZM21.0892 15.4109C21.4146 15.7363 21.4146 16.264 21.0892 16.5894L19.1784 18.5002L21.0892 20.4109C21.4146 20.7363 21.4146 21.264 21.0892 21.5894C20.7637 21.9149 20.2361 21.9149 19.9107 21.5894L17.9999 19.6787L16.0892 21.5894C15.7637 21.9149 15.2361 21.9149 14.9107 21.5894C14.5852 21.264 14.5852 20.7363 14.9107 20.4109L16.8214 18.5002L14.9107 16.5894C14.5852 16.264 14.5852 15.7363 14.9107 15.4109C15.2361 15.0855 15.7637 15.0855 16.0892 15.4109L17.9999 17.3217L19.9107 15.4109C20.2361 15.0855 20.7637 15.0855 21.0892 15.4109Z" fill="#C7372C"/>
</svg>
