<svg width="21" height="21" viewBox="0 0 21 21" fill="none" xmlns="http://www.w3.org/2000/svg">
<g clip-path="url(#clip0_2190_2542)">
<path d="M19.3 19.2998L13.3 13.2998L19.3 19.2998ZM15.3 8.2998C15.3 9.21906 15.119 10.1293 14.7672 10.9786C14.4154 11.8279 13.8998 12.5995 13.2498 13.2496C12.5998 13.8996 11.8281 14.4152 10.9788 14.767C10.1296 15.1187 9.2193 15.2998 8.30005 15.2998C7.3808 15.2998 6.47054 15.1187 5.62126 14.767C4.77199 14.4152 4.00031 13.8996 3.3503 13.2496C2.70029 12.5995 2.18468 11.8279 1.83289 10.9786C1.48111 10.1293 1.30005 9.21906 1.30005 8.2998C1.30005 6.44329 2.03755 4.66281 3.3503 3.35006C4.66306 2.0373 6.44353 1.2998 8.30005 1.2998C10.1566 1.2998 11.937 2.0373 13.2498 3.35006C14.5626 4.66281 15.3 6.44329 15.3 8.2998Z" stroke="#010203" stroke-width="2" stroke-linecap="round" stroke-linejoin="round"/>
</g>
<defs>
<clipPath id="clip0_2190_2542">
<rect width="20.6" height="20.6" fill="white"/>
</clipPath>
</defs>
</svg>
