<svg width="21" height="21" viewBox="0 0 21 21" fill="none" xmlns="http://www.w3.org/2000/svg">
<path d="M8.26056 19.67H12.4094M17.5956 19.67V3.07444C17.5956 2.52427 17.377 1.99662 16.988 1.60759C16.5989 1.21856 16.0713 1 15.5211 1H5.14889C4.59871 1 4.07107 1.21856 3.68204 1.60759C3.293 1.99662 3.07444 2.52427 3.07444 3.07444V19.67H17.5956ZM17.5956 19.67H19.67H17.5956ZM17.5956 19.67H12.4094H17.5956ZM3.07444 19.67H1H3.07444ZM3.07444 19.67H8.26056H3.07444ZM7.22333 5.14889H8.26056H7.22333ZM7.22333 9.29778H8.26056H7.22333ZM12.4094 5.14889H13.4467H12.4094ZM12.4094 9.29778H13.4467H12.4094ZM8.26056 19.67V14.4839C8.26056 14.2088 8.36983 13.945 8.56435 13.7505C8.75887 13.5559 9.02269 13.4467 9.29778 13.4467H11.3722C11.6473 13.4467 11.9111 13.5559 12.1056 13.7505C12.3002 13.945 12.4094 14.2088 12.4094 14.4839V19.67H8.26056Z" stroke="#CACACA" stroke-width="2" stroke-linecap="round" stroke-linejoin="round"/>
</svg>
