<svg width="20" height="20" viewBox="0 0 20 20" fill="none" xmlns="http://www.w3.org/2000/svg">
<path d="M3.33325 10.8333H16.3225C16.7079 10.8333 16.9006 10.8333 17.0106 10.7525C17.1066 10.682 17.1678 10.5739 17.1789 10.4553C17.1915 10.3194 17.0924 10.1541 16.8941 9.82367L15.2057 7.00966C15.1309 6.88496 15.0935 6.8226 15.0789 6.75604C15.0659 6.69716 15.0659 6.63618 15.0789 6.5773C15.0935 6.51073 15.1309 6.44838 15.2057 6.32367L16.8941 3.50966C17.0924 3.17919 17.1915 3.01395 17.1789 2.878C17.1678 2.75945 17.1066 2.65129 17.0106 2.58082C16.9006 2.5 16.7079 2.5 16.3225 2.5H3.33325L3.33325 17.5" stroke="#634FF7" stroke-width="1.2" stroke-linecap="round" stroke-linejoin="round"/>
</svg>
