<svg width="72" height="72" viewBox="0 0 72 72" fill="none" xmlns="http://www.w3.org/2000/svg">
<rect x="1.5" y="1.5" width="69" height="69" rx="34.5" fill="black"/>
<rect x="1.5" y="1.5" width="69" height="69" rx="34.5" stroke="#F9F7FF" stroke-width="3"/>
<path d="M35.908 19.0869C35.6826 19.2206 35.2542 19.4658 32.5397 21.0336C31.71 21.5116 30.7664 22.0564 30.4469 22.2422C30.1275 22.4255 29.6544 22.7004 29.3944 22.849C29.1368 22.9976 28.8297 23.1759 28.7133 23.2428C28.5969 23.3096 28.0074 23.6514 27.4006 24.0006L26.2985 24.6371L26.2911 27.5992L26.2861 30.5588L26.774 30.8412C27.044 30.9972 27.3982 31.2003 27.5616 31.2944C27.7251 31.3885 28.0768 31.5916 28.3418 31.7452C28.6068 31.8962 28.9733 32.1068 29.1541 32.2108C29.3324 32.3173 29.6222 32.4832 29.7981 32.5848C29.9714 32.6838 30.6203 33.0578 31.2395 33.4169C32.2772 34.0163 33.4313 34.6825 34.583 35.3487C34.8356 35.4924 35.3755 35.8044 35.7842 36.0422C36.5296 36.4731 36.8046 36.6316 37.4386 36.9957C37.6243 37.1022 37.7779 37.1988 37.7779 37.2087C37.7779 37.2186 37.4089 37.439 36.9606 37.6966L36.1433 38.1697L34.6499 37.3078C33.1861 36.4632 31.2568 35.3487 30.7937 35.0812C30.6649 35.0045 30.3132 34.8039 30.0135 34.6305C29.7138 34.4571 29.3201 34.2317 29.1417 34.1277C28.3814 33.6869 26.8013 32.7755 26.509 32.6071C26.4075 32.5501 26.3159 32.5006 26.3059 32.5006C26.2936 32.5006 26.2861 33.9296 26.2861 35.6756V38.8532L26.3926 38.9127C26.5041 38.9771 27.7226 39.6779 28.738 40.2649C29.0848 40.4655 29.6272 40.7776 29.9392 40.9584C30.4593 41.2581 31.5713 41.8995 32.1558 42.2388C32.2846 42.3131 32.6586 42.5286 32.9855 42.7168C33.3124 42.9051 33.8152 43.1948 34.1 43.3608C36.2275 44.5917 36.1359 44.5421 36.1978 44.5099C36.23 44.4926 36.334 44.4332 36.4281 44.3762C36.5247 44.3192 36.8417 44.136 37.134 43.9675C37.4262 43.7991 38.0057 43.4648 38.4218 43.2245C38.8379 42.9843 39.4051 42.6574 39.6849 42.4964C39.9648 42.3354 40.2942 42.1447 40.4155 42.0729C40.5394 42.0011 41.1189 41.6667 41.7034 41.3299C42.2904 40.9931 42.8303 40.681 42.9046 40.6364C42.9789 40.5918 43.3083 40.4036 43.6352 40.2154C43.9621 40.0247 44.4649 39.7374 44.7497 39.5715C45.037 39.4055 45.4333 39.1777 45.6339 39.0613L46.0004 38.8532V35.8936V32.934L45.8444 32.8448C45.6066 32.7086 43.7541 31.6411 43.5733 31.5347C43.338 31.396 42.8848 31.1359 42.3102 30.804C42.0303 30.6431 41.6638 30.4325 41.4929 30.3335C41.0124 30.0536 39.8261 29.3676 39.2763 29.053C39.0038 28.897 38.6744 28.7063 38.5457 28.632C38.4169 28.5577 38.1221 28.3868 37.8893 28.2531C37.3593 27.946 36.5594 27.4853 35.747 27.0147C35.4003 26.8141 34.9792 26.5714 34.8133 26.4748C34.6449 26.3807 34.5087 26.294 34.5087 26.2841C34.5087 26.2742 34.6573 26.1826 34.8381 26.0785C35.0164 25.972 35.3829 25.7615 35.648 25.6055C36.1259 25.3281 36.1309 25.3256 36.2052 25.3628C36.2473 25.3826 36.5148 25.5362 36.7996 25.7021C37.0869 25.868 37.6664 26.2024 38.0875 26.4451C38.511 26.6878 38.9444 26.938 39.0534 27.0023C39.1623 27.0667 39.732 27.3961 40.3165 27.733C40.9034 28.0698 41.5201 28.4264 41.691 28.5255C41.9957 28.7038 42.5455 29.0208 43.3504 29.484C43.5758 29.6128 43.9101 29.8059 44.0934 29.9124C45.2723 30.596 45.9608 30.9898 45.9806 30.9898C45.9905 30.9898 45.998 29.5607 45.9955 27.8147L45.9881 24.6371L44.8859 24.0006C44.2792 23.6514 43.6897 23.3096 43.5733 23.2428C43.4569 23.1759 43.1349 22.9877 42.8551 22.8292C42.5752 22.6682 42.1022 22.3933 41.8025 22.2199C41.5028 22.0465 40.8291 21.6577 40.3041 21.3555C39.779 21.0534 39.0955 20.6571 38.7809 20.4763C36.656 19.2479 36.1458 18.9532 36.1383 18.9532C36.1334 18.9556 36.0318 19.0151 35.908 19.0869ZM36.4281 20.0256C36.5792 20.1122 36.9507 20.3277 37.2578 20.5036C37.5649 20.6819 38.0825 20.9816 38.4094 21.1698C39.1202 21.5784 39.4794 21.7865 40.5765 22.4205C41.5276 22.9703 41.8867 23.1759 43.4618 24.0848C44.0884 24.4464 44.7349 24.8204 44.8983 24.9145L45.1955 25.0879L45.2029 26.0463C45.2054 26.5714 45.2029 27.0023 45.1955 27.0023C45.1831 27.0023 43.868 26.2494 42.1492 25.2563C41.8372 25.0755 41.1957 24.7065 40.7251 24.439C39.7419 23.8718 37.981 22.8613 37.3767 22.5121C37.1463 22.3784 36.7773 22.1654 36.5519 22.0366L36.1433 21.8013L35.7297 22.0416C35.4994 22.1728 35.1303 22.3858 34.9049 22.5146C34.4022 22.8044 32.5125 23.8916 31.4748 24.4885C31.0537 24.7288 30.4519 25.0755 30.1374 25.2563C28.4161 26.2494 27.1034 27.0023 27.0911 27.0023C27.0836 27.0023 27.0811 26.5714 27.0836 26.0463L27.0911 25.0879L27.3883 24.9145C27.5517 24.8204 28.1981 24.4464 28.8247 24.0848C29.4513 23.7232 30.1324 23.3319 30.3355 23.213C30.5411 23.0966 31.1132 22.7648 31.611 22.4775C32.1088 22.1902 32.7329 21.8311 32.9979 21.6775C33.2629 21.5239 33.7261 21.2565 34.0257 21.0831C34.3254 20.9122 34.7985 20.6373 35.0783 20.4763C35.908 19.9958 36.1309 19.8695 36.1433 19.8695C36.1507 19.8695 36.2795 19.9414 36.4281 20.0256ZM36.4281 22.8737C36.5792 22.9604 36.8962 23.1412 37.134 23.2799C37.3717 23.4161 38.0132 23.7851 38.558 24.0972C39.1029 24.4117 39.8781 24.8575 40.2793 25.0879C40.6805 25.3207 41.3938 25.7293 41.8644 25.9993C42.335 26.2717 43.0359 26.6754 43.4247 26.8983C43.8135 27.1212 44.3733 27.4432 44.6705 27.6141L45.2079 27.9237V28.7905C45.2079 29.4815 45.2005 29.6524 45.1782 29.635C45.1608 29.6202 44.8785 29.4567 44.5516 29.2685C44.2247 29.0803 43.8135 28.8425 43.6352 28.741C43.4594 28.6394 43.1696 28.471 42.9913 28.3695C42.2904 27.9658 42.0204 27.8097 41.2576 27.3689C40.2224 26.7695 38.1098 25.551 37.8893 25.4247C37.7952 25.3702 37.3668 25.1225 36.9408 24.8774C36.5123 24.6297 36.1532 24.4266 36.1408 24.4266C36.1284 24.4266 35.96 24.5182 35.7668 24.6322C35.5712 24.7461 35.0288 25.0606 34.5582 25.3306C34.0876 25.6005 33.5973 25.8829 33.466 25.9597C33.3372 26.0364 32.6487 26.4327 31.9379 26.8414C31.2271 27.25 30.6476 27.5918 30.6451 27.5992C30.6451 27.6067 30.972 27.7998 31.3707 28.0302C32.7676 28.8376 33.0177 28.9812 33.8895 29.484C34.8703 30.0511 35.9402 30.6678 37.2578 31.4282C37.7407 31.708 38.2485 32.0003 38.3847 32.0795C38.5209 32.1588 38.8107 32.3247 39.0286 32.451C39.2466 32.5773 39.5636 32.7606 39.7345 32.8597C39.9053 32.9587 40.3784 33.2312 40.787 33.4665C41.1957 33.7017 41.6192 33.9469 41.7282 34.0113C41.8372 34.0732 42.1269 34.2417 42.3721 34.3828C42.6173 34.524 42.9071 34.6899 43.016 34.7543C43.125 34.8187 43.5683 35.0738 44.0018 35.324C44.4327 35.5716 44.7869 35.7846 44.7869 35.7945C44.7869 35.8044 44.5838 35.9307 44.3361 36.0744C43.504 36.5524 43.1176 36.7753 42.7808 36.9709C42.5975 37.0774 42.3077 37.2459 42.1368 37.3424C41.2675 37.8452 40.6583 38.1944 40.1555 38.4867C39.8484 38.665 39.4868 38.873 39.3506 38.9523C39.2144 39.0315 38.9196 39.2024 38.6943 39.3312C38.4689 39.46 38.08 39.6854 37.8274 39.8315C37.5748 39.9751 37.0943 40.255 36.7575 40.4482L36.1433 40.8024L35.7792 40.5918C35.3433 40.3417 34.1644 39.6631 33.5923 39.3312C33.3669 39.2024 33.0722 39.0315 32.936 38.9523C32.7998 38.873 32.4382 38.665 32.1311 38.4867C31.6357 38.1994 31.2246 37.9616 30.1497 37.3424C29.9788 37.2459 29.7337 37.1047 29.6049 37.0279C29.4761 36.9536 29.1814 36.7827 28.9486 36.649C28.7182 36.5152 28.2501 36.2453 27.9084 36.0496C27.569 35.8515 27.2421 35.6633 27.1852 35.6311L27.0787 35.5692V34.7147C27.0787 33.9321 27.0811 33.8578 27.1183 33.8726C27.1406 33.8825 27.2619 33.9469 27.3858 34.0212C27.5096 34.0931 27.839 34.2838 28.1189 34.4447C28.9164 34.9054 30.6426 35.901 31.0785 36.1536C31.4302 36.3567 32.1459 36.7703 33.7409 37.6892C34.0059 37.8427 34.4691 38.1102 34.7687 38.2836C35.638 38.7888 36.1235 39.0637 36.1433 39.0637C36.1606 39.0637 36.7253 38.7442 37.2702 38.4272C37.4336 38.3306 37.8299 38.1028 38.1494 37.9195C38.4689 37.7338 39.0831 37.3821 39.5116 37.1319C39.94 36.8843 40.5963 36.5078 40.9654 36.2948C41.3369 36.0793 41.6415 35.901 41.6415 35.8936C41.6415 35.8787 41.7183 35.9233 38.9172 34.3085C37.7804 33.6522 36.5272 32.929 36.1309 32.6987C35.7371 32.4708 35.2244 32.1761 34.9916 32.0424C34.4889 31.7526 34.2759 31.6312 33.6542 31.2696C33.3967 31.121 32.9558 30.866 32.6759 30.705C32.0172 30.326 31.8834 30.2493 29.7163 28.9961C28.7083 28.414 27.844 27.9162 27.7969 27.889C27.569 27.7577 27.4997 27.7156 27.4997 27.6983C27.4997 27.6884 27.5963 27.6265 27.7176 27.5571C27.8365 27.4878 28.2724 27.2376 28.6885 26.9974C29.1046 26.7596 30.1844 26.1355 31.0909 25.6154C31.9973 25.0928 33.0772 24.4712 33.4932 24.2334C33.9093 23.9957 34.578 23.6093 34.9792 23.379C35.8659 22.8663 36.1259 22.7177 36.1433 22.7177C36.1507 22.7177 36.2795 22.787 36.4281 22.8737ZM35.3483 27.6933C37.4386 28.9019 37.5302 28.954 38.8676 29.7267C39.4868 30.0833 40.2125 30.5019 40.4775 30.6554C40.7425 30.809 41.322 31.1433 41.7653 31.3984C42.756 31.9705 43.4866 32.3916 43.7987 32.5724C43.9299 32.6492 44.299 32.8621 44.6209 33.0454L45.2054 33.3798L45.2079 34.2392C45.2079 34.7147 45.2029 35.1011 45.1955 35.1011C45.1906 35.1011 45.0915 35.0466 44.98 34.9797C44.7893 34.8683 44.5863 34.7518 43.3256 34.0237C43.0606 33.8726 42.5257 33.563 42.1368 33.3377C41.748 33.1148 41.057 32.716 40.6013 32.451C40.1456 32.1885 39.6725 31.9161 39.5487 31.8442C39.4274 31.7724 39.1822 31.6312 39.0038 31.5297C38.1543 31.0393 36.8368 30.279 36.0318 29.8134C35.5415 29.531 34.7068 29.0481 34.1743 28.741C33.6443 28.4339 33.0252 28.0772 32.7998 27.9484C32.5744 27.8172 32.349 27.6859 32.297 27.6562L32.2004 27.6017L32.4332 27.468C32.5595 27.3912 32.8146 27.2451 32.9979 27.1386C33.1812 27.0321 33.4041 26.9033 33.4932 26.8513C33.5824 26.7993 33.6691 26.7572 33.6889 26.7572C33.7062 26.7547 34.4542 27.1782 35.3483 27.6933ZM27.7474 28.7682C28.0545 28.9441 28.3442 29.11 28.3913 29.1372C28.4384 29.167 29.0179 29.5013 29.6792 29.8827C31.8562 31.1384 32.4555 31.4876 33.5056 32.0919C34.0307 32.3941 34.5632 32.7012 34.7935 32.8349C34.9297 32.9142 35.2864 33.1197 35.586 33.2931C35.8857 33.4665 36.3439 33.729 36.6015 33.8801C36.8615 34.0287 37.6565 34.4893 38.3723 34.9004C40.1258 35.9109 40.0564 35.8713 40.0564 35.8911C40.0564 35.9035 39.732 36.0967 39.3382 36.327C38.8676 36.597 38.6026 36.7357 38.5729 36.7282C38.5333 36.7183 37.0671 35.8787 35.7594 35.1209C35.1799 34.784 34.957 34.6553 34.1619 34.1971C33.1292 33.6002 32.8493 33.4392 31.2023 32.4882C30.4544 32.0548 29.7015 31.6189 29.5306 31.5223C29.3597 31.4257 28.8198 31.1111 28.3294 30.8288C27.839 30.544 27.3561 30.2666 27.2595 30.2121L27.0787 30.1106V29.2487V28.3868L27.1356 28.4165C27.1654 28.4339 27.4403 28.5899 27.7474 28.7682ZM27.3065 36.6094C27.4972 36.7208 27.7003 36.8372 28.9609 37.5653C29.2259 37.7164 29.7609 38.026 30.1497 38.2514C30.5386 38.4743 31.2296 38.873 31.6853 39.138C32.141 39.4006 32.6165 39.673 32.7379 39.7448C32.8617 39.8166 33.1069 39.9578 33.2827 40.0594C34.053 40.5052 35.3953 41.2779 35.7544 41.4859L36.1433 41.7113L36.6708 41.4067C36.9581 41.2407 37.4634 40.9485 37.7903 40.7603C38.1172 40.572 38.4738 40.3665 38.5828 40.3021C38.6918 40.2377 38.9816 40.0717 39.2267 39.9306C39.4719 39.7894 39.8013 39.5987 39.9574 39.5095C40.1134 39.4179 40.5097 39.19 40.8366 39.0018C41.7084 38.4991 42.647 37.9591 42.8303 37.8502C42.9195 37.7982 43.3256 37.5629 43.7343 37.3276C44.1429 37.0923 44.6358 36.8075 44.8314 36.6936C45.0271 36.5796 45.1906 36.488 45.198 36.488C45.2029 36.488 45.2054 36.9189 45.2029 37.4465L45.1955 38.4049L44.8116 38.6254C44.6011 38.7467 44.1429 39.0117 43.7962 39.2123C43.4495 39.4154 42.3003 40.0792 41.2452 40.686C40.1902 41.2952 39.1871 41.8748 39.0162 41.9738C38.8453 42.0729 38.2658 42.4072 37.7284 42.7168C37.1909 43.0264 36.6188 43.3583 36.4553 43.4499C36.2944 43.544 36.1532 43.6208 36.1433 43.6208C36.1334 43.6208 35.9922 43.544 35.8312 43.4499C35.6678 43.3583 35.0635 43.0091 34.4839 42.6747C33.9044 42.3404 33.3248 42.006 33.196 41.9317C33.0673 41.8549 32.0964 41.2952 31.0413 40.686C29.9863 40.0767 28.7702 39.3758 28.3418 39.1281C27.9133 38.878 27.4526 38.6155 27.3214 38.5412L27.0811 38.4074L27.0787 37.4465C27.0787 36.9189 27.0836 36.488 27.0911 36.488C27.096 36.488 27.1951 36.5425 27.3065 36.6094Z" fill="white"/>
<path d="M26.2925 43.7752L26.2999 46.9528L26.6466 47.1534C27.8503 47.8493 28.841 48.4214 29.2595 48.6617C29.5245 48.8152 29.9158 49.0406 30.1264 49.1619C30.3369 49.2833 30.8 49.5508 31.1542 49.7539C33.0538 50.851 34.0791 51.443 34.2996 51.5717C34.4358 51.651 34.9063 51.9234 35.3472 52.1761L36.1447 52.6367L36.9446 52.1761C37.383 51.9234 37.8536 51.651 37.9898 51.5717C38.2102 51.443 39.2356 50.851 41.1352 49.7539C41.4893 49.5508 41.9525 49.2833 42.163 49.1619C42.3735 49.0406 42.7648 48.8152 43.0298 48.6617C43.4484 48.4214 44.439 47.8493 45.6427 47.1534L45.9894 46.9528L45.9969 43.7752C45.9994 42.0291 45.9919 40.6001 45.982 40.6001C45.9597 40.6001 45.2861 40.9865 42.7202 42.47C42.3388 42.6904 41.6528 43.0867 41.1971 43.3492C40.7414 43.6117 40.1346 43.9634 39.8473 44.1294C39.5625 44.2953 39.0201 44.6073 38.6461 44.8228C37.913 45.2439 37.0858 45.7219 36.5286 46.0463C36.3379 46.1553 36.1645 46.2469 36.1447 46.2469C36.1125 46.2469 35.7707 46.0537 34.6958 45.4296C34.5596 45.3504 34.2302 45.1596 33.9652 45.0086C33.3906 44.6767 33.1603 44.5454 32.4544 44.1343C32.1622 43.9659 31.548 43.6117 31.0923 43.3492C30.6366 43.0867 29.9505 42.6904 29.5691 42.47C27.0033 40.9865 26.3296 40.6001 26.3073 40.6001C26.2974 40.6001 26.29 42.0291 26.2925 43.7752ZM28.5661 42.7994C28.8855 42.9827 29.3611 43.2576 29.6186 43.4062C29.8787 43.5548 30.2279 43.7579 30.3988 43.8569C30.7133 44.0377 32.1176 44.8501 34.7032 46.3435C35.4859 46.7943 36.1323 47.1633 36.1447 47.1633C36.1571 47.1633 36.8035 46.7943 37.5861 46.3435C40.1717 44.8501 41.576 44.0377 41.8906 43.8569C42.0614 43.7579 42.4181 43.5523 42.6831 43.3987C42.9481 43.2452 43.2676 43.0619 43.3889 42.9926C43.5128 42.9207 43.7679 42.7721 43.9586 42.6632C44.1493 42.5517 44.5084 42.3461 44.7585 42.2025L45.2093 41.9425V42.8019V43.6637L44.5976 44.0204C44.2583 44.2136 43.8174 44.4711 43.6118 44.5875C43.4088 44.7064 43.0521 44.912 42.8193 45.0457C42.2497 45.3776 41.5389 45.7862 41.0609 46.0612C40.3847 46.45 38.5916 47.4852 38.4232 47.5843C38.2573 47.6809 37.0685 48.3694 36.9124 48.4561C36.8654 48.4833 36.6722 48.5948 36.4865 48.7038L36.1447 48.8994L35.0624 48.2753C34.4655 47.931 33.9157 47.614 33.8414 47.5694C33.7274 47.5026 32.5634 46.8289 31.4638 46.1974C30.8174 45.8234 29.5741 45.1076 28.9252 44.7312C28.4819 44.4761 27.828 44.0972 27.4218 43.8643L27.0801 43.6662V42.8043V41.9425L27.5333 42.2025C27.781 42.3461 28.2466 42.6136 28.5661 42.7994ZM27.4937 44.8129C28.5586 45.4271 30.161 46.3509 30.6836 46.6556C30.9016 46.7819 31.5207 47.1385 32.0582 47.4481C32.5956 47.7602 33.3089 48.1713 33.6432 48.3645C35.6394 49.5186 36.115 49.7885 36.1447 49.7885C36.1744 49.7885 36.6499 49.5186 38.6461 48.3645C38.9805 48.1713 39.6937 47.7602 40.2312 47.4481C40.7686 47.1385 41.3878 46.7819 41.6057 46.6556C42.1283 46.3509 43.7307 45.4271 44.7957 44.8129C45.0136 44.6891 45.1944 44.5875 45.1994 44.5875C45.2043 44.5875 45.2068 45.0185 45.2043 45.5435L45.1969 46.502L44.8997 46.6754C44.7362 46.7695 44.0898 47.1435 43.4632 47.5051C41.8782 48.4189 41.5141 48.6295 40.6646 49.1198C40.2559 49.3551 39.6318 49.7167 39.2777 49.9198C38.6065 50.3062 37.331 51.0417 36.6524 51.4355C36.4344 51.5618 36.2314 51.6782 36.2016 51.6931C36.1348 51.7278 36.1372 51.7278 35.637 51.4355C35.3224 51.2523 34.468 50.7594 32.925 49.8703C32.3677 49.5483 31.0353 48.7805 30.3369 48.3768C30.1338 48.258 29.4527 47.8666 28.8261 47.5051C28.1995 47.1435 27.5531 46.7695 27.3896 46.6754L27.0924 46.502L27.085 45.5435C27.0825 45.0185 27.085 44.5875 27.09 44.5875C27.0949 44.5875 27.2757 44.6891 27.4937 44.8129Z" fill="white"/>
</svg>
