<svg width="32" height="32" viewBox="0 0 32 32" fill="none" xmlns="http://www.w3.org/2000/svg">
<path d="M26.8088 11.5123C26.7769 11.2143 26.7396 10.9755 26.7089 10.8054L29.2215 7.03643C29.3795 6.79946 29.3695 6.4883 29.1966 6.26196C29.0237 6.03563 28.7262 5.94411 28.456 6.03417L24.9617 7.19891C24.7771 6.9235 24.5032 6.56022 24.1382 6.19522C23.3989 5.45589 22.2393 4.66663 20.6668 4.66663C19.0367 4.66663 17.8303 5.12287 16.9689 5.87189C16.1164 6.61322 15.6667 7.58488 15.4367 8.50494C15.207 9.42381 15.1865 10.3281 15.2197 10.9916C15.2294 11.1851 15.2437 11.3602 15.2593 11.5117C13.5858 11.8676 11.8346 11.3225 10.1192 10.3044C8.2276 9.18184 6.49361 7.55064 5.13819 6.19522C4.9502 6.00723 4.66849 5.94891 4.42132 6.0468C4.17414 6.14469 4.00875 6.38008 4.00045 6.6458C3.83058 12.0816 4.95125 18.661 10.015 21.9973C7.88515 23.1495 5.79696 23.6868 3.25076 24.0051C2.95925 24.0415 2.72596 24.2645 2.67636 24.5541C2.62676 24.8436 2.77255 25.1315 3.03531 25.2629C9.91358 28.702 18.8267 28.4535 23.8668 21.7333C25.9561 18.9475 26.6562 16.1545 26.8312 14.0553C26.9185 13.0069 26.8751 12.1307 26.8088 11.5123Z" fill="white"/>
</svg>
