<svg width="32" height="32" viewBox="0 0 32 32" fill="none" xmlns="http://www.w3.org/2000/svg">
<path fill-rule="evenodd" clip-rule="evenodd" d="M19.5 3C20.9912 3 22.2 4.20883 22.2 5.7C22.2 7.6539 23.5905 9.29343 25.4378 9.66888C26.8991 9.96589 27.8429 11.3913 27.5459 12.8526C27.2489 14.3138 25.8235 15.2577 24.3622 14.9607C23.6048 14.8067 22.88 14.5622 22.2 14.239V21.9C22.2 26.3735 18.5735 30 14.1 30C9.62649 30 6 26.3735 6 21.9C6 18.122 8.58399 14.9544 12.077 14.0553C13.5211 13.6837 14.9932 14.553 15.3648 15.9971C15.7365 17.4412 14.8671 18.9133 13.423 19.2849C12.2579 19.5847 11.4 20.6456 11.4 21.9C11.4 23.3912 12.6088 24.6 14.1 24.6C15.5912 24.6 16.8 23.3912 16.8 21.9V5.7C16.8 4.20883 18.0088 3 19.5 3Z" fill="white"/>
</svg>
