<svg width="24" height="24" viewBox="0 0 24 24" fill="none" xmlns="http://www.w3.org/2000/svg">
<path fillRule="evenodd" clipRule="evenodd" d="M13.0252 5.18697C12.363 4.94614 11.637 4.94614 10.9748 5.18697L3.92618 7.75009L10.9748 10.3132C11.637 10.554 12.363 10.554 13.0252 10.3132L20.0738 7.7501L13.0252 5.18697ZM10.2913 3.30738C11.3951 2.906 12.6049 2.906 13.7087 3.30738L20.7573 5.87051C22.5127 6.50882 22.5127 8.99137 20.7573 9.62968L13.7087 12.1928C12.6049 12.5942 11.3951 12.5942 10.2913 12.1928L3.24269 9.62968C1.48733 8.99137 1.48734 6.50882 3.24269 5.87051L10.2913 3.30738Z" fill="currentColor"/>
<path fillRule="evenodd" clipRule="evenodd" d="M2.05779 12.3948C2.24281 11.8744 2.81464 11.6025 3.33501 11.7876L11.33 14.6302C11.7634 14.7843 12.2366 14.7843 12.67 14.6302L20.665 11.7876C21.1854 11.6025 21.7572 11.8744 21.9422 12.3948C22.1272 12.9151 21.8554 13.487 21.335 13.672L13.34 16.5146C12.4733 16.8228 11.5267 16.8228 10.66 16.5146L2.66499 13.672C2.14462 13.487 1.87277 12.9151 2.05779 12.3948Z" fill="currentColor"/>
<path fillRule="evenodd" clipRule="evenodd" d="M2.05779 16.6448C2.24281 16.1244 2.81464 15.8525 3.33501 16.0376L11.33 18.8802C11.7634 19.0343 12.2366 19.0343 12.67 18.8802L20.665 16.0376C21.1854 15.8525 21.7572 16.1244 21.9422 16.6448C22.1272 17.1651 21.8554 17.737 21.335 17.922L13.34 20.7646C12.4733 21.0728 11.5267 21.0728 10.66 20.7646L2.66499 17.922C2.14462 17.737 1.87277 17.1651 2.05779 16.6448Z" fill="currentColor"/>
</svg>
