<svg width="20" height="20" viewBox="0 0 20 20" fill="none" xmlns="http://www.w3.org/2000/svg">
<path d="M8.125 17.2921L9.35248 17.9741C9.58881 18.1054 9.70698 18.171 9.83213 18.1968C9.94288 18.2195 10.0571 18.2195 10.1679 18.1968C10.293 18.171 10.4112 18.1054 10.6475 17.9741L11.875 17.2921M4.375 15.2088L3.18581 14.5481C2.93621 14.4095 2.8114 14.3401 2.72053 14.2415C2.64013 14.1543 2.57929 14.0509 2.54207 13.9382C2.5 13.8109 2.5 13.6681 2.5 13.3826V12.0838M2.5 7.91715V6.61835C2.5 6.33281 2.5 6.19005 2.54207 6.06271C2.57929 5.95007 2.64013 5.84667 2.72053 5.75942C2.8114 5.66081 2.93621 5.59148 3.18581 5.45281L4.375 4.79215M8.125 2.70881L9.35248 2.02688C9.58881 1.89558 9.70698 1.82993 9.83213 1.80419C9.94288 1.78141 10.0571 1.78141 10.1679 1.80419C10.293 1.82993 10.4112 1.89558 10.6475 2.02688L11.875 2.70881M15.625 4.79214L16.8142 5.45281C17.0638 5.59147 17.1886 5.66081 17.2795 5.75942C17.3599 5.84666 17.4207 5.95007 17.4579 6.06271C17.5 6.19004 17.5 6.33281 17.5 6.61835V7.91714M17.5 12.0838V13.3826C17.5 13.6681 17.5 13.8109 17.4579 13.9382C17.4207 14.0509 17.3599 14.1543 17.2795 14.2415C17.1886 14.3401 17.0638 14.4095 16.8142 14.5481L15.625 15.2088M8.125 8.95881L10 10.0005M10 10.0005L11.875 8.95881M10 10.0005V12.0838M2.5 5.83381L4.375 6.87548M15.625 6.87548L17.5 5.83381M10 16.2505V18.3338" stroke="#634FF7" strokeWidth="1.2" strokeLinecap="round" stroke-linejoin="round"/>
</svg>
