<svg width="23" height="21" viewBox="0 0 23 21" fill="none" xmlns="http://www.w3.org/2000/svg">
<path d="M16.1694 6.83438H16.0761C15.7393 6.83423 15.4066 6.90695 15.1006 7.04754C14.7947 7.18813 14.5228 7.39326 14.3036 7.64885L8.7014 14.188C8.48207 14.4438 8.20997 14.649 7.90381 14.7896C7.59764 14.9302 7.26466 15.0028 6.92775 15.0025H6.8344M3.18325 1C1.74263 3.90069 0.995262 7.09628 1.00002 10.335C1.00002 13.6886 1.78533 16.8578 3.18325 19.67V1ZM19.6712 19.67C21.1114 16.7692 21.8584 13.5736 21.8533 10.335C21.8533 6.9814 21.0679 3.81217 19.6712 1V19.67ZM8.00127 6.83438H9.4552C9.70863 6.83449 9.95513 6.9171 10.1574 7.06973C10.3598 7.22236 10.5069 7.4367 10.5766 7.68036L12.4272 14.1565C12.4969 14.4002 12.644 14.6145 12.8464 14.7671C13.0487 14.9198 13.2952 15.0024 13.5486 15.0025H15.0025L8.00127 6.83438Z" stroke="#CACACA" stroke-width="2" stroke-linecap="round" stroke-linejoin="round"/>
</svg>
