<svg width="92" height="92" viewBox="0 0 92 92" fill="none" xmlns="http://www.w3.org/2000/svg">
<g clip-path="url(#clip0_2415_2615)">
<rect width="92" height="92" fill="#131313"/>
<path d="M74.8774 0H17.1226C7.66605 0 0 7.66605 0 17.1226V74.8774C0 84.334 7.66605 92 17.1226 92H74.8774C84.334 92 92 84.334 92 74.8774V17.1226C92 7.66605 84.334 0 74.8774 0Z" fill="#131313"/>
<path d="M52.2023 50.1086L51.7458 50.3684L52.2023 50.1086Z" fill="#CCCCCC"/>
<path d="M69.0923 34.7766V19.8617L45.9998 6.52881L22.9073 19.8617V33.7219L49.9194 49.3176L45.9998 51.5804L22.9073 38.2475V53.1624L45.9998 66.4953L69.0923 53.1624V39.3022L42.0802 23.7065L45.9998 21.4437L69.0923 34.7766ZM24.7333 20.9164L45.9998 8.63421L67.2663 20.9164V25.442L45.9998 13.2071L24.7333 25.442V20.9164ZM24.7333 32.6672V28.602L55.2675 46.2323L51.7454 48.2668L24.7333 32.6712V32.6672ZM67.2703 52.1038L46.0038 64.3859L24.7373 52.1038V47.5782L46.0038 59.8564L67.2703 47.5782V52.1038ZM67.2703 40.3529V44.4181L36.7361 26.7879L40.2582 24.7533L67.2703 40.349V40.3529ZM40.2543 22.6518L39.7978 22.9155L33.0841 26.7918L66.3573 46.0001L45.9998 57.7549L24.7333 45.4728V41.4076L45.9998 53.6858L51.7454 50.3683L52.2019 50.1046L58.9156 46.2284L25.6463 27.02L45.9998 15.3125L67.2663 27.5474V31.6126L45.9998 19.3344L40.2543 22.6518Z" fill="#CCCCCC"/>
<path d="M40.2541 22.6519L39.7976 22.9155L40.2541 22.6519Z" fill="#CCCCCC"/>
<path d="M45.9998 70.5605L22.9073 57.2277V72.1425L45.9998 85.4754L69.0923 72.1425V57.2277L45.9998 70.5605ZM67.2703 71.0879L46.0038 83.3661L24.7373 71.0879V66.5622L46.0038 78.8405L67.2703 66.5622V71.0879ZM67.2703 64.4529L46.0038 76.7311L24.7373 64.4529V60.3877L46.0038 72.6659L67.2703 60.3877V64.4529Z" fill="#CCCCCC"/>
</g>
<defs>
<clipPath id="clip0_2415_2615">
<rect width="92" height="92" fill="white"/>
</clipPath>
</defs>
</svg>
