<svg width="39" height="39" viewBox="0 0 39 39" fill="none" xmlns="http://www.w3.org/2000/svg">
<path d="M31.3575 0H7.17068C3.21042 0 0 3.21042 0 7.17068V31.3575C0 35.3178 3.21042 38.5282 7.17068 38.5282H31.3575C35.3178 38.5282 38.5282 35.3178 38.5282 31.3575V7.17068C38.5282 3.21042 35.3178 0 31.3575 0Z" fill="#131313"/>
<path d="M22.3244 25.975L22.1002 26.1052L22.3244 25.975Z" fill="white"/>
<path d="M30.6636 18.407V11.0452L19.264 4.46448L7.86444 11.0452V17.8862L21.1972 25.5843L19.2624 26.7017L7.86279 20.121V27.4828L19.2624 34.0635L30.662 27.4828V20.6418L17.3292 12.9437L19.264 11.8263L30.6636 18.407ZM8.76593 11.5659L19.264 5.5044L29.7621 11.5659V13.8007L19.264 7.76223L8.76593 13.8007V11.5659ZM8.76593 17.3671V15.3598L23.8374 24.0615L22.0987 25.0651L8.76593 17.3671ZM29.7621 26.9621L19.264 33.0236L8.76593 26.9621V24.7289L19.264 30.7905L29.7621 24.7289V26.9621ZM29.7621 21.1609V23.1682L14.6907 14.4665L16.4294 13.4628L29.7621 21.1609ZM16.4294 12.4229L16.2036 12.5531L12.8894 14.4665L29.3122 23.9478L19.264 29.7489L8.76593 23.6874V21.68L19.264 27.7399L22.0987 26.1034L22.3245 25.9732L25.6387 24.0598L9.21749 14.5786L19.264 8.80051L29.7621 14.839V16.8463L19.264 10.7864L16.4294 12.4229Z" fill="white"/>
<path d="M16.4295 12.4229L16.2037 12.553L16.4295 12.4229Z" fill="white"/>
</svg>
