<svg width="32" height="32" viewBox="0 0 32 32" fill="none" xmlns="http://www.w3.org/2000/svg">
<path d="M18.1573 17.4291L17.9985 17.5194L18.1573 17.4291Z" fill="white"/>
<path d="M24.0321 12.0962V6.9084L15.9999 2.27087L7.96777 6.9084V11.7293L17.3633 17.1539L15.9999 17.941L7.96777 13.3035V18.4913L15.9999 23.1288L24.0321 18.4913V13.6703L14.6366 8.24572L15.9999 7.45866L24.0321 12.0962ZM8.6029 7.27524L15.9999 3.00319L23.397 7.27524V8.84937L15.9999 4.59374L8.6029 8.84937V7.27524ZM8.6029 11.3625V9.94852L19.2235 16.0808L17.9984 16.7885L8.6029 11.3639V11.3625ZM23.3983 18.123L16.0013 22.3951L8.60427 18.123V16.5489L16.0013 20.8196L23.3983 16.5489V18.123ZM23.3983 14.0358V15.4498L12.7778 9.3175L14.0028 8.60983L23.3983 14.0344V14.0358ZM14.0015 7.87888L13.8427 7.97059L11.5075 9.31887L23.0808 16L15.9999 20.0887L8.6029 15.8166V14.4026L15.9999 18.6733L17.9984 17.5194L18.1572 17.4277L20.4924 16.0794L8.92046 9.39826L15.9999 5.32605L23.397 9.58168V10.9957L15.9999 6.72498L14.0015 7.87888Z" fill="white"/>
<path d="M14.0014 7.87891L13.8427 7.97062L14.0014 7.87891Z" fill="white"/>
<path d="M15.9999 24.5428L7.96777 19.9053V25.0931L15.9999 29.7306L24.0321 25.0931V19.9053L15.9999 24.5428ZM23.3983 24.7262L16.0013 28.9969L8.60427 24.7262V23.1521L16.0013 27.4228L23.3983 23.1521V24.7262ZM23.3983 22.4184L16.0013 26.6891L8.60427 22.4184V21.0044L16.0013 25.2751L23.3983 21.0044V22.4184Z" fill="white"/>
</svg>
