<svg width="40" height="40" viewBox="0 0 40 40" fill="none" xmlns="http://www.w3.org/2000/svg">
<rect width="40" height="40" rx="8.57143" fill="black"/>
<path d="M19.8298 7.89316C19.6665 7.99008 19.356 8.16775 17.389 9.30379C16.7878 9.65016 16.104 10.045 15.8725 10.1796C15.641 10.3124 15.2982 10.5116 15.1098 10.6193C14.9231 10.727 14.7006 10.8562 14.6162 10.9046C14.5319 10.9531 14.1047 11.2008 13.665 11.4538L12.8664 11.9151L12.861 14.0615L12.8574 16.2061L13.211 16.4107C13.4066 16.5238 13.6632 16.671 13.7817 16.7392C13.9001 16.8074 14.155 16.9545 14.347 17.0658C14.539 17.1753 14.8047 17.3278 14.9357 17.4032C15.0649 17.4804 15.2749 17.6006 15.4023 17.6742C15.5279 17.746 15.9981 18.017 16.4468 18.2772C17.1988 18.7115 18.0351 19.1943 18.8696 19.6771C19.0527 19.7812 19.4439 20.0073 19.74 20.1796C20.2802 20.4919 20.4794 20.6067 20.9389 20.8705C21.0735 20.9477 21.1848 21.0177 21.1848 21.0249C21.1848 21.0321 20.9174 21.1918 20.5925 21.3784L20.0003 21.7212L18.9181 21.0967C17.8574 20.4847 16.4594 19.6771 16.1237 19.4832C16.0304 19.4276 15.7756 19.2822 15.5584 19.1566C15.3413 19.031 15.0559 18.8677 14.9267 18.7923C14.3757 18.4728 13.2307 17.8124 13.0189 17.6903C12.9454 17.6491 12.879 17.6132 12.8718 17.6132C12.8628 17.6132 12.8574 18.6487 12.8574 19.914V22.2165L12.9346 22.2596C13.0154 22.3063 13.8983 22.8142 14.6342 23.2395C14.8854 23.3849 15.2785 23.611 15.5046 23.742C15.8815 23.9592 16.6873 24.424 17.1108 24.6699C17.2041 24.7237 17.4751 24.8799 17.712 25.0163C17.9489 25.1526 18.3133 25.3626 18.5197 25.4829C20.0613 26.3748 19.9949 26.3389 20.0398 26.3156C20.0631 26.303 20.1385 26.26 20.2067 26.2187C20.2766 26.1774 20.5064 26.0446 20.7181 25.9226C20.9299 25.8005 21.3499 25.5582 21.6514 25.3842C21.9529 25.2101 22.3639 24.9732 22.5667 24.8565C22.7695 24.7399 23.0082 24.6017 23.0961 24.5496C23.1858 24.4976 23.6058 24.2553 24.0293 24.0112C24.4547 23.7672 24.8459 23.541 24.8998 23.5087C24.9536 23.4764 25.1923 23.34 25.4292 23.2036C25.6661 23.0654 26.0304 22.8572 26.2368 22.737C26.445 22.6168 26.7321 22.4516 26.8775 22.3673L27.1431 22.2165V20.0719V17.9272L27.03 17.8626C26.8578 17.7639 25.5153 16.9904 25.3843 16.9132C25.2138 16.8127 24.8854 16.6243 24.469 16.3838C24.2662 16.2672 24.0006 16.1146 23.8768 16.0428C23.5286 15.84 22.669 15.3429 22.2705 15.115C22.0731 15.0019 21.8344 14.8637 21.7411 14.8099C21.6478 14.756 21.4342 14.6322 21.2655 14.5353C20.8815 14.3128 20.3018 13.9789 19.7131 13.6379C19.4619 13.4926 19.1568 13.3167 19.0365 13.2467C18.9145 13.1785 18.8158 13.1157 18.8158 13.1085C18.8158 13.1013 18.9235 13.0349 19.0545 12.9596C19.1837 12.8824 19.4493 12.7298 19.6413 12.6168C19.9877 12.4158 19.9913 12.414 20.0451 12.4409C20.0756 12.4553 20.2695 12.5665 20.4759 12.6868C20.684 12.807 21.104 13.0493 21.4091 13.2252C21.716 13.4011 22.0301 13.5823 22.109 13.629C22.188 13.6756 22.6008 13.9143 23.0243 14.1584C23.4497 14.4025 23.8965 14.6609 24.0204 14.7327C24.2411 14.8619 24.6395 15.0916 25.2228 15.4273C25.3861 15.5206 25.6284 15.6606 25.7612 15.7377C26.6155 16.2331 27.1144 16.5184 27.1288 16.5184C27.1359 16.5184 27.1413 15.4829 27.1395 14.2176L27.1341 11.9151L26.3355 11.4538C25.8958 11.2008 25.4687 10.9531 25.3843 10.9046C25.3 10.8562 25.0667 10.7198 24.8639 10.6049C24.6611 10.4883 24.3183 10.2891 24.1011 10.1634C23.884 10.0378 23.3958 9.75605 23.0153 9.53709C22.6349 9.31814 22.1395 9.03099 21.9116 8.89998C20.3718 8.00982 20.0021 7.79625 19.9967 7.79625C19.9931 7.79804 19.9195 7.84112 19.8298 7.89316ZM20.2067 8.57335C20.3161 8.63616 20.5853 8.7923 20.8079 8.91972C21.0304 9.04894 21.4055 9.2661 21.6424 9.40249C22.1575 9.69862 22.4177 9.84937 23.2128 10.3088C23.9019 10.7072 24.1621 10.8562 25.3036 11.5148C25.7576 11.7769 26.226 12.0479 26.3445 12.1161L26.5598 12.2417L26.5652 12.9362C26.567 13.3167 26.5652 13.629 26.5598 13.629C26.5509 13.629 25.5979 13.0834 24.3524 12.3637C24.1262 12.2327 23.6614 11.9653 23.3204 11.7715C22.6079 11.3605 21.3319 10.6283 20.894 10.3752C20.7271 10.2783 20.4597 10.124 20.2964 10.0306L20.0003 9.86014L19.7006 10.0342C19.5337 10.1293 19.2662 10.2837 19.1029 10.377C18.7386 10.587 17.3693 11.3749 16.6173 11.8074C16.3122 11.9815 15.8761 12.2327 15.6482 12.3637C14.4009 13.0834 13.4497 13.629 13.4407 13.629C13.4353 13.629 13.4335 13.3167 13.4353 12.9362L13.4407 12.2417L13.6561 12.1161C13.7745 12.0479 14.2429 11.7769 14.697 11.5148C15.151 11.2528 15.6446 10.9693 15.7917 10.8831C15.9407 10.7988 16.3553 10.5583 16.716 10.3501C17.0767 10.1419 17.529 9.88167 17.721 9.7704C17.913 9.65913 18.2487 9.46531 18.4658 9.33968C18.683 9.21585 19.0258 9.01664 19.2286 8.89998C19.8298 8.55181 19.9913 8.46028 20.0003 8.46028C20.0057 8.46028 20.099 8.51233 20.2067 8.57335ZM20.2067 10.6372C20.3161 10.7001 20.5459 10.8311 20.7181 10.9316C20.8904 11.0303 21.3553 11.2977 21.7501 11.5238C22.1449 11.7517 22.7067 12.0748 22.9974 12.2417C23.2881 12.4104 23.805 12.7065 24.146 12.9021C24.487 13.0995 24.9949 13.3921 25.2766 13.5536C25.5584 13.7151 25.964 13.9484 26.1794 14.0723L26.5688 14.2966V14.9247C26.5688 15.4255 26.5634 15.5493 26.5473 15.5367C26.5347 15.526 26.3301 15.4075 26.0932 15.2711C25.8563 15.1347 25.5584 14.9624 25.4292 14.8888C25.3018 14.8153 25.0918 14.6932 24.9626 14.6196C24.4547 14.3271 24.2591 14.214 23.7063 13.8946C22.9561 13.4603 21.4252 12.5773 21.2655 12.4858C21.1973 12.4463 20.8868 12.2668 20.5782 12.0891C20.2677 11.9097 20.0074 11.7625 19.9985 11.7625C19.9895 11.7625 19.8675 11.8289 19.7275 11.9115C19.5857 11.994 19.1927 12.2219 18.8517 12.4176C18.5107 12.6132 18.1553 12.8178 18.0602 12.8734C17.9669 12.929 17.468 13.2162 16.9529 13.5123C16.4378 13.8084 16.0179 14.0561 16.0161 14.0615C16.0161 14.0669 16.253 14.2069 16.5419 14.3738C17.5541 14.9588 17.7354 15.0629 18.3671 15.4273C19.0778 15.8382 19.8531 16.2851 20.8079 16.8361C21.1578 17.0389 21.5258 17.2507 21.6245 17.3081C21.7232 17.3655 21.9331 17.4858 22.0911 17.5773C22.249 17.6688 22.4787 17.8016 22.6026 17.8734C22.7264 17.9452 23.0692 18.1426 23.3653 18.3131C23.6614 18.4836 23.9683 18.6613 24.0473 18.7079C24.1262 18.7528 24.3362 18.8748 24.5139 18.9771C24.6916 19.0794 24.9016 19.1997 24.9805 19.2463C25.0595 19.293 25.3807 19.4779 25.6948 19.6591C26.0071 19.8386 26.2637 19.9929 26.2637 20.0001C26.2637 20.0073 26.1166 20.0988 25.9371 20.2029C25.3341 20.5493 25.0541 20.7108 24.81 20.8526C24.6772 20.9298 24.4672 21.0518 24.3434 21.1218C23.7135 21.4861 23.272 21.7392 22.9077 21.9509C22.6851 22.0801 22.4231 22.2309 22.3244 22.2883C22.2257 22.3458 22.0121 22.4696 21.8488 22.5629C21.6855 22.6562 21.4037 22.8196 21.2207 22.9254C21.0376 23.0295 20.6894 23.2323 20.4454 23.3723L20.0003 23.629L19.7364 23.4764C19.4206 23.2952 18.5663 22.8034 18.1517 22.5629C17.9884 22.4696 17.7749 22.3458 17.6762 22.2883C17.5774 22.2309 17.3154 22.0801 17.0929 21.9509C16.7339 21.7427 16.436 21.5705 15.6571 21.1218C15.5333 21.0518 15.3556 20.9495 15.2623 20.8939C15.169 20.84 14.9554 20.7162 14.7867 20.6193C14.6198 20.5224 14.2806 20.3267 14.0329 20.185C13.7871 20.0414 13.5502 19.905 13.5089 19.8817L13.4317 19.8368V19.2176C13.4317 18.6505 13.4335 18.5967 13.4604 18.6074C13.4766 18.6146 13.5645 18.6613 13.6543 18.7151C13.744 18.7672 13.9827 18.9054 14.1855 19.022C14.7634 19.3558 16.0143 20.0773 16.3301 20.2603C16.585 20.4075 17.1036 20.7072 18.2594 21.373C18.4515 21.4843 18.7871 21.6781 19.0042 21.8038C19.6342 22.1699 19.9859 22.3691 20.0003 22.3691C20.0128 22.3691 20.422 22.1376 20.8169 21.9079C20.9353 21.8379 21.2224 21.6728 21.454 21.5399C21.6855 21.4053 22.1306 21.1505 22.441 20.9692C22.7515 20.7898 23.2271 20.517 23.4945 20.3626C23.7637 20.2065 23.9845 20.0773 23.9845 20.0719C23.9845 20.0611 24.0401 20.0934 22.0103 18.9233C21.1866 18.4477 20.2784 17.9237 19.9913 17.7568C19.7059 17.5916 19.3344 17.3781 19.1657 17.2812C18.8014 17.0712 18.6471 16.9832 18.1966 16.7212C18.01 16.6135 17.6905 16.4287 17.4877 16.312C17.0103 16.0374 16.9134 15.9818 15.3431 15.0737C14.6126 14.6519 13.9863 14.2912 13.9522 14.2715C13.7871 14.1764 13.7368 14.1458 13.7368 14.1333C13.7368 14.1261 13.8068 14.0812 13.8947 14.031C13.9809 13.9807 14.2968 13.7995 14.5983 13.6254C14.8998 13.4531 15.6823 13.0008 16.3391 12.624C16.996 12.2453 17.7784 11.7948 18.08 11.6225C18.3815 11.4502 18.866 11.1703 19.1568 11.0034C19.7993 10.6319 19.9877 10.5242 20.0003 10.5242C20.0057 10.5242 20.099 10.5744 20.2067 10.6372ZM19.4242 14.1297C20.9389 15.0055 21.0053 15.0432 21.9744 15.6031C22.4231 15.8616 22.9489 16.1649 23.141 16.2761C23.333 16.3874 23.753 16.6297 24.0742 16.8145C24.7921 17.2291 25.3215 17.5342 25.5476 17.6652C25.6428 17.7209 25.9102 17.8752 26.1435 18.008L26.567 18.2503L26.5688 18.873C26.5688 19.2176 26.5652 19.4976 26.5598 19.4976C26.5563 19.4976 26.4845 19.4581 26.4037 19.4097C26.2655 19.3289 26.1183 19.2445 25.2049 18.7169C25.0128 18.6074 24.6252 18.3831 24.3434 18.2198C24.0616 18.0583 23.5609 17.7693 23.2307 17.5773C22.9005 17.387 22.5577 17.1896 22.468 17.1376C22.38 17.0855 22.2023 16.9832 22.0731 16.9097C21.4576 16.5543 20.5028 16.0033 19.9195 15.6659C19.5642 15.4614 18.9594 15.1114 18.5735 14.8888C18.1894 14.6663 17.7408 14.4079 17.5774 14.3145C17.4141 14.2194 17.2508 14.1243 17.2131 14.1028L17.1431 14.0633L17.3118 13.9664C17.4034 13.9107 17.5882 13.8049 17.721 13.7277C17.8538 13.6505 18.0153 13.5572 18.08 13.5195C18.1446 13.4818 18.2074 13.4513 18.2217 13.4513C18.2343 13.4495 18.7763 13.7564 19.4242 14.1297ZM13.9163 14.9086C14.1388 15.036 14.3488 15.1563 14.3829 15.176C14.417 15.1975 14.837 15.4398 15.3161 15.7162C16.8937 16.6261 17.328 16.8792 18.0889 17.3171C18.4694 17.536 18.8553 17.7585 19.0222 17.8555C19.1209 17.9129 19.3793 18.0618 19.5965 18.1875C19.8136 18.3131 20.1456 18.5033 20.3323 18.6128C20.5207 18.7205 21.0968 19.0543 21.6155 19.3522C22.8861 20.0845 22.8359 20.0557 22.8359 20.0701C22.8359 20.0791 22.6008 20.2191 22.3154 20.386C21.9744 20.5816 21.7824 20.6821 21.7609 20.6767C21.7321 20.6695 20.6697 20.0611 19.7221 19.512C19.3021 19.2679 19.1406 19.1746 18.5645 18.8425C17.8161 18.41 17.6133 18.2934 16.4199 17.6042C15.8779 17.2901 15.3323 16.9743 15.2085 16.9043C15.0846 16.8343 14.6934 16.6064 14.338 16.4018C13.9827 16.1954 13.6327 15.9944 13.5627 15.9549L13.4317 15.8813V15.2568V14.6322L13.473 14.6537C13.4945 14.6663 13.6937 14.7794 13.9163 14.9086ZM13.5968 20.5906C13.735 20.6713 13.8822 20.7557 14.7957 21.2833C14.9877 21.3928 15.3754 21.6171 15.6571 21.7804C15.9389 21.942 16.4396 22.2309 16.7698 22.4229C17.1001 22.6132 17.4446 22.8106 17.5326 22.8626C17.6223 22.9147 17.8 23.017 17.9274 23.0906C18.4856 23.4136 19.4583 23.9735 19.7185 24.1243L20.0003 24.2876L20.3825 24.0669C20.5907 23.9466 20.9568 23.7348 21.1937 23.5985C21.4306 23.4621 21.6891 23.3131 21.768 23.2664C21.847 23.2198 22.057 23.0995 22.2347 22.9972C22.4123 22.8949 22.651 22.7567 22.7641 22.6921C22.8771 22.6257 23.1643 22.4606 23.4012 22.3242C24.0329 21.9599 24.7131 21.5687 24.8459 21.4897C24.9105 21.452 25.2049 21.2815 25.501 21.111C25.7971 20.9405 26.1542 20.7341 26.296 20.6516C26.4378 20.569 26.5563 20.5026 26.5616 20.5026C26.5652 20.5026 26.567 20.8149 26.5652 21.1972L26.5598 21.8917L26.2817 22.0514C26.1291 22.1394 25.7971 22.3314 25.5458 22.4768C25.2946 22.6239 24.4619 23.1049 23.6973 23.5446C22.9328 23.9861 22.2059 24.4061 22.0821 24.4778C21.9583 24.5496 21.5383 24.7919 21.1489 25.0163C20.7594 25.2406 20.3448 25.4811 20.2264 25.5475C20.1097 25.6157 20.0074 25.6713 20.0003 25.6713C19.9931 25.6713 19.8908 25.6157 19.7741 25.5475C19.6557 25.4811 19.2178 25.228 18.7978 24.9857C18.3779 24.7435 17.9579 24.5012 17.8646 24.4473C17.7713 24.3917 17.0678 23.9861 16.3032 23.5446C15.5387 23.1031 14.6575 22.5952 14.347 22.4158C14.0365 22.2345 13.7027 22.0443 13.6076 21.9904L13.4335 21.8935L13.4317 21.1972C13.4317 20.8149 13.4353 20.5026 13.4407 20.5026C13.4443 20.5026 13.5161 20.5421 13.5968 20.5906Z" fill="white"/>
<path d="M12.8617 25.7825L12.8671 28.0851L13.1183 28.2304C13.9905 28.7347 14.7084 29.1493 15.0117 29.3234C15.2037 29.4347 15.4873 29.598 15.6398 29.6859C15.7924 29.7739 16.128 29.9677 16.3846 30.1148C17.7612 30.9099 18.5042 31.3388 18.6639 31.4321C18.7626 31.4896 19.1036 31.687 19.423 31.87L20.0009 32.2039L20.5806 31.87C20.8983 31.687 21.2393 31.4896 21.338 31.4321C21.4977 31.3388 22.2407 30.9099 23.6172 30.1148C23.8739 29.9677 24.2095 29.7739 24.362 29.6859C24.5146 29.598 24.7981 29.4347 24.9902 29.3234C25.2935 29.1493 26.0113 28.7347 26.8836 28.2304L27.1348 28.0851L27.1402 25.7825C27.142 24.5172 27.1366 23.4817 27.1294 23.4817C27.1133 23.4817 26.6251 23.7617 24.7658 24.8367C24.4894 24.9964 23.9923 25.2836 23.6621 25.4738C23.3319 25.664 22.8922 25.9189 22.684 26.0391C22.4776 26.1594 22.0846 26.3855 21.8136 26.5416C21.2823 26.8467 20.6829 27.1931 20.2791 27.4282C20.1409 27.5072 20.0153 27.5736 20.0009 27.5736C19.9776 27.5736 19.7299 27.4336 18.951 26.9813C18.8523 26.9239 18.6136 26.7857 18.4216 26.6762C18.0052 26.4357 17.8383 26.3406 17.3269 26.0427C17.1151 25.9207 16.67 25.664 16.3398 25.4738C16.0096 25.2836 15.5124 24.9964 15.236 24.8367C13.3768 23.7617 12.8886 23.4817 12.8724 23.4817C12.8653 23.4817 12.8599 24.5172 12.8617 25.7825ZM14.5092 25.0754C14.7407 25.2082 15.0853 25.4074 15.2719 25.5151C15.4604 25.6227 15.7134 25.7699 15.8373 25.8417C16.0652 25.9727 17.0828 26.5614 18.9564 27.6436C19.5235 27.9702 19.992 28.2376 20.0009 28.2376C20.0099 28.2376 20.4783 27.9702 21.0454 27.6436C22.9191 26.5614 23.9367 25.9727 24.1646 25.8417C24.2884 25.7699 24.5469 25.621 24.7389 25.5097C24.9309 25.3984 25.1624 25.2656 25.2504 25.2154C25.3401 25.1633 25.525 25.0556 25.6632 24.9767C25.8014 24.8959 26.0616 24.7469 26.2428 24.6428L26.5695 24.4544V25.0772V25.7017L26.1262 25.9601C25.8803 26.1001 25.5609 26.2868 25.4119 26.3711C25.2647 26.4573 25.0063 26.6062 24.8376 26.7031C24.4248 26.9436 23.9098 27.2398 23.5634 27.439C23.0734 27.7207 21.7741 28.4709 21.652 28.5427C21.5318 28.6127 20.6704 29.1116 20.5573 29.1744C20.5232 29.1942 20.3832 29.2749 20.2486 29.3539L20.0009 29.4957L19.2167 29.0434C18.7841 28.794 18.3857 28.5642 18.3319 28.5319C18.2493 28.4835 17.4058 27.9953 16.609 27.5377C16.1406 27.2667 15.2396 26.748 14.7694 26.4752C14.4482 26.2904 13.9744 26.0158 13.6801 25.8471L13.4324 25.7035V25.079V24.4544L13.7608 24.6428C13.9403 24.7469 14.2777 24.9408 14.5092 25.0754ZM13.7321 26.5344C14.5038 26.9795 15.665 27.6489 16.0437 27.8697C16.2016 27.9612 16.6503 28.2197 17.0397 28.444C17.4291 28.6701 17.946 28.968 18.1883 29.108C19.6348 29.9443 19.9794 30.14 20.0009 30.14C20.0225 30.14 20.367 29.9443 21.8136 29.108C22.0558 28.968 22.5727 28.6701 22.9622 28.444C23.3516 28.2197 23.8003 27.9612 23.9582 27.8697C24.3369 27.6489 25.4981 26.9795 26.2698 26.5344C26.4277 26.4447 26.5587 26.3711 26.5623 26.3711C26.5659 26.3711 26.5677 26.6834 26.5659 27.0639L26.5605 27.7584L26.3451 27.8841C26.2267 27.9522 25.7583 28.2232 25.3042 28.4853C24.1556 29.1475 23.8918 29.3001 23.2762 29.6554C22.9801 29.8259 22.5279 30.0879 22.2712 30.2351C21.7849 30.5151 20.8606 31.0481 20.3688 31.3334C20.2109 31.425 20.0637 31.5093 20.0422 31.5201C19.9938 31.5452 19.9955 31.5452 19.633 31.3334C19.4051 31.2006 18.7859 30.8435 17.6678 30.1992C17.264 29.9659 16.2985 29.4095 15.7924 29.117C15.6452 29.0309 15.1517 28.7473 14.6976 28.4853C14.2436 28.2232 13.7752 27.9522 13.6567 27.8841L13.4414 27.7584L13.436 27.0639C13.4342 26.6834 13.436 26.3711 13.4396 26.3711C13.4432 26.3711 13.5742 26.4447 13.7321 26.5344Z" fill="white"/>
</svg>
