<svg width="19" height="19" viewBox="0 0 19 19" fill="none" xmlns="http://www.w3.org/2000/svg">
<g clipPath="url(#clip0_2374_2581)">
<path d="M9.33496 0.77832V17.8925" stroke="#CACACA" strokeWidth="2" strokeLinecap="round" strokeLinejoin="round"/>
<path d="M13.2246 3.88965H7.39019C6.66808 3.88965 5.97555 4.1765 5.46494 4.68711C4.95434 5.19772 4.66748 5.89025 4.66748 6.61236C4.66748 7.33446 4.95434 8.02699 5.46494 8.5376C5.97555 9.04821 6.66808 9.33506 7.39019 9.33506H11.2798C12.0019 9.33506 12.6944 9.62192 13.205 10.1325C13.7156 10.6431 14.0025 11.3357 14.0025 12.0578C14.0025 12.7799 13.7156 13.4724 13.205 13.983C12.6944 14.4936 12.0019 14.7805 11.2798 14.7805H4.66748" stroke="#CACACA" strokeWidth="2" strokeLinecap="round" strokeLinejoin="round"/>
</g>
<defs>
<clipPath id="clip0_2374_2581">
<rect width="18.67" height="18.67" fill="white"/>
</clipPath>
</defs>
</svg>
