<svg width="42" height="45" viewBox="0 0 42 45" fill="none" xmlns="http://www.w3.org/2000/svg">
<g filter="url(#filter0_dd_18173_1832)">
<rect x="1" y="1" width="40" height="40" rx="7" fill="white"/>
<rect x="1.25" y="1.25" width="39.5" height="39.5" rx="6.75" stroke="#F6F6F6" stroke-width="0.5"/>
<path d="M25.3789 28.5H16.6211C16.2257 28.5 15.8847 28.5 15.6037 28.4771C15.3072 28.4528 15.0123 28.3994 14.7285 28.2548C14.3052 28.039 13.961 27.6948 13.7452 27.2715C13.6684 27.1206 13.6173 26.9667 13.5826 26.811C13.5638 26.7264 13.5544 26.6841 13.559 26.6274C13.5628 26.5824 13.5799 26.5236 13.6009 26.4837C13.6274 26.4333 13.665 26.3956 13.7404 26.3202L18 22.0607L19.3077 23.3683C19.3708 23.4315 19.4462 23.507 19.5181 23.568C19.6014 23.6388 19.7279 23.7329 19.9024 23.7896C20.1283 23.863 20.3717 23.863 20.5976 23.7896C20.7721 23.7329 20.8986 23.6388 20.9819 23.568C21.0537 23.507 21.1292 23.4315 21.1923 23.3684L24 20.5607V21.75C24 22.1642 24.3358 22.5 24.75 22.5C25.1642 22.5 25.5 22.1642 25.5 21.75V18.75C25.5 18.3358 25.1642 18 24.75 18H21.75C21.3358 18 21 18.3358 21 18.75C21 19.1642 21.3358 19.5 21.75 19.5H22.9393L20.25 22.1893L18.9423 20.8817C18.8792 20.8185 18.8038 20.743 18.7319 20.682C18.6486 20.6112 18.5221 20.5171 18.3476 20.4604C18.1217 20.387 17.8783 20.387 17.6524 20.4604C17.4779 20.5171 17.3514 20.6112 17.2681 20.682C17.1963 20.743 17.1209 20.8184 17.0577 20.8816L14.5243 23.4151C14.203 23.7364 14.0423 23.897 13.9044 23.9079C13.7848 23.9173 13.6678 23.8688 13.5898 23.7776C13.5 23.6724 13.5 23.4452 13.5 22.9908V16.6211C13.5 16.2257 13.5 15.8847 13.5229 15.6037C13.5472 15.3072 13.6006 15.0123 13.7452 14.7285C13.961 14.3052 14.3052 13.961 14.7285 13.7452C15.0123 13.6006 15.3072 13.5472 15.6037 13.5229C15.8847 13.5 16.2257 13.5 16.6211 13.5H25.3789C25.7743 13.5 26.1153 13.5 26.3963 13.5229C26.6928 13.5472 26.9877 13.6006 27.2715 13.7452C27.6948 13.961 28.0391 14.3052 28.2548 14.7285C28.3994 15.0123 28.4528 15.3072 28.4771 15.6037C28.5 15.8847 28.5 16.2257 28.5 16.6211V25.3789C28.5 25.7743 28.5 26.1153 28.4771 26.3963C28.4528 26.6928 28.3994 26.9877 28.2548 27.2715C28.0391 27.6948 27.6948 28.039 27.2715 28.2548C26.9877 28.3994 26.6928 28.4528 26.3963 28.4771C26.1154 28.5 25.7743 28.5 25.3789 28.5Z" fill="black"/>
<path d="M25.3789 28.5H16.6211C16.2257 28.5 15.8847 28.5 15.6037 28.4771C15.3072 28.4528 15.0123 28.3994 14.7285 28.2548C14.3052 28.039 13.961 27.6948 13.7452 27.2715C13.6684 27.1206 13.6173 26.9667 13.5826 26.811C13.5638 26.7264 13.5544 26.6841 13.559 26.6274C13.5628 26.5824 13.5799 26.5236 13.6009 26.4837C13.6274 26.4333 13.665 26.3956 13.7404 26.3202L18 22.0607L19.3077 23.3683C19.3708 23.4315 19.4462 23.507 19.5181 23.568C19.6014 23.6388 19.7279 23.7329 19.9024 23.7896C20.1283 23.863 20.3717 23.863 20.5976 23.7896C20.7721 23.7329 20.8986 23.6388 20.9819 23.568C21.0537 23.507 21.1292 23.4315 21.1923 23.3684L24 20.5607V21.75C24 22.1642 24.3358 22.5 24.75 22.5C25.1642 22.5 25.5 22.1642 25.5 21.75V18.75C25.5 18.3358 25.1642 18 24.75 18H21.75C21.3358 18 21 18.3358 21 18.75C21 19.1642 21.3358 19.5 21.75 19.5H22.9393L20.25 22.1893L18.9423 20.8817C18.8792 20.8185 18.8038 20.743 18.7319 20.682C18.6486 20.6112 18.5221 20.5171 18.3476 20.4604C18.1217 20.387 17.8783 20.387 17.6524 20.4604C17.4779 20.5171 17.3514 20.6112 17.2681 20.682C17.1963 20.743 17.1209 20.8184 17.0577 20.8816L14.5243 23.4151C14.203 23.7364 14.0423 23.897 13.9044 23.9079C13.7848 23.9173 13.6678 23.8688 13.5898 23.7776C13.5 23.6724 13.5 23.4452 13.5 22.9908V16.6211C13.5 16.2257 13.5 15.8847 13.5229 15.6037C13.5472 15.3072 13.6006 15.0123 13.7452 14.7285C13.961 14.3052 14.3052 13.961 14.7285 13.7452C15.0123 13.6006 15.3072 13.5472 15.6037 13.5229C15.8847 13.5 16.2257 13.5 16.6211 13.5H25.3789C25.7743 13.5 26.1153 13.5 26.3963 13.5229C26.6928 13.5472 26.9877 13.6006 27.2715 13.7452C27.6948 13.961 28.0391 14.3052 28.2548 14.7285C28.3994 15.0123 28.4528 15.3072 28.4771 15.6037C28.5 15.8847 28.5 16.2257 28.5 16.6211V25.3789C28.5 25.7743 28.5 26.1153 28.4771 26.3963C28.4528 26.6928 28.3994 26.9877 28.2548 27.2715C28.0391 27.6948 27.6948 28.039 27.2715 28.2548C26.9877 28.3994 26.6928 28.4528 26.3963 28.4771C26.1154 28.5 25.7743 28.5 25.3789 28.5Z" fill="url(#paint0_linear_18173_1832)"/>
</g>
<defs>
<filter id="filter0_dd_18173_1832" x="0" y="0" width="42" height="45" filterUnits="userSpaceOnUse" color-interpolation-filters="sRGB">
<feFlood flood-opacity="0" result="BackgroundImageFix"/>
<feColorMatrix in="SourceAlpha" type="matrix" values="0 0 0 0 0 0 0 0 0 0 0 0 0 0 0 0 0 0 127 0" result="hardAlpha"/>
<feOffset/>
<feGaussianBlur stdDeviation="0.5"/>
<feComposite in2="hardAlpha" operator="out"/>
<feColorMatrix type="matrix" values="0 0 0 0 0.815218 0 0 0 0 0.815218 0 0 0 0 0.815218 0 0 0 1 0"/>
<feBlend mode="normal" in2="BackgroundImageFix" result="effect1_dropShadow_18173_1832"/>
<feColorMatrix in="SourceAlpha" type="matrix" values="0 0 0 0 0 0 0 0 0 0 0 0 0 0 0 0 0 0 127 0" result="hardAlpha"/>
<feMorphology radius="4" operator="erode" in="SourceAlpha" result="effect2_dropShadow_18173_1832"/>
<feOffset dy="4"/>
<feGaussianBlur stdDeviation="2"/>
<feComposite in2="hardAlpha" operator="out"/>
<feColorMatrix type="matrix" values="0 0 0 0 0 0 0 0 0 0 0 0 0 0 0 0 0 0 0.25 0"/>
<feBlend mode="normal" in2="effect1_dropShadow_18173_1832" result="effect2_dropShadow_18173_1832"/>
<feBlend mode="normal" in="SourceGraphic" in2="effect2_dropShadow_18173_1832" result="shape"/>
</filter>
<linearGradient id="paint0_linear_18173_1832" x1="13.5" y1="21" x2="28.5" y2="21" gradientUnits="userSpaceOnUse">
<stop stop-color="#5B8BFC"/>
<stop offset="0.519231" stop-color="#175CFF"/>
<stop offset="1" stop-color="#5B8BFC"/>
</linearGradient>
</defs>
</svg>
