<svg width="42" height="45" viewBox="0 0 42 45" fill="none" xmlns="http://www.w3.org/2000/svg">
<g filter="url(#filter0_dd_18173_1788)">
<rect x="1" y="1" width="40" height="40" rx="7" fill="white"/>
<rect x="1.25" y="1.25" width="39.5" height="39.5" rx="6.75" stroke="#F6F6F6" stroke-width="0.5"/>
<path fill-rule="evenodd" clip-rule="evenodd" d="M13.4999 23.2497L13.4999 23.2539V25.3788C13.4999 25.7742 13.4999 26.1152 13.5229 26.3962C13.5471 26.6927 13.6006 26.9876 13.7452 27.2714C13.9609 27.6947 14.3051 28.0389 14.7285 28.2546C15.0122 28.3992 15.3072 28.4527 15.6037 28.477C15.8846 28.4999 16.2257 28.4999 16.621 28.4999L25.3789 28.4999C25.7742 28.4999 26.1153 28.4999 26.3962 28.477C26.6927 28.4527 26.9876 28.3992 27.2714 28.2546C27.6948 28.0389 28.039 27.6947 28.2547 27.2714C28.3993 26.9876 28.4528 26.6927 28.477 26.3962C28.5 26.1152 28.5 25.7742 28.4999 25.3788V20.371C28.5 19.9756 28.5 19.6345 28.477 19.3536C28.4528 19.0571 28.3993 18.7622 28.2547 18.4784C28.039 18.055 27.6948 17.7108 27.2714 17.4951C26.9876 17.3505 26.6927 17.297 26.3962 17.2728C26.1153 17.2499 25.7742 17.2499 25.3788 17.2499H24.7499L24.7499 15.3448C24.75 15.0591 24.75 14.7957 24.7304 14.5813C24.7101 14.359 24.6618 14.0786 24.4871 13.8237C24.2575 13.4888 23.9019 13.2613 23.5016 13.1931C23.1969 13.1413 22.9221 13.215 22.7118 13.2897C22.5089 13.3618 22.2697 13.4722 22.0104 13.5919L15.2422 16.7156C14.8246 16.9077 14.4575 17.0765 14.1773 17.3503C13.932 17.5901 13.7447 17.8827 13.6299 18.2059C13.4987 18.575 13.4992 18.9791 13.4998 19.4387L13.4999 23.2497ZM23.214 14.7032C23.0836 14.7495 22.9077 14.8298 22.6114 14.9666L17.6643 17.2499L23.2499 17.2499V15.3752C23.2499 15.0488 23.2492 14.8554 23.2366 14.7177L23.2345 14.6961L23.214 14.7032ZM24.3749 21.7499C23.7536 21.7499 23.2499 22.2536 23.2499 22.8749C23.2499 23.4962 23.7536 23.9999 24.3749 23.9999C24.9963 23.9999 25.4999 23.4962 25.4999 22.8749C25.4999 22.2536 24.9963 21.7499 24.3749 21.7499Z" fill="black"/>
<path fill-rule="evenodd" clip-rule="evenodd" d="M13.4999 23.2497L13.4999 23.2539V25.3788C13.4999 25.7742 13.4999 26.1152 13.5229 26.3962C13.5471 26.6927 13.6006 26.9876 13.7452 27.2714C13.9609 27.6947 14.3051 28.0389 14.7285 28.2546C15.0122 28.3992 15.3072 28.4527 15.6037 28.477C15.8846 28.4999 16.2257 28.4999 16.621 28.4999L25.3789 28.4999C25.7742 28.4999 26.1153 28.4999 26.3962 28.477C26.6927 28.4527 26.9876 28.3992 27.2714 28.2546C27.6948 28.0389 28.039 27.6947 28.2547 27.2714C28.3993 26.9876 28.4528 26.6927 28.477 26.3962C28.5 26.1152 28.5 25.7742 28.4999 25.3788V20.371C28.5 19.9756 28.5 19.6345 28.477 19.3536C28.4528 19.0571 28.3993 18.7622 28.2547 18.4784C28.039 18.055 27.6948 17.7108 27.2714 17.4951C26.9876 17.3505 26.6927 17.297 26.3962 17.2728C26.1153 17.2499 25.7742 17.2499 25.3788 17.2499H24.7499L24.7499 15.3448C24.75 15.0591 24.75 14.7957 24.7304 14.5813C24.7101 14.359 24.6618 14.0786 24.4871 13.8237C24.2575 13.4888 23.9019 13.2613 23.5016 13.1931C23.1969 13.1413 22.9221 13.215 22.7118 13.2897C22.5089 13.3618 22.2697 13.4722 22.0104 13.5919L15.2422 16.7156C14.8246 16.9077 14.4575 17.0765 14.1773 17.3503C13.932 17.5901 13.7447 17.8827 13.6299 18.2059C13.4987 18.575 13.4992 18.9791 13.4998 19.4387L13.4999 23.2497ZM23.214 14.7032C23.0836 14.7495 22.9077 14.8298 22.6114 14.9666L17.6643 17.2499L23.2499 17.2499V15.3752C23.2499 15.0488 23.2492 14.8554 23.2366 14.7177L23.2345 14.6961L23.214 14.7032ZM24.3749 21.7499C23.7536 21.7499 23.2499 22.2536 23.2499 22.8749C23.2499 23.4962 23.7536 23.9999 24.3749 23.9999C24.9963 23.9999 25.4999 23.4962 25.4999 22.8749C25.4999 22.2536 24.9963 21.7499 24.3749 21.7499Z" fill="url(#paint0_linear_18173_1788)"/>
</g>
<defs>
<filter id="filter0_dd_18173_1788" x="0" y="0" width="42" height="45" filterUnits="userSpaceOnUse" color-interpolation-filters="sRGB">
<feFlood flood-opacity="0" result="BackgroundImageFix"/>
<feColorMatrix in="SourceAlpha" type="matrix" values="0 0 0 0 0 0 0 0 0 0 0 0 0 0 0 0 0 0 127 0" result="hardAlpha"/>
<feOffset/>
<feGaussianBlur stdDeviation="0.5"/>
<feComposite in2="hardAlpha" operator="out"/>
<feColorMatrix type="matrix" values="0 0 0 0 0.815218 0 0 0 0 0.815218 0 0 0 0 0.815218 0 0 0 1 0"/>
<feBlend mode="normal" in2="BackgroundImageFix" result="effect1_dropShadow_18173_1788"/>
<feColorMatrix in="SourceAlpha" type="matrix" values="0 0 0 0 0 0 0 0 0 0 0 0 0 0 0 0 0 0 127 0" result="hardAlpha"/>
<feMorphology radius="4" operator="erode" in="SourceAlpha" result="effect2_dropShadow_18173_1788"/>
<feOffset dy="4"/>
<feGaussianBlur stdDeviation="2"/>
<feComposite in2="hardAlpha" operator="out"/>
<feColorMatrix type="matrix" values="0 0 0 0 0 0 0 0 0 0 0 0 0 0 0 0 0 0 0.25 0"/>
<feBlend mode="normal" in2="effect1_dropShadow_18173_1788" result="effect2_dropShadow_18173_1788"/>
<feBlend mode="normal" in="SourceGraphic" in2="effect2_dropShadow_18173_1788" result="shape"/>
</filter>
<linearGradient id="paint0_linear_18173_1788" x1="13.4998" y1="20.8378" x2="28.4999" y2="20.8378" gradientUnits="userSpaceOnUse">
<stop stop-color="#5B8BFC"/>
<stop offset="0.519231" stop-color="#175CFF"/>
<stop offset="1" stop-color="#5B8BFC"/>
</linearGradient>
</defs>
</svg>
