<svg width="42" height="45" viewBox="0 0 42 45" fill="none" xmlns="http://www.w3.org/2000/svg">
<g filter="url(#filter0_dd_18173_1854)">
<rect x="1" y="1" width="40" height="40" rx="7" fill="white"/>
<rect x="1.25" y="1.25" width="39.5" height="39.5" rx="6.75" stroke="#F6F6F6" stroke-width="0.5"/>
<path fill-rule="evenodd" clip-rule="evenodd" d="M24.181 13.5H17.819C17.2153 13.5 16.717 13.5 16.3111 13.5331C15.8896 13.5676 15.502 13.6415 15.138 13.827C14.5735 14.1146 14.1146 14.5735 13.827 15.138C13.6415 15.502 13.5676 15.8896 13.5331 16.3111C13.5 16.717 13.5 17.2153 13.5 17.819V22.1507C13.5 22.653 13.5 23.0677 13.5231 23.4072C13.5472 23.7591 13.5986 24.0847 13.7284 24.3981C14.0328 25.1331 14.6169 25.7172 15.352 26.0216C15.6653 26.1514 15.9909 26.2028 16.3428 26.2269C16.6823 26.25 17.097 26.25 17.5993 26.25H17.625C18.0274 26.25 18.1073 26.2547 18.1723 26.2701C18.2856 26.2968 18.3912 26.3496 18.4806 26.4242C18.5318 26.467 18.5835 26.5281 18.825 26.85L19.9327 28.3269C20.0027 28.4204 20.0819 28.526 20.158 28.6107C20.2421 28.7041 20.3817 28.8416 20.5922 28.9235C20.8545 29.0255 21.1455 29.0255 21.4078 28.9235C21.6183 28.8416 21.758 28.7041 21.842 28.6107C21.9181 28.526 21.9973 28.4203 22.0673 28.3269L23.175 26.85C23.4165 26.5281 23.4682 26.467 23.5194 26.4242C23.6088 26.3496 23.7144 26.2968 23.8277 26.2701C23.8927 26.2547 23.9726 26.25 24.375 26.25H24.4007C24.903 26.25 25.3177 26.25 25.6572 26.2269C26.0091 26.2028 26.3347 26.1514 26.6481 26.0216C27.3831 25.7172 27.9672 25.1331 28.2716 24.3981C28.4014 24.0847 28.4528 23.7591 28.4769 23.4072C28.5 23.0677 28.5 22.653 28.5 22.1507V17.819C28.5 17.2153 28.5 16.717 28.4669 16.3111C28.4324 15.8896 28.3585 15.502 28.173 15.138C27.8854 14.5735 27.4265 14.1146 26.862 13.827C26.498 13.6415 26.1104 13.5676 25.6889 13.5331C25.283 13.5 24.7847 13.5 24.181 13.5ZM21 16.5C20.5858 16.5 20.25 16.8358 20.25 17.25C20.25 17.6642 20.5858 18 21 18H21.0075C21.4217 18 21.7575 17.6642 21.7575 17.25C21.7575 16.8358 21.4217 16.5 21.0075 16.5H21ZM21.75 19.875C21.75 19.4608 21.4142 19.125 21 19.125C20.5858 19.125 20.25 19.4608 20.25 19.875V22.5C20.25 22.9142 20.5858 23.25 21 23.25C21.4142 23.25 21.75 22.9142 21.75 22.5V19.875Z" fill="black"/>
<path fill-rule="evenodd" clip-rule="evenodd" d="M24.181 13.5H17.819C17.2153 13.5 16.717 13.5 16.3111 13.5331C15.8896 13.5676 15.502 13.6415 15.138 13.827C14.5735 14.1146 14.1146 14.5735 13.827 15.138C13.6415 15.502 13.5676 15.8896 13.5331 16.3111C13.5 16.717 13.5 17.2153 13.5 17.819V22.1507C13.5 22.653 13.5 23.0677 13.5231 23.4072C13.5472 23.7591 13.5986 24.0847 13.7284 24.3981C14.0328 25.1331 14.6169 25.7172 15.352 26.0216C15.6653 26.1514 15.9909 26.2028 16.3428 26.2269C16.6823 26.25 17.097 26.25 17.5993 26.25H17.625C18.0274 26.25 18.1073 26.2547 18.1723 26.2701C18.2856 26.2968 18.3912 26.3496 18.4806 26.4242C18.5318 26.467 18.5835 26.5281 18.825 26.85L19.9327 28.3269C20.0027 28.4204 20.0819 28.526 20.158 28.6107C20.2421 28.7041 20.3817 28.8416 20.5922 28.9235C20.8545 29.0255 21.1455 29.0255 21.4078 28.9235C21.6183 28.8416 21.758 28.7041 21.842 28.6107C21.9181 28.526 21.9973 28.4203 22.0673 28.3269L23.175 26.85C23.4165 26.5281 23.4682 26.467 23.5194 26.4242C23.6088 26.3496 23.7144 26.2968 23.8277 26.2701C23.8927 26.2547 23.9726 26.25 24.375 26.25H24.4007C24.903 26.25 25.3177 26.25 25.6572 26.2269C26.0091 26.2028 26.3347 26.1514 26.6481 26.0216C27.3831 25.7172 27.9672 25.1331 28.2716 24.3981C28.4014 24.0847 28.4528 23.7591 28.4769 23.4072C28.5 23.0677 28.5 22.653 28.5 22.1507V17.819C28.5 17.2153 28.5 16.717 28.4669 16.3111C28.4324 15.8896 28.3585 15.502 28.173 15.138C27.8854 14.5735 27.4265 14.1146 26.862 13.827C26.498 13.6415 26.1104 13.5676 25.6889 13.5331C25.283 13.5 24.7847 13.5 24.181 13.5ZM21 16.5C20.5858 16.5 20.25 16.8358 20.25 17.25C20.25 17.6642 20.5858 18 21 18H21.0075C21.4217 18 21.7575 17.6642 21.7575 17.25C21.7575 16.8358 21.4217 16.5 21.0075 16.5H21ZM21.75 19.875C21.75 19.4608 21.4142 19.125 21 19.125C20.5858 19.125 20.25 19.4608 20.25 19.875V22.5C20.25 22.9142 20.5858 23.25 21 23.25C21.4142 23.25 21.75 22.9142 21.75 22.5V19.875Z" fill="url(#paint0_linear_18173_1854)"/>
</g>
<defs>
<filter id="filter0_dd_18173_1854" x="0" y="0" width="42" height="45" filterUnits="userSpaceOnUse" color-interpolation-filters="sRGB">
<feFlood flood-opacity="0" result="BackgroundImageFix"/>
<feColorMatrix in="SourceAlpha" type="matrix" values="0 0 0 0 0 0 0 0 0 0 0 0 0 0 0 0 0 0 127 0" result="hardAlpha"/>
<feOffset/>
<feGaussianBlur stdDeviation="0.5"/>
<feComposite in2="hardAlpha" operator="out"/>
<feColorMatrix type="matrix" values="0 0 0 0 0.815218 0 0 0 0 0.815218 0 0 0 0 0.815218 0 0 0 1 0"/>
<feBlend mode="normal" in2="BackgroundImageFix" result="effect1_dropShadow_18173_1854"/>
<feColorMatrix in="SourceAlpha" type="matrix" values="0 0 0 0 0 0 0 0 0 0 0 0 0 0 0 0 0 0 127 0" result="hardAlpha"/>
<feMorphology radius="4" operator="erode" in="SourceAlpha" result="effect2_dropShadow_18173_1854"/>
<feOffset dy="4"/>
<feGaussianBlur stdDeviation="2"/>
<feComposite in2="hardAlpha" operator="out"/>
<feColorMatrix type="matrix" values="0 0 0 0 0 0 0 0 0 0 0 0 0 0 0 0 0 0 0.25 0"/>
<feBlend mode="normal" in2="effect1_dropShadow_18173_1854" result="effect2_dropShadow_18173_1854"/>
<feBlend mode="normal" in="SourceGraphic" in2="effect2_dropShadow_18173_1854" result="shape"/>
</filter>
<linearGradient id="paint0_linear_18173_1854" x1="21" y1="13.5" x2="21" y2="29" gradientUnits="userSpaceOnUse">
<stop stop-color="#0429BB"/>
<stop offset="1" stop-color="#4CB5FF"/>
</linearGradient>
</defs>
</svg>
