<svg width="43" height="45" viewBox="0 0 43 45" fill="none" xmlns="http://www.w3.org/2000/svg">
<g filter="url(#filter0_dd_18173_1921)">
<rect x="1.3335" y="1" width="40" height="40" rx="7" fill="white"/>
<rect x="1.5835" y="1.25" width="39.5" height="39.5" rx="6.75" stroke="#F6F6F6" stroke-width="0.5"/>
<path d="M27.1139 14.7803C27.4068 14.4874 27.4068 14.0126 27.1139 13.7197C26.821 13.4268 26.3461 13.4268 26.0532 13.7197L23.8032 15.9697C23.6626 16.1103 23.5836 16.3011 23.5836 16.5C23.5836 16.6989 23.6626 16.8897 23.8032 17.0303L26.0532 19.2803C26.3461 19.5732 26.821 19.5732 27.1139 19.2803C27.4068 18.9874 27.4068 18.5126 27.1139 18.2197L26.1442 17.25L28.8336 17.25C29.2478 17.25 29.5836 16.9142 29.5836 16.5C29.5836 16.0858 29.2478 15.75 28.8336 15.75L26.1442 15.75L27.1139 14.7803Z" fill="url(#paint0_linear_18173_1921)"/>
<path fill-rule="evenodd" clip-rule="evenodd" d="M17.4025 22.5H20.7645C21.3682 22.5 21.8665 22.5 22.2724 22.5331C22.694 22.5676 23.0815 22.6415 23.4455 22.827C24.01 23.1146 24.4689 23.5735 24.7565 24.138C24.942 24.502 25.0159 24.8896 25.0504 25.3111C25.0835 25.717 25.0835 26.2153 25.0835 26.819C25.0835 27.031 25.0932 27.2459 25.0759 27.4574C25.067 27.5663 25.0442 27.7223 24.9609 27.8857C24.853 28.0974 24.6809 28.2695 24.4693 28.3774C24.3058 28.4607 24.1498 28.4835 24.0409 28.4924C23.9469 28.5001 23.8402 28.5 23.7509 28.5C20.6393 28.4989 17.5277 28.4989 14.4162 28.5C14.3268 28.5 14.2201 28.5001 14.1261 28.4924C14.0172 28.4835 13.8612 28.4607 13.6978 28.3774C13.4861 28.2695 13.314 28.0974 13.2061 27.8857C13.1228 27.7223 13.1 27.5663 13.0911 27.4574C13.0738 27.2459 13.0835 27.031 13.0835 26.819C13.0835 26.2153 13.0835 25.717 13.1167 25.3111C13.1511 24.8896 13.225 24.502 13.4105 24.138C13.6981 23.5735 14.1571 23.1146 14.7215 22.827C15.0855 22.6415 15.4731 22.5676 15.8946 22.5331C16.3005 22.5 16.7988 22.5 17.4025 22.5Z" fill="url(#paint1_linear_18173_1921)"/>
<path fill-rule="evenodd" clip-rule="evenodd" d="M15.7085 17.625C15.7085 15.761 17.2196 14.25 19.0835 14.25C20.9475 14.25 22.4585 15.761 22.4585 17.625C22.4585 19.489 20.9475 21 19.0835 21C17.2196 21 15.7085 19.489 15.7085 17.625Z" fill="url(#paint2_linear_18173_1921)"/>
</g>
<defs>
<filter id="filter0_dd_18173_1921" x="0.333496" y="0" width="42" height="45" filterUnits="userSpaceOnUse" color-interpolation-filters="sRGB">
<feFlood flood-opacity="0" result="BackgroundImageFix"/>
<feColorMatrix in="SourceAlpha" type="matrix" values="0 0 0 0 0 0 0 0 0 0 0 0 0 0 0 0 0 0 127 0" result="hardAlpha"/>
<feOffset/>
<feGaussianBlur stdDeviation="0.5"/>
<feComposite in2="hardAlpha" operator="out"/>
<feColorMatrix type="matrix" values="0 0 0 0 0.815218 0 0 0 0 0.815218 0 0 0 0 0.815218 0 0 0 1 0"/>
<feBlend mode="normal" in2="BackgroundImageFix" result="effect1_dropShadow_18173_1921"/>
<feColorMatrix in="SourceAlpha" type="matrix" values="0 0 0 0 0 0 0 0 0 0 0 0 0 0 0 0 0 0 127 0" result="hardAlpha"/>
<feMorphology radius="4" operator="erode" in="SourceAlpha" result="effect2_dropShadow_18173_1921"/>
<feOffset dy="4"/>
<feGaussianBlur stdDeviation="2"/>
<feComposite in2="hardAlpha" operator="out"/>
<feColorMatrix type="matrix" values="0 0 0 0 0 0 0 0 0 0 0 0 0 0 0 0 0 0 0.25 0"/>
<feBlend mode="normal" in2="effect1_dropShadow_18173_1921" result="effect2_dropShadow_18173_1921"/>
<feBlend mode="normal" in="SourceGraphic" in2="effect2_dropShadow_18173_1921" result="shape"/>
</filter>
<linearGradient id="paint0_linear_18173_1921" x1="13.0808" y1="21" x2="29.5836" y2="21" gradientUnits="userSpaceOnUse">
<stop stop-color="#5B8BFC"/>
<stop offset="0.519231" stop-color="#175CFF"/>
<stop offset="1" stop-color="#5B8BFC"/>
</linearGradient>
<linearGradient id="paint1_linear_18173_1921" x1="13.0808" y1="21" x2="29.5836" y2="21" gradientUnits="userSpaceOnUse">
<stop stop-color="#5B8BFC"/>
<stop offset="0.519231" stop-color="#175CFF"/>
<stop offset="1" stop-color="#5B8BFC"/>
</linearGradient>
<linearGradient id="paint2_linear_18173_1921" x1="13.0808" y1="21" x2="29.5836" y2="21" gradientUnits="userSpaceOnUse">
<stop stop-color="#5B8BFC"/>
<stop offset="0.519231" stop-color="#175CFF"/>
<stop offset="1" stop-color="#5B8BFC"/>
</linearGradient>
</defs>
</svg>
