<svg width="42" height="45" viewBox="0 0 42 45" fill="none" xmlns="http://www.w3.org/2000/svg">
<g filter="url(#filter0_dd_18173_1810)">
<rect x="1" y="1" width="40" height="40" rx="7" fill="white"/>
<rect x="1.25" y="1.25" width="39.5" height="39.5" rx="6.75" stroke="#F6F6F6" stroke-width="0.5"/>
<path fill-rule="evenodd" clip-rule="evenodd" d="M13.875 25.1251C13.875 24.7108 14.2108 24.3751 14.625 24.3751H18.75C19.1642 24.3751 19.5 24.7108 19.5 25.1251C19.5 25.5393 19.1642 25.8751 18.75 25.8751H14.625C14.2108 25.8751 13.875 25.5393 13.875 25.1251Z" fill="black"/>
<path fill-rule="evenodd" clip-rule="evenodd" d="M13.875 25.1251C13.875 24.7108 14.2108 24.3751 14.625 24.3751H18.75C19.1642 24.3751 19.5 24.7108 19.5 25.1251C19.5 25.5393 19.1642 25.8751 18.75 25.8751H14.625C14.2108 25.8751 13.875 25.5393 13.875 25.1251Z" fill="url(#paint0_linear_18173_1810)"/>
<path fill-rule="evenodd" clip-rule="evenodd" d="M12.75 21.0001C12.75 20.5858 13.0858 20.2501 13.5 20.2501H16.875C17.2892 20.2501 17.625 20.5858 17.625 21.0001C17.625 21.4143 17.2892 21.7501 16.875 21.7501H13.5C13.0858 21.7501 12.75 21.4143 12.75 21.0001Z" fill="black"/>
<path fill-rule="evenodd" clip-rule="evenodd" d="M12.75 21.0001C12.75 20.5858 13.0858 20.2501 13.5 20.2501H16.875C17.2892 20.2501 17.625 20.5858 17.625 21.0001C17.625 21.4143 17.2892 21.7501 16.875 21.7501H13.5C13.0858 21.7501 12.75 21.4143 12.75 21.0001Z" fill="url(#paint1_linear_18173_1810)"/>
<path fill-rule="evenodd" clip-rule="evenodd" d="M14.25 16.8751C14.25 16.4608 14.5858 16.1251 15 16.1251H18.75C19.1642 16.1251 19.5 16.4608 19.5 16.8751C19.5 17.2893 19.1642 17.6251 18.75 17.6251H15C14.5858 17.6251 14.25 17.2893 14.25 16.8751Z" fill="black"/>
<path fill-rule="evenodd" clip-rule="evenodd" d="M14.25 16.8751C14.25 16.4608 14.5858 16.1251 15 16.1251H18.75C19.1642 16.1251 19.5 16.4608 19.5 16.8751C19.5 17.2893 19.1642 17.6251 18.75 17.6251H15C14.5858 17.6251 14.25 17.2893 14.25 16.8751Z" fill="url(#paint2_linear_18173_1810)"/>
<path fill-rule="evenodd" clip-rule="evenodd" d="M25.0257 13.5526C25.346 13.6792 25.5389 14.0077 25.4934 14.3492L24.8566 19.1251H27.7091C27.7177 19.1251 27.7263 19.1251 27.735 19.1251C27.9005 19.125 28.0721 19.125 28.2138 19.1379C28.3533 19.1507 28.6069 19.1845 28.8337 19.3595C29.0981 19.5636 29.2582 19.8746 29.2705 20.2084C29.2811 20.4946 29.1612 20.7206 29.0905 20.8415C29.0187 20.9644 28.9189 21.104 28.8227 21.2387C28.8176 21.2457 28.8126 21.2527 28.8076 21.2597L23.8603 28.186C23.6601 28.4663 23.2947 28.5742 22.9743 28.4476C22.654 28.3209 22.4611 27.9924 22.5066 27.6509L23.1434 22.8751H20.2909C20.2823 22.8751 20.2737 22.8751 20.265 22.8751C20.0995 22.8751 19.9279 22.8751 19.7862 22.8622C19.6467 22.8494 19.3931 22.8157 19.1663 22.6407C18.9019 22.4366 18.7418 22.1255 18.7295 21.7918C18.7189 21.5055 18.8388 21.2795 18.9095 21.1586C18.9813 21.0358 19.0811 20.8961 19.1773 20.7614C19.1824 20.7544 19.1874 20.7474 19.1924 20.7404L24.1397 13.8141C24.3399 13.5338 24.7053 13.426 25.0257 13.5526Z" fill="black"/>
<path fill-rule="evenodd" clip-rule="evenodd" d="M25.0257 13.5526C25.346 13.6792 25.5389 14.0077 25.4934 14.3492L24.8566 19.1251H27.7091C27.7177 19.1251 27.7263 19.1251 27.735 19.1251C27.9005 19.125 28.0721 19.125 28.2138 19.1379C28.3533 19.1507 28.6069 19.1845 28.8337 19.3595C29.0981 19.5636 29.2582 19.8746 29.2705 20.2084C29.2811 20.4946 29.1612 20.7206 29.0905 20.8415C29.0187 20.9644 28.9189 21.104 28.8227 21.2387C28.8176 21.2457 28.8126 21.2527 28.8076 21.2597L23.8603 28.186C23.6601 28.4663 23.2947 28.5742 22.9743 28.4476C22.654 28.3209 22.4611 27.9924 22.5066 27.6509L23.1434 22.8751H20.2909C20.2823 22.8751 20.2737 22.8751 20.265 22.8751C20.0995 22.8751 19.9279 22.8751 19.7862 22.8622C19.6467 22.8494 19.3931 22.8157 19.1663 22.6407C18.9019 22.4366 18.7418 22.1255 18.7295 21.7918C18.7189 21.5055 18.8388 21.2795 18.9095 21.1586C18.9813 21.0358 19.0811 20.8961 19.1773 20.7614C19.1824 20.7544 19.1874 20.7474 19.1924 20.7404L24.1397 13.8141C24.3399 13.5338 24.7053 13.426 25.0257 13.5526Z" fill="url(#paint3_linear_18173_1810)"/>
</g>
<defs>
<filter id="filter0_dd_18173_1810" x="0" y="0" width="42" height="45" filterUnits="userSpaceOnUse" color-interpolation-filters="sRGB">
<feFlood flood-opacity="0" result="BackgroundImageFix"/>
<feColorMatrix in="SourceAlpha" type="matrix" values="0 0 0 0 0 0 0 0 0 0 0 0 0 0 0 0 0 0 127 0" result="hardAlpha"/>
<feOffset/>
<feGaussianBlur stdDeviation="0.5"/>
<feComposite in2="hardAlpha" operator="out"/>
<feColorMatrix type="matrix" values="0 0 0 0 0.815218 0 0 0 0 0.815218 0 0 0 0 0.815218 0 0 0 1 0"/>
<feBlend mode="normal" in2="BackgroundImageFix" result="effect1_dropShadow_18173_1810"/>
<feColorMatrix in="SourceAlpha" type="matrix" values="0 0 0 0 0 0 0 0 0 0 0 0 0 0 0 0 0 0 127 0" result="hardAlpha"/>
<feMorphology radius="4" operator="erode" in="SourceAlpha" result="effect2_dropShadow_18173_1810"/>
<feOffset dy="4"/>
<feGaussianBlur stdDeviation="2"/>
<feComposite in2="hardAlpha" operator="out"/>
<feColorMatrix type="matrix" values="0 0 0 0 0 0 0 0 0 0 0 0 0 0 0 0 0 0 0.25 0"/>
<feBlend mode="normal" in2="effect1_dropShadow_18173_1810" result="effect2_dropShadow_18173_1810"/>
<feBlend mode="normal" in="SourceGraphic" in2="effect2_dropShadow_18173_1810" result="shape"/>
</filter>
<linearGradient id="paint0_linear_18173_1810" x1="12.75" y1="21.0001" x2="29.2712" y2="21.0001" gradientUnits="userSpaceOnUse">
<stop stop-color="#5B8BFC"/>
<stop offset="0.519231" stop-color="#175CFF"/>
<stop offset="1" stop-color="#5B8BFC"/>
</linearGradient>
<linearGradient id="paint1_linear_18173_1810" x1="12.75" y1="21.0001" x2="29.2712" y2="21.0001" gradientUnits="userSpaceOnUse">
<stop stop-color="#5B8BFC"/>
<stop offset="0.519231" stop-color="#175CFF"/>
<stop offset="1" stop-color="#5B8BFC"/>
</linearGradient>
<linearGradient id="paint2_linear_18173_1810" x1="12.75" y1="21.0001" x2="29.2712" y2="21.0001" gradientUnits="userSpaceOnUse">
<stop stop-color="#5B8BFC"/>
<stop offset="0.519231" stop-color="#175CFF"/>
<stop offset="1" stop-color="#5B8BFC"/>
</linearGradient>
<linearGradient id="paint3_linear_18173_1810" x1="12.75" y1="21.0001" x2="29.2712" y2="21.0001" gradientUnits="userSpaceOnUse">
<stop stop-color="#5B8BFC"/>
<stop offset="0.519231" stop-color="#175CFF"/>
<stop offset="1" stop-color="#5B8BFC"/>
</linearGradient>
</defs>
</svg>
