<svg width="43" height="45" viewBox="0 0 43 45" fill="none" xmlns="http://www.w3.org/2000/svg">
<g filter="url(#filter0_dd_18173_1899)">
<rect x="1.66675" y="1" width="40" height="40" rx="7" fill="white"/>
<rect x="1.91675" y="1.25" width="39.5" height="39.5" rx="6.75" stroke="#F6F6F6" stroke-width="0.5"/>
<path fill-rule="evenodd" clip-rule="evenodd" d="M26.0457 13.5H17.2878C16.8925 13.5 16.5514 13.5 16.2705 13.5229C15.974 13.5472 15.6791 13.6006 15.3953 13.7452C14.9719 13.961 14.6277 14.3052 14.412 14.7285C14.2674 15.0123 14.2139 15.3072 14.1897 15.6037C14.1667 15.8847 14.1667 16.2257 14.1667 16.6211V25.3789C14.1667 25.7743 14.1667 26.1154 14.1897 26.3963C14.2139 26.6928 14.2674 26.9877 14.412 27.2715C14.6277 27.6948 14.9719 28.0391 15.3953 28.2548C15.6791 28.3994 15.974 28.4528 16.2705 28.4771C16.5514 28.5 16.8925 28.5 17.2878 28.5H26.0457C26.441 28.5 26.7821 28.5 27.063 28.4771C27.3595 28.4528 27.6544 28.3994 27.9382 28.2548C28.3616 28.0391 28.7058 27.6948 28.9215 27.2715C29.0661 26.9877 29.1196 26.6928 29.1438 26.3963C29.1668 26.1153 29.1668 25.7743 29.1667 25.3789V16.6211C29.1668 16.2257 29.1668 15.8847 29.1438 15.6037C29.1196 15.3072 29.0661 15.0123 28.9215 14.7285C28.7058 14.3052 28.3616 13.961 27.9382 13.7452C27.6544 13.6006 27.3595 13.5472 27.063 13.5229C26.7821 13.5 26.441 13.5 26.0457 13.5ZM23.0009 17.0798C23.0417 17.16 23.0417 17.265 23.0417 17.475V19.025C23.0417 19.235 23.0417 19.34 23.0826 19.4202C23.1186 19.4908 23.1759 19.5482 23.2465 19.5841C23.3267 19.625 23.4317 19.625 23.6417 19.625L25.1917 19.625C25.4018 19.625 25.5068 19.625 25.587 19.6659C25.6576 19.7018 25.7149 19.7592 25.7509 19.8298C25.7917 19.91 25.7917 20.015 25.7917 20.225V21.775C25.7917 21.985 25.7917 22.09 25.7509 22.1702C25.7149 22.2408 25.6576 22.2982 25.587 22.3341C25.5068 22.375 25.4018 22.375 25.1917 22.375H23.6417C23.4317 22.375 23.3267 22.375 23.2465 22.4159C23.1759 22.4518 23.1186 22.5092 23.0826 22.5798C23.0417 22.66 23.0417 22.765 23.0417 22.975V24.525C23.0417 24.735 23.0417 24.84 23.0009 24.9202C22.9649 24.9908 22.9076 25.0482 22.837 25.0841C22.7568 25.125 22.6518 25.125 22.4417 25.125H20.8917C20.6817 25.125 20.5767 25.125 20.4965 25.0841C20.4259 25.0482 20.3686 24.9908 20.3326 24.9202C20.2917 24.84 20.2917 24.735 20.2917 24.525V22.975C20.2917 22.765 20.2917 22.66 20.2509 22.5798C20.2149 22.5092 20.1576 22.4518 20.087 22.4159C20.0068 22.375 19.9018 22.375 19.6917 22.375H18.1417C17.9317 22.375 17.8267 22.375 17.7465 22.3341C17.6759 22.2982 17.6186 22.2408 17.5826 22.1702C17.5417 22.09 17.5417 21.985 17.5417 21.775V20.225C17.5417 20.015 17.5417 19.91 17.5826 19.8298C17.6186 19.7592 17.6759 19.7018 17.7465 19.6659C17.8267 19.625 17.9317 19.625 18.1417 19.625H19.6917C19.9018 19.625 20.0068 19.625 20.087 19.5841C20.1576 19.5482 20.2149 19.4908 20.2509 19.4202C20.2917 19.34 20.2917 19.235 20.2917 19.025V17.475C20.2917 17.265 20.2917 17.16 20.3326 17.0798C20.3686 17.0092 20.4259 16.9518 20.4965 16.9159C20.5767 16.875 20.6817 16.875 20.8917 16.875H22.4417C22.6518 16.875 22.7568 16.875 22.837 16.9159C22.9076 16.9518 22.9649 17.0092 23.0009 17.0798Z" fill="black"/>
<path fill-rule="evenodd" clip-rule="evenodd" d="M26.0457 13.5H17.2878C16.8925 13.5 16.5514 13.5 16.2705 13.5229C15.974 13.5472 15.6791 13.6006 15.3953 13.7452C14.9719 13.961 14.6277 14.3052 14.412 14.7285C14.2674 15.0123 14.2139 15.3072 14.1897 15.6037C14.1667 15.8847 14.1667 16.2257 14.1667 16.6211V25.3789C14.1667 25.7743 14.1667 26.1154 14.1897 26.3963C14.2139 26.6928 14.2674 26.9877 14.412 27.2715C14.6277 27.6948 14.9719 28.0391 15.3953 28.2548C15.6791 28.3994 15.974 28.4528 16.2705 28.4771C16.5514 28.5 16.8925 28.5 17.2878 28.5H26.0457C26.441 28.5 26.7821 28.5 27.063 28.4771C27.3595 28.4528 27.6544 28.3994 27.9382 28.2548C28.3616 28.0391 28.7058 27.6948 28.9215 27.2715C29.0661 26.9877 29.1196 26.6928 29.1438 26.3963C29.1668 26.1153 29.1668 25.7743 29.1667 25.3789V16.6211C29.1668 16.2257 29.1668 15.8847 29.1438 15.6037C29.1196 15.3072 29.0661 15.0123 28.9215 14.7285C28.7058 14.3052 28.3616 13.961 27.9382 13.7452C27.6544 13.6006 27.3595 13.5472 27.063 13.5229C26.7821 13.5 26.441 13.5 26.0457 13.5ZM23.0009 17.0798C23.0417 17.16 23.0417 17.265 23.0417 17.475V19.025C23.0417 19.235 23.0417 19.34 23.0826 19.4202C23.1186 19.4908 23.1759 19.5482 23.2465 19.5841C23.3267 19.625 23.4317 19.625 23.6417 19.625L25.1917 19.625C25.4018 19.625 25.5068 19.625 25.587 19.6659C25.6576 19.7018 25.7149 19.7592 25.7509 19.8298C25.7917 19.91 25.7917 20.015 25.7917 20.225V21.775C25.7917 21.985 25.7917 22.09 25.7509 22.1702C25.7149 22.2408 25.6576 22.2982 25.587 22.3341C25.5068 22.375 25.4018 22.375 25.1917 22.375H23.6417C23.4317 22.375 23.3267 22.375 23.2465 22.4159C23.1759 22.4518 23.1186 22.5092 23.0826 22.5798C23.0417 22.66 23.0417 22.765 23.0417 22.975V24.525C23.0417 24.735 23.0417 24.84 23.0009 24.9202C22.9649 24.9908 22.9076 25.0482 22.837 25.0841C22.7568 25.125 22.6518 25.125 22.4417 25.125H20.8917C20.6817 25.125 20.5767 25.125 20.4965 25.0841C20.4259 25.0482 20.3686 24.9908 20.3326 24.9202C20.2917 24.84 20.2917 24.735 20.2917 24.525V22.975C20.2917 22.765 20.2917 22.66 20.2509 22.5798C20.2149 22.5092 20.1576 22.4518 20.087 22.4159C20.0068 22.375 19.9018 22.375 19.6917 22.375H18.1417C17.9317 22.375 17.8267 22.375 17.7465 22.3341C17.6759 22.2982 17.6186 22.2408 17.5826 22.1702C17.5417 22.09 17.5417 21.985 17.5417 21.775V20.225C17.5417 20.015 17.5417 19.91 17.5826 19.8298C17.6186 19.7592 17.6759 19.7018 17.7465 19.6659C17.8267 19.625 17.9317 19.625 18.1417 19.625H19.6917C19.9018 19.625 20.0068 19.625 20.087 19.5841C20.1576 19.5482 20.2149 19.4908 20.2509 19.4202C20.2917 19.34 20.2917 19.235 20.2917 19.025V17.475C20.2917 17.265 20.2917 17.16 20.3326 17.0798C20.3686 17.0092 20.4259 16.9518 20.4965 16.9159C20.5767 16.875 20.6817 16.875 20.8917 16.875H22.4417C22.6518 16.875 22.7568 16.875 22.837 16.9159C22.9076 16.9518 22.9649 17.0092 23.0009 17.0798Z" fill="url(#paint0_linear_18173_1899)"/>
</g>
<defs>
<filter id="filter0_dd_18173_1899" x="0.666748" y="0" width="42" height="45" filterUnits="userSpaceOnUse" color-interpolation-filters="sRGB">
<feFlood flood-opacity="0" result="BackgroundImageFix"/>
<feColorMatrix in="SourceAlpha" type="matrix" values="0 0 0 0 0 0 0 0 0 0 0 0 0 0 0 0 0 0 127 0" result="hardAlpha"/>
<feOffset/>
<feGaussianBlur stdDeviation="0.5"/>
<feComposite in2="hardAlpha" operator="out"/>
<feColorMatrix type="matrix" values="0 0 0 0 0.815218 0 0 0 0 0.815218 0 0 0 0 0.815218 0 0 0 1 0"/>
<feBlend mode="normal" in2="BackgroundImageFix" result="effect1_dropShadow_18173_1899"/>
<feColorMatrix in="SourceAlpha" type="matrix" values="0 0 0 0 0 0 0 0 0 0 0 0 0 0 0 0 0 0 127 0" result="hardAlpha"/>
<feMorphology radius="4" operator="erode" in="SourceAlpha" result="effect2_dropShadow_18173_1899"/>
<feOffset dy="4"/>
<feGaussianBlur stdDeviation="2"/>
<feComposite in2="hardAlpha" operator="out"/>
<feColorMatrix type="matrix" values="0 0 0 0 0 0 0 0 0 0 0 0 0 0 0 0 0 0 0.25 0"/>
<feBlend mode="normal" in2="effect1_dropShadow_18173_1899" result="effect2_dropShadow_18173_1899"/>
<feBlend mode="normal" in="SourceGraphic" in2="effect2_dropShadow_18173_1899" result="shape"/>
</filter>
<linearGradient id="paint0_linear_18173_1899" x1="14.1667" y1="21" x2="29.1668" y2="21" gradientUnits="userSpaceOnUse">
<stop stop-color="#5B8BFC"/>
<stop offset="0.519231" stop-color="#175CFF"/>
<stop offset="1" stop-color="#5B8BFC"/>
</linearGradient>
</defs>
</svg>
