<svg width="42" height="45" viewBox="0 0 42 45" fill="none" xmlns="http://www.w3.org/2000/svg">
<g filter="url(#filter0_dd_18173_1492)">
<rect x="1" y="1" width="40" height="40" rx="7" fill="white"/>
<rect x="1.25" y="1.25" width="39.5" height="39.5" rx="6.75" stroke="#F6F6F6" stroke-width="0.5"/>
<path d="M16.7914 28.0981C16.4593 27.9008 16.2932 27.8022 16.1946 27.6168C16.1159 27.4688 16.0884 27.2496 16.1281 27.0868C16.1779 26.8828 16.3349 26.7258 16.6489 26.4117L22.3713 20.6893V23.1213C22.3713 23.5355 22.7071 23.8713 23.1213 23.8713C23.5355 23.8713 23.8713 23.5355 23.8713 23.1213V18.8787C23.8713 18.4645 23.5355 18.1287 23.1213 18.1287L18.8787 18.1287C18.4645 18.1287 18.1287 18.4645 18.1287 18.8787C18.1287 19.2929 18.4645 19.6287 18.8787 19.6287L21.3107 19.6287L15.5883 25.3511C15.2742 25.6651 15.1172 25.8221 14.9132 25.8719C14.7504 25.9116 14.5312 25.8842 14.3832 25.8054C14.1978 25.7068 14.0992 25.5407 13.9019 25.2086C12.0217 22.0427 12.4432 17.8895 15.1664 15.1664C18.3882 11.9445 23.6118 11.9445 26.8336 15.1664C30.0555 18.3882 30.0555 23.6118 26.8336 26.8336C24.1105 29.5568 19.9573 29.9783 16.7914 28.0981Z" fill="black"/>
<path d="M16.7914 28.0981C16.4593 27.9008 16.2932 27.8022 16.1946 27.6168C16.1159 27.4688 16.0884 27.2496 16.1281 27.0868C16.1779 26.8828 16.3349 26.7258 16.6489 26.4117L22.3713 20.6893V23.1213C22.3713 23.5355 22.7071 23.8713 23.1213 23.8713C23.5355 23.8713 23.8713 23.5355 23.8713 23.1213V18.8787C23.8713 18.4645 23.5355 18.1287 23.1213 18.1287L18.8787 18.1287C18.4645 18.1287 18.1287 18.4645 18.1287 18.8787C18.1287 19.2929 18.4645 19.6287 18.8787 19.6287L21.3107 19.6287L15.5883 25.3511C15.2742 25.6651 15.1172 25.8221 14.9132 25.8719C14.7504 25.9116 14.5312 25.8842 14.3832 25.8054C14.1978 25.7068 14.0992 25.5407 13.9019 25.2086C12.0217 22.0427 12.4432 17.8895 15.1664 15.1664C18.3882 11.9445 23.6118 11.9445 26.8336 15.1664C30.0555 18.3882 30.0555 23.6118 26.8336 26.8336C24.1105 29.5568 19.9573 29.9783 16.7914 28.0981Z" fill="url(#paint0_linear_18173_1492)"/>
</g>
<defs>
<filter id="filter0_dd_18173_1492" x="0" y="0" width="42" height="45" filterUnits="userSpaceOnUse" color-interpolation-filters="sRGB">
<feFlood flood-opacity="0" result="BackgroundImageFix"/>
<feColorMatrix in="SourceAlpha" type="matrix" values="0 0 0 0 0 0 0 0 0 0 0 0 0 0 0 0 0 0 127 0" result="hardAlpha"/>
<feOffset/>
<feGaussianBlur stdDeviation="0.5"/>
<feComposite in2="hardAlpha" operator="out"/>
<feColorMatrix type="matrix" values="0 0 0 0 0.815218 0 0 0 0 0.815218 0 0 0 0 0.815218 0 0 0 1 0"/>
<feBlend mode="normal" in2="BackgroundImageFix" result="effect1_dropShadow_18173_1492"/>
<feColorMatrix in="SourceAlpha" type="matrix" values="0 0 0 0 0 0 0 0 0 0 0 0 0 0 0 0 0 0 127 0" result="hardAlpha"/>
<feMorphology radius="4" operator="erode" in="SourceAlpha" result="effect2_dropShadow_18173_1492"/>
<feOffset dy="4"/>
<feGaussianBlur stdDeviation="2"/>
<feComposite in2="hardAlpha" operator="out"/>
<feColorMatrix type="matrix" values="0 0 0 0 0 0 0 0 0 0 0 0 0 0 0 0 0 0 0.25 0"/>
<feBlend mode="normal" in2="effect1_dropShadow_18173_1492" result="effect2_dropShadow_18173_1492"/>
<feBlend mode="normal" in="SourceGraphic" in2="effect2_dropShadow_18173_1492" result="shape"/>
</filter>
<linearGradient id="paint0_linear_18173_1492" x1="21" y1="12.75" x2="21" y2="29.25" gradientUnits="userSpaceOnUse">
<stop stop-color="#0429BB"/>
<stop offset="1" stop-color="#4CB5FF"/>
</linearGradient>
</defs>
</svg>
