<svg width="42" height="45" viewBox="0 0 42 45" fill="none" xmlns="http://www.w3.org/2000/svg">
<g filter="url(#filter0_dd_18173_1877)">
<rect x="1" y="1" width="40" height="40" rx="7" fill="white"/>
<rect x="1.25" y="1.25" width="39.5" height="39.5" rx="6.75" stroke="#F6F6F6" stroke-width="0.5"/>
<path d="M17.1 12.7497L17.0539 12.7496C16.8838 12.7491 16.6696 12.7484 16.4631 12.8074C16.2843 12.8585 16.1165 12.9424 15.9683 13.0548C15.7972 13.1846 15.6693 13.3563 15.5676 13.4928L15.54 13.5297L14.4374 14.9999C14.335 15.1363 14.2839 15.2045 14.2648 15.2702C14.2115 15.4534 14.314 15.6584 14.4926 15.7258C14.5565 15.7499 14.6428 15.7499 14.8155 15.7499H27.1846C27.3572 15.7499 27.4435 15.7499 27.5075 15.7258C27.686 15.6584 27.7885 15.4534 27.7353 15.2702C27.7162 15.2045 27.665 15.1363 27.5627 14.9999L26.46 13.5297L26.4324 13.4928C26.3308 13.3563 26.2028 13.1846 26.0317 13.0548C25.8836 12.9424 25.7158 12.8585 25.5369 12.8074C25.3304 12.7484 25.1163 12.7491 24.9461 12.7496L24.9 12.7497H17.1Z" fill="black"/>
<path d="M17.1 12.7497L17.0539 12.7496C16.8838 12.7491 16.6696 12.7484 16.4631 12.8074C16.2843 12.8585 16.1165 12.9424 15.9683 13.0548C15.7972 13.1846 15.6693 13.3563 15.5676 13.4928L15.54 13.5297L14.4374 14.9999C14.335 15.1363 14.2839 15.2045 14.2648 15.2702C14.2115 15.4534 14.314 15.6584 14.4926 15.7258C14.5565 15.7499 14.6428 15.7499 14.8155 15.7499H27.1846C27.3572 15.7499 27.4435 15.7499 27.5075 15.7258C27.686 15.6584 27.7885 15.4534 27.7353 15.2702C27.7162 15.2045 27.665 15.1363 27.5627 14.9999L26.46 13.5297L26.4324 13.4928C26.3308 13.3563 26.2028 13.1846 26.0317 13.0548C25.8836 12.9424 25.7158 12.8585 25.5369 12.8074C25.3304 12.7484 25.1163 12.7491 24.9461 12.7496L24.9 12.7497H17.1Z" fill="url(#paint0_linear_18173_1877)"/>
<path fill-rule="evenodd" clip-rule="evenodd" d="M28.5 18.4499C28.5 18.0298 28.5 17.8198 28.4183 17.6594C28.3464 17.5183 28.2317 17.4035 28.0905 17.3316C27.9301 17.2499 27.7201 17.2499 27.3 17.2499H14.7C14.28 17.2499 14.0699 17.2499 13.9095 17.3316C13.7684 17.4035 13.6536 17.5183 13.5817 17.6594C13.5 17.8198 13.5 18.0298 13.5 18.4499L13.5 26.1286C13.5 26.524 13.5 26.8651 13.5229 27.146C13.5472 27.4425 13.6007 27.7374 13.7453 28.0212C13.961 28.4446 14.3052 28.7888 14.7285 29.0045C15.0123 29.1491 15.3072 29.2026 15.6038 29.2268C15.8847 29.2497 16.2257 29.2497 16.6211 29.2497L25.3789 29.2497C25.7743 29.2497 26.1154 29.2497 26.3963 29.2268C26.6928 29.2026 26.9877 29.1491 27.2715 29.0045C27.6949 28.7888 28.0391 28.4446 28.2548 28.0212C28.3994 27.7374 28.4529 27.4425 28.4771 27.146C28.5 26.8651 28.5 26.524 28.5 26.1286L28.5 18.4499ZM18 19.4999C18.4142 19.4999 18.75 19.8357 18.75 20.2499C18.75 20.8466 18.9871 21.4189 19.409 21.8409C19.831 22.2628 20.4033 22.4999 21 22.4999C21.5968 22.4999 22.1691 22.2628 22.591 21.8409C23.013 21.4189 23.25 20.8466 23.25 20.2499C23.25 19.8357 23.5858 19.4999 24 19.4999C24.4142 19.4999 24.75 19.8357 24.75 20.2499C24.75 21.2444 24.3549 22.1983 23.6517 22.9015C22.9484 23.6048 21.9946 23.9999 21 23.9999C20.0055 23.9999 19.0516 23.6048 18.3484 22.9015C17.6451 22.1983 17.25 21.2444 17.25 20.2499C17.25 19.8357 17.5858 19.4999 18 19.4999Z" fill="black"/>
<path fill-rule="evenodd" clip-rule="evenodd" d="M28.5 18.4499C28.5 18.0298 28.5 17.8198 28.4183 17.6594C28.3464 17.5183 28.2317 17.4035 28.0905 17.3316C27.9301 17.2499 27.7201 17.2499 27.3 17.2499H14.7C14.28 17.2499 14.0699 17.2499 13.9095 17.3316C13.7684 17.4035 13.6536 17.5183 13.5817 17.6594C13.5 17.8198 13.5 18.0298 13.5 18.4499L13.5 26.1286C13.5 26.524 13.5 26.8651 13.5229 27.146C13.5472 27.4425 13.6007 27.7374 13.7453 28.0212C13.961 28.4446 14.3052 28.7888 14.7285 29.0045C15.0123 29.1491 15.3072 29.2026 15.6038 29.2268C15.8847 29.2497 16.2257 29.2497 16.6211 29.2497L25.3789 29.2497C25.7743 29.2497 26.1154 29.2497 26.3963 29.2268C26.6928 29.2026 26.9877 29.1491 27.2715 29.0045C27.6949 28.7888 28.0391 28.4446 28.2548 28.0212C28.3994 27.7374 28.4529 27.4425 28.4771 27.146C28.5 26.8651 28.5 26.524 28.5 26.1286L28.5 18.4499ZM18 19.4999C18.4142 19.4999 18.75 19.8357 18.75 20.2499C18.75 20.8466 18.9871 21.4189 19.409 21.8409C19.831 22.2628 20.4033 22.4999 21 22.4999C21.5968 22.4999 22.1691 22.2628 22.591 21.8409C23.013 21.4189 23.25 20.8466 23.25 20.2499C23.25 19.8357 23.5858 19.4999 24 19.4999C24.4142 19.4999 24.75 19.8357 24.75 20.2499C24.75 21.2444 24.3549 22.1983 23.6517 22.9015C22.9484 23.6048 21.9946 23.9999 21 23.9999C20.0055 23.9999 19.0516 23.6048 18.3484 22.9015C17.6451 22.1983 17.25 21.2444 17.25 20.2499C17.25 19.8357 17.5858 19.4999 18 19.4999Z" fill="url(#paint1_linear_18173_1877)"/>
</g>
<defs>
<filter id="filter0_dd_18173_1877" x="0" y="0" width="42" height="45" filterUnits="userSpaceOnUse" color-interpolation-filters="sRGB">
<feFlood flood-opacity="0" result="BackgroundImageFix"/>
<feColorMatrix in="SourceAlpha" type="matrix" values="0 0 0 0 0 0 0 0 0 0 0 0 0 0 0 0 0 0 127 0" result="hardAlpha"/>
<feOffset/>
<feGaussianBlur stdDeviation="0.5"/>
<feComposite in2="hardAlpha" operator="out"/>
<feColorMatrix type="matrix" values="0 0 0 0 0.815218 0 0 0 0 0.815218 0 0 0 0 0.815218 0 0 0 1 0"/>
<feBlend mode="normal" in2="BackgroundImageFix" result="effect1_dropShadow_18173_1877"/>
<feColorMatrix in="SourceAlpha" type="matrix" values="0 0 0 0 0 0 0 0 0 0 0 0 0 0 0 0 0 0 127 0" result="hardAlpha"/>
<feMorphology radius="4" operator="erode" in="SourceAlpha" result="effect2_dropShadow_18173_1877"/>
<feOffset dy="4"/>
<feGaussianBlur stdDeviation="2"/>
<feComposite in2="hardAlpha" operator="out"/>
<feColorMatrix type="matrix" values="0 0 0 0 0 0 0 0 0 0 0 0 0 0 0 0 0 0 0.25 0"/>
<feBlend mode="normal" in2="effect1_dropShadow_18173_1877" result="effect2_dropShadow_18173_1877"/>
<feBlend mode="normal" in="SourceGraphic" in2="effect2_dropShadow_18173_1877" result="shape"/>
</filter>
<linearGradient id="paint0_linear_18173_1877" x1="13.5" y1="20.9996" x2="28.5" y2="20.9996" gradientUnits="userSpaceOnUse">
<stop stop-color="#5B8BFC"/>
<stop offset="0.519231" stop-color="#175CFF"/>
<stop offset="1" stop-color="#5B8BFC"/>
</linearGradient>
<linearGradient id="paint1_linear_18173_1877" x1="13.5" y1="20.9996" x2="28.5" y2="20.9996" gradientUnits="userSpaceOnUse">
<stop stop-color="#5B8BFC"/>
<stop offset="0.519231" stop-color="#175CFF"/>
<stop offset="1" stop-color="#5B8BFC"/>
</linearGradient>
</defs>
</svg>
