<svg width="32" height="32" viewBox="0 0 32 32" fill="none" xmlns="http://www.w3.org/2000/svg">
<rect x="0.5" y="0.5" width="31" height="31" rx="7.5" stroke="white" stroke-opacity="0.16"/>
<path d="M20.0578 10.5067C19.4503 9.81291 19.1155 8.92213 19.1156 8H16.3689V19.0222C16.3481 19.6188 16.0965 20.1841 15.6669 20.5987C15.2374 21.0133 14.6636 21.2448 14.0667 21.2444C12.8044 21.2444 11.7556 20.2133 11.7556 18.9333C11.7556 17.4044 13.2311 16.2578 14.7511 16.7289V13.92C11.6844 13.5111 9 15.8933 9 18.9333C9 21.8933 11.4533 24 14.0578 24C16.8489 24 19.1156 21.7333 19.1156 18.9333V13.3422C20.2293 14.1421 21.5665 14.5712 22.9378 14.5689V11.8222C22.9378 11.8222 21.2667 11.9022 20.0578 10.5067Z" fill="white"/>
</svg>
