<svg width="149" height="40" viewBox="0 0 149 40" fill="none" xmlns="http://www.w3.org/2000/svg">
<rect width="40" height="40" rx="8.57143" fill="white"/>
<path d="M19.8295 7.89341C19.6662 7.99032 19.3557 8.16799 17.3888 9.30403C16.7875 9.6504 16.1038 10.0452 15.8722 10.1798C15.6407 10.3126 15.2979 10.5119 15.1095 10.6195C14.9229 10.7272 14.7003 10.8564 14.616 10.9049C14.5316 10.9533 14.1045 11.201 13.6648 11.4541L12.8662 11.9153L12.8608 14.0617L12.8572 16.2064L13.2107 16.411C13.4064 16.524 13.663 16.6712 13.7814 16.7394C13.8999 16.8076 14.1547 16.9548 14.3468 17.066C14.5388 17.1755 14.8044 17.3281 14.9354 17.4034C15.0646 17.4806 15.2746 17.6009 15.402 17.6744C15.5277 17.7462 15.9979 18.0172 16.4465 18.2775C17.1985 18.7118 18.0348 19.1945 18.8694 19.6773C19.0524 19.7814 19.4437 20.0075 19.7398 20.1798C20.28 20.4921 20.4792 20.607 20.9386 20.8708C21.0732 20.9479 21.1845 21.0179 21.1845 21.0251C21.1845 21.0323 20.9171 21.192 20.5923 21.3787L20 21.7215L18.9178 21.0969C17.8572 20.4849 16.4591 19.6773 16.1235 19.4835C16.0302 19.4278 15.7753 19.2825 15.5582 19.1569C15.341 19.0312 15.0557 18.8679 14.9264 18.7925C14.3755 18.4731 13.2305 17.8126 13.0187 17.6906C12.9451 17.6493 12.8787 17.6134 12.8715 17.6134C12.8626 17.6134 12.8572 18.649 12.8572 19.9142V22.2168L12.9343 22.2599C13.0151 22.3065 13.8981 22.8144 14.6339 23.2398C14.8852 23.3851 15.2782 23.6113 15.5043 23.7423C15.8812 23.9594 16.687 24.4243 17.1106 24.6701C17.2039 24.724 17.4749 24.8801 17.7118 25.0165C17.9487 25.1529 18.313 25.3629 18.5194 25.4831C20.061 26.3751 19.9946 26.3392 20.0395 26.3159C20.0628 26.3033 20.1382 26.2602 20.2064 26.2189C20.2764 26.1777 20.5061 26.0449 20.7179 25.9228C20.9297 25.8008 21.3496 25.5585 21.6511 25.3844C21.9526 25.2103 22.3636 24.9734 22.5664 24.8568C22.7692 24.7401 23.0079 24.6019 23.0959 24.5499C23.1856 24.4978 23.6055 24.2556 24.0291 24.0115C24.4544 23.7674 24.8457 23.5413 24.8995 23.509C24.9534 23.4767 25.192 23.3403 25.4289 23.2039C25.6658 23.0657 26.0302 22.8575 26.2366 22.7372C26.4447 22.617 26.7319 22.4519 26.8773 22.3675L27.1429 22.2168V20.0721V17.9275L27.0298 17.8629C26.8575 17.7642 25.5151 16.9907 25.3841 16.9135C25.2136 16.813 24.8852 16.6245 24.4688 16.3841C24.266 16.2674 24.0004 16.1149 23.8765 16.0431C23.5284 15.8403 22.6687 15.3431 22.2703 15.1152C22.0729 15.0022 21.8342 14.864 21.7409 14.8101C21.6475 14.7563 21.434 14.6325 21.2653 14.5355C20.8812 14.313 20.3015 13.9792 19.7129 13.6382C19.4616 13.4928 19.1565 13.3169 19.0363 13.247C18.9142 13.1788 18.8155 13.1159 18.8155 13.1088C18.8155 13.1016 18.9232 13.0352 19.0542 12.9598C19.1834 12.8826 19.4491 12.7301 19.6411 12.617C19.9875 12.416 19.9911 12.4142 20.0449 12.4411C20.0754 12.4555 20.2692 12.5668 20.4756 12.687C20.6838 12.8073 21.1038 13.0495 21.4089 13.2254C21.7157 13.4013 22.0298 13.5826 22.1088 13.6292C22.1877 13.6759 22.6005 13.9146 23.0241 14.1587C23.4494 14.4027 23.8963 14.6612 24.0201 14.733C24.2409 14.8622 24.6393 15.0919 25.2226 15.4275C25.3859 15.5208 25.6282 15.6608 25.761 15.738C26.6152 16.2333 27.1142 16.5187 27.1285 16.5187C27.1357 16.5187 27.1411 15.4831 27.1393 14.2179L27.1339 11.9153L26.3353 11.4541C25.8956 11.201 25.4684 10.9533 25.3841 10.9049C25.2997 10.8564 25.0664 10.72 24.8636 10.6052C24.6608 10.4885 24.318 10.2893 24.1009 10.1637C23.8837 10.0381 23.3956 9.75629 23.0151 9.53734C22.6346 9.31839 22.1393 9.03124 21.9114 8.90022C20.3715 8.01006 20.0018 7.79649 19.9964 7.79649C19.9928 7.79829 19.9193 7.84136 19.8295 7.89341ZM20.2064 8.57359C20.3159 8.63641 20.5851 8.79254 20.8076 8.91997C21.0302 9.04918 21.4053 9.26634 21.6422 9.40274C22.1572 9.69886 22.4175 9.84961 23.2125 10.3091C23.9017 10.7075 24.1619 10.8564 25.3033 11.5151C25.7574 11.7771 26.2258 12.0481 26.3442 12.1163L26.5596 12.2419L26.565 12.9365C26.5668 13.3169 26.565 13.6292 26.5596 13.6292C26.5506 13.6292 25.5976 13.0836 24.3521 12.364C24.126 12.233 23.6612 11.9655 23.3202 11.7717C22.6077 11.3607 21.3317 10.6285 20.8938 10.3755C20.7269 10.2785 20.4595 10.1242 20.2961 10.0309L20 9.86038L19.7003 10.0345C19.5334 10.1296 19.266 10.2839 19.1027 10.3773C18.7384 10.5872 17.369 11.3751 16.617 11.8076C16.3119 11.9817 15.8758 12.233 15.6479 12.364C14.4006 13.0836 13.4494 13.6292 13.4405 13.6292C13.4351 13.6292 13.4333 13.3169 13.4351 12.9365L13.4405 12.2419L13.6558 12.1163C13.7743 12.0481 14.2427 11.7771 14.6967 11.5151C15.1508 11.2531 15.6443 10.9695 15.7915 10.8834C15.9404 10.799 16.355 10.5585 16.7158 10.3503C17.0765 10.1421 17.5287 9.88192 17.7208 9.77065C17.9128 9.65938 18.2484 9.46555 18.4656 9.33992C18.6827 9.21609 19.0255 9.01688 19.2283 8.90022C19.8295 8.55206 19.9911 8.46053 20 8.46053C20.0054 8.46053 20.0987 8.51257 20.2064 8.57359ZM20.2064 10.6375C20.3159 10.7003 20.5456 10.8313 20.7179 10.9318C20.8902 11.0305 21.355 11.2979 21.7498 11.5241C22.1447 11.752 22.7064 12.075 22.9971 12.2419C23.2879 12.4106 23.8048 12.7068 24.1457 12.9024C24.4867 13.0998 24.9946 13.3923 25.2764 13.5538C25.5582 13.7154 25.9638 13.9487 26.1791 14.0725L26.5686 14.2968V14.925C26.5686 15.4257 26.5632 15.5495 26.547 15.537C26.5345 15.5262 26.3299 15.4078 26.093 15.2714C25.8561 15.135 25.5582 14.9627 25.4289 14.8891C25.3015 14.8155 25.0915 14.6935 24.9623 14.6199C24.4544 14.3274 24.2588 14.2143 23.706 13.8948C22.9559 13.4605 21.425 12.5775 21.2653 12.486C21.1971 12.4465 20.8866 12.2671 20.5779 12.0894C20.2674 11.9099 20.0072 11.7627 19.9982 11.7627C19.9893 11.7627 19.8672 11.8292 19.7272 11.9117C19.5855 11.9943 19.1924 12.2222 18.8514 12.4178C18.5104 12.6134 18.1551 12.818 18.06 12.8737C17.9666 12.9293 17.4677 13.2164 16.9526 13.5126C16.4376 13.8087 16.0176 14.0564 16.0158 14.0617C16.0158 14.0671 16.2527 14.2071 16.5417 14.374C17.5539 14.9591 17.7351 15.0632 18.3669 15.4275C19.0776 15.8385 19.8529 16.2854 20.8076 16.8363C21.1576 17.0391 21.5255 17.2509 21.6242 17.3083C21.7229 17.3658 21.9329 17.486 22.0908 17.5775C22.2488 17.6691 22.4785 17.8019 22.6023 17.8737C22.7262 17.9454 23.0689 18.1429 23.3651 18.3133C23.6612 18.4838 23.9681 18.6615 24.047 18.7082C24.126 18.753 24.336 18.8751 24.5137 18.9774C24.6913 19.0797 24.9013 19.1999 24.9803 19.2466C25.0592 19.2932 25.3805 19.4781 25.6946 19.6594C26.0068 19.8388 26.2635 19.9932 26.2635 20.0004C26.2635 20.0075 26.1163 20.0991 25.9368 20.2032C25.3338 20.5495 25.0539 20.711 24.8098 20.8528C24.677 20.93 24.467 21.052 24.3432 21.122C23.7132 21.4864 23.2717 21.7394 22.9074 21.9512C22.6849 22.0804 22.4228 22.2311 22.3241 22.2886C22.2254 22.346 22.0119 22.4698 21.8485 22.5632C21.6852 22.6565 21.4035 22.8198 21.2204 22.9257C21.0374 23.0298 20.6892 23.2326 20.4451 23.3726L20 23.6292L19.7362 23.4767C19.4203 23.2954 18.5661 22.8037 18.1515 22.5632C17.9882 22.4698 17.7746 22.346 17.6759 22.2886C17.5772 22.2311 17.3152 22.0804 17.0926 21.9512C16.7337 21.743 16.4358 21.5707 15.6569 21.122C15.5331 21.052 15.3554 20.9497 15.2621 20.8941C15.1687 20.8403 14.9552 20.7164 14.7865 20.6195C14.6196 20.5226 14.2804 20.327 14.0327 20.1852C13.7868 20.0416 13.5499 19.9052 13.5086 19.8819L13.4315 19.837V19.2179C13.4315 18.6507 13.4333 18.5969 13.4602 18.6077C13.4763 18.6149 13.5643 18.6615 13.654 18.7154C13.7438 18.7674 13.9824 18.9056 14.1852 19.0222C14.7631 19.3561 16.014 20.0775 16.3299 20.2606C16.5847 20.4077 17.1034 20.7075 18.2592 21.3733C18.4512 21.4846 18.7868 21.6784 19.004 21.804C19.6339 22.1701 19.9857 22.3693 20 22.3693C20.0126 22.3693 20.4218 22.1378 20.8166 21.9081C20.9351 21.8381 21.2222 21.673 21.4537 21.5402C21.6852 21.4056 22.1303 21.1507 22.4408 20.9695C22.7513 20.79 23.2269 20.5172 23.4943 20.3629C23.7635 20.2067 23.9842 20.0775 23.9842 20.0721C23.9842 20.0614 24.0399 20.0937 22.0101 18.9235C21.1863 18.448 20.2782 17.9239 19.9911 17.757C19.7057 17.5919 19.3342 17.3783 19.1655 17.2814C18.8012 17.0714 18.6468 16.9835 18.1964 16.7215C18.0097 16.6138 17.6903 16.4289 17.4875 16.3123C17.0101 16.0377 16.9132 15.9821 15.3428 15.0739C14.6124 14.6522 13.986 14.2915 13.9519 14.2717C13.7868 14.1766 13.7366 14.1461 13.7366 14.1335C13.7366 14.1263 13.8066 14.0815 13.8945 14.0312C13.9807 13.981 14.2965 13.7997 14.598 13.6256C14.8995 13.4533 15.682 13.0011 16.3389 12.6242C16.9957 12.2455 17.7782 11.7951 18.0797 11.6228C18.3812 11.4505 18.8658 11.1705 19.1565 11.0036C19.799 10.6321 19.9875 10.5244 20 10.5244C20.0054 10.5244 20.0987 10.5747 20.2064 10.6375ZM19.4239 14.1299C20.9386 15.0057 21.005 15.0434 21.9742 15.6034C22.4228 15.8618 22.9487 16.1651 23.1407 16.2764C23.3328 16.3877 23.7527 16.6299 24.074 16.8148C24.7918 17.2294 25.3213 17.5345 25.5474 17.6655C25.6425 17.7211 25.9099 17.8754 26.1432 18.0083L26.5668 18.2505L26.5686 18.8733C26.5686 19.2179 26.565 19.4978 26.5596 19.4978C26.556 19.4978 26.4842 19.4584 26.4035 19.4099C26.2653 19.3291 26.1181 19.2448 25.2046 18.7172C25.0126 18.6077 24.6249 18.3833 24.3432 18.22C24.0614 18.0585 23.5607 17.7696 23.2305 17.5775C22.9002 17.3873 22.5575 17.1899 22.4677 17.1378C22.3798 17.0858 22.2021 16.9835 22.0729 16.9099C21.4573 16.5546 20.5025 16.0036 19.9193 15.6662C19.5639 15.4616 18.9591 15.1116 18.5732 14.8891C18.1892 14.6665 17.7405 14.4081 17.5772 14.3148C17.4139 14.2197 17.2506 14.1246 17.2129 14.103L17.1429 14.0635L17.3116 13.9666C17.4031 13.911 17.588 13.8051 17.7208 13.7279C17.8536 13.6508 18.0151 13.5574 18.0797 13.5197C18.1443 13.4821 18.2071 13.4515 18.2215 13.4515C18.2341 13.4498 18.776 13.7566 19.4239 14.1299ZM13.916 14.9088C14.1386 15.0363 14.3486 15.1565 14.3827 15.1762C14.4168 15.1978 14.8367 15.4401 15.3159 15.7164C16.8934 16.6263 17.3277 16.8794 18.0887 17.3173C18.4692 17.5363 18.855 17.7588 19.0219 17.8557C19.1206 17.9131 19.3791 18.0621 19.5962 18.1877C19.8134 18.3133 20.1454 18.5036 20.332 18.6131C20.5205 18.7207 21.0966 19.0546 21.6152 19.3525C22.8859 20.0847 22.8356 20.056 22.8356 20.0703C22.8356 20.0793 22.6005 20.2193 22.3152 20.3862C21.9742 20.5818 21.7821 20.6823 21.7606 20.6769C21.7319 20.6698 20.6694 20.0614 19.7218 19.5122C19.3019 19.2681 19.1404 19.1748 18.5643 18.8428C17.8159 18.4103 17.6131 18.2936 16.4196 17.6044C15.8776 17.2904 15.332 16.9745 15.2082 16.9045C15.0844 16.8345 14.6931 16.6066 14.3378 16.402C13.9824 16.1956 13.6325 15.9946 13.5625 15.9551L13.4315 15.8816V15.257V14.6325L13.4728 14.654C13.4943 14.6665 13.6935 14.7796 13.916 14.9088ZM13.5966 20.5908C13.7348 20.6716 13.8819 20.7559 14.7954 21.2836C14.9875 21.393 15.3751 21.6174 15.6569 21.7807C15.9387 21.9422 16.4394 22.2311 16.7696 22.4232C17.0998 22.6134 17.4444 22.8108 17.5323 22.8629C17.6221 22.9149 17.7997 23.0172 17.9272 23.0908C18.4853 23.4138 19.458 23.9738 19.7183 24.1245L20 24.2879L20.3823 24.0671C20.5905 23.9469 20.9566 23.7351 21.1935 23.5987C21.4304 23.4623 21.6888 23.3133 21.7678 23.2667C21.8468 23.22 22.0567 23.0998 22.2344 22.9975C22.4121 22.8952 22.6508 22.757 22.7638 22.6924C22.8769 22.626 23.1641 22.4609 23.401 22.3245C24.0327 21.9601 24.7129 21.5689 24.8457 21.4899C24.9103 21.4523 25.2046 21.2818 25.5007 21.1113C25.7969 20.9408 26.154 20.7344 26.2958 20.6518C26.4376 20.5693 26.556 20.5029 26.5614 20.5029C26.565 20.5029 26.5668 20.8151 26.565 21.1974L26.5596 21.892L26.2814 22.0517C26.1289 22.1396 25.7969 22.3316 25.5456 22.477C25.2943 22.6242 24.4616 23.1052 23.6971 23.5449C22.9325 23.9863 22.2057 24.4063 22.0819 24.4781C21.958 24.5499 21.5381 24.7922 21.1486 25.0165C20.7592 25.2408 20.3446 25.4813 20.2262 25.5477C20.1095 25.6159 20.0072 25.6716 20 25.6716C19.9928 25.6716 19.8905 25.6159 19.7739 25.5477C19.6554 25.4813 19.2175 25.2283 18.7976 24.986C18.3776 24.7437 17.9577 24.5014 17.8643 24.4476C17.771 24.3919 17.0675 23.9863 16.303 23.5449C15.5384 23.1034 14.6572 22.5955 14.3468 22.416C14.0363 22.2347 13.7025 22.0445 13.6074 21.9907L13.4333 21.8937L13.4315 21.1974C13.4315 20.8151 13.4351 20.5029 13.4405 20.5029C13.444 20.5029 13.5158 20.5423 13.5966 20.5908Z" fill="black"/>
<path d="M12.8607 25.7827L12.8661 28.0853L13.1173 28.2307C13.9896 28.735 14.7074 29.1495 15.0107 29.3236C15.2028 29.4349 15.4863 29.5982 15.6389 29.6862C15.7914 29.7741 16.127 29.9679 16.3837 30.1151C17.7602 30.9101 18.5032 31.3391 18.6629 31.4324C18.7616 31.4898 19.1026 31.6872 19.4221 31.8703L20 32.2041L20.5796 31.8703C20.8973 31.6872 21.2383 31.4898 21.337 31.4324C21.4967 31.3391 22.2397 30.9101 23.6162 30.1151C23.8729 29.9679 24.2085 29.7741 24.361 29.6862C24.5136 29.5982 24.7972 29.4349 24.9892 29.3236C25.2925 29.1495 26.0104 28.735 26.8826 28.2307L27.1338 28.0853L27.1392 25.7827C27.141 24.5175 27.1356 23.4819 27.1284 23.4819C27.1123 23.4819 26.6241 23.7619 24.7648 24.8369C24.4885 24.9966 23.9913 25.2838 23.6611 25.474C23.3309 25.6643 22.8912 25.9191 22.683 26.0394C22.4766 26.1596 22.0836 26.3857 21.8126 26.5419C21.2814 26.847 20.6819 27.1933 20.2781 27.4284C20.1399 27.5074 20.0143 27.5738 20 27.5738C19.9766 27.5738 19.729 27.4338 18.9501 26.9816C18.8514 26.9241 18.6127 26.7859 18.4206 26.6765C18.0043 26.436 17.8374 26.3409 17.3259 26.0429C17.1141 25.9209 16.669 25.6643 16.3388 25.474C16.0086 25.2838 15.5114 24.9966 15.2351 24.8369C13.3758 23.7619 12.8876 23.4819 12.8715 23.4819C12.8643 23.4819 12.8589 24.5175 12.8607 25.7827ZM14.5082 25.0756C14.7397 25.2084 15.0843 25.4076 15.271 25.5153C15.4594 25.623 15.7125 25.7702 15.8363 25.8419C16.0642 25.973 17.0818 26.5616 18.9555 27.6438C19.5226 27.9704 19.991 28.2378 20 28.2378C20.0089 28.2378 20.4773 27.9704 21.0445 27.6438C22.9181 26.5616 23.9357 25.973 24.1636 25.8419C24.2875 25.7702 24.5459 25.6212 24.7379 25.5099C24.93 25.3987 25.1615 25.2658 25.2494 25.2156C25.3391 25.1636 25.524 25.0559 25.6622 24.9769C25.8004 24.8961 26.0606 24.7472 26.2419 24.6431L26.5685 24.4547V25.0774V25.702L26.1252 25.9604C25.8793 26.1004 25.5599 26.287 25.4109 26.3714C25.2638 26.4575 25.0053 26.6065 24.8366 26.7034C24.4239 26.9439 23.9088 27.24 23.5624 27.4392C23.0725 27.721 21.7731 28.4712 21.6511 28.5429C21.5308 28.6129 20.6694 29.1119 20.5563 29.1747C20.5222 29.1944 20.3822 29.2752 20.2476 29.3541L20 29.4959L19.2157 29.0437C18.7832 28.7942 18.3847 28.5645 18.3309 28.5322C18.2483 28.4837 17.4048 27.9956 16.608 27.5379C16.1396 27.2669 15.2387 26.7483 14.7684 26.4755C14.4472 26.2906 13.9734 26.016 13.6791 25.8473L13.4314 25.7038V25.0792V24.4547L13.7598 24.6431C13.9393 24.7472 14.2767 24.941 14.5082 25.0756ZM13.7311 26.5347C14.5028 26.9798 15.664 27.6492 16.0427 27.8699C16.2006 27.9615 16.6493 28.2199 17.0387 28.4442C17.4282 28.6704 17.945 28.9683 18.1873 29.1083C19.6338 29.9446 19.9784 30.1402 20 30.1402C20.0215 30.1402 20.3661 29.9446 21.8126 29.1083C22.0549 28.9683 22.5717 28.6704 22.9612 28.4442C23.3506 28.2199 23.7993 27.9615 23.9572 27.8699C24.3359 27.6492 25.4971 26.9798 26.2688 26.5347C26.4267 26.445 26.5577 26.3714 26.5613 26.3714C26.5649 26.3714 26.5667 26.6837 26.5649 27.0641L26.5595 27.7587L26.3442 27.8843C26.2257 27.9525 25.7573 28.2235 25.3033 28.4855C24.1547 29.1478 23.8908 29.3003 23.2753 29.6556C22.9791 29.8261 22.5269 30.0882 22.2702 30.2353C21.7839 30.5153 20.8596 31.0483 20.3679 31.3337C20.2099 31.4252 20.0628 31.5096 20.0412 31.5203C19.9928 31.5455 19.9946 31.5455 19.632 31.3337C19.4041 31.2009 18.785 30.8437 17.6669 30.1994C17.2631 29.9661 16.2975 29.4098 15.7914 29.1172C15.6443 29.0311 15.1507 28.7475 14.6967 28.4855C14.2426 28.2235 13.7742 27.9525 13.6557 27.8843L13.4404 27.7587L13.435 27.0641C13.4332 26.6837 13.435 26.3714 13.4386 26.3714C13.4422 26.3714 13.5732 26.445 13.7311 26.5347Z" fill="black"/>
<path d="M62.854 23.22C62.854 25.47 61.054 27.18 57.922 27.18C54.808 27.18 52.918 25.47 52.756 22.896H54.772C54.862 24.534 55.906 25.596 57.886 25.596C59.524 25.596 60.748 24.822 60.748 23.49C60.748 22.41 60.046 21.87 58.552 21.546L56.68 21.186C54.862 20.826 53.206 19.908 53.206 17.712C53.206 15.534 55.114 13.896 57.796 13.896C60.478 13.896 62.512 15.534 62.674 18.108H60.658C60.55 16.56 59.434 15.48 57.814 15.48C56.14 15.48 55.222 16.47 55.222 17.586C55.222 18.81 56.284 19.242 57.49 19.494L59.398 19.872C61.612 20.322 62.854 21.294 62.854 23.22ZM70.4193 25.236V26.838C69.8613 27.09 69.3753 27.18 68.7993 27.18C67.0353 27.18 65.8113 26.226 65.8113 24.12V19.008H63.7053V17.46H65.8113V14.634H67.6293V17.46H70.5093V19.008H67.6293V23.706C67.6293 25.02 68.2593 25.488 69.2313 25.488C69.6633 25.488 70.0413 25.416 70.4193 25.236ZM75.9767 27.18C73.2767 27.18 71.2967 25.056 71.2967 22.23C71.2967 19.404 73.2767 17.28 75.9767 17.28C78.6767 17.28 80.6567 19.404 80.6567 22.23C80.6567 25.056 78.6767 27.18 75.9767 27.18ZM75.9767 25.578C77.5427 25.578 78.7847 24.318 78.7847 22.23C78.7847 20.142 77.5427 18.9 75.9767 18.9C74.4107 18.9 73.1867 20.142 73.1867 22.23C73.1867 24.318 74.4107 25.578 75.9767 25.578ZM86.272 27.198C83.662 27.198 81.826 25.146 81.826 22.23C81.826 19.35 83.698 17.28 86.272 17.28C88.63 17.28 90.34 18.846 90.682 21.33H88.774C88.576 19.8 87.622 18.882 86.29 18.882C84.724 18.882 83.698 20.214 83.698 22.23C83.698 24.264 84.724 25.578 86.29 25.578C87.64 25.578 88.576 24.678 88.792 23.13H90.682C90.358 25.65 88.666 27.198 86.272 27.198ZM94.33 27H92.512V14.076H94.33V21.726L98.416 17.46H100.558L96.148 22.086L100.972 27H98.632L94.33 22.482V27ZM112.397 14.076L107.645 27H105.467L100.715 14.076H102.839L106.601 24.696L110.417 14.076H112.397ZM116.51 27.18C113.756 27.18 111.902 25.182 111.902 22.176C111.902 19.35 113.828 17.28 116.456 17.28C119.3 17.28 121.19 19.584 120.866 22.68H113.756C113.9 24.624 114.872 25.758 116.474 25.758C117.824 25.758 118.76 25.02 119.066 23.778H120.866C120.398 25.902 118.76 27.18 116.51 27.18ZM116.42 18.648C114.962 18.648 113.972 19.692 113.774 21.474H118.94C118.85 19.71 117.896 18.648 116.42 18.648ZM124.617 22.122V27H122.799V17.46H124.491V19.476C125.157 18.162 126.597 17.334 128.163 17.334V19.224C126.111 19.116 124.617 20.016 124.617 22.122ZM137.162 24.156C137.162 26.028 135.704 27.18 133.166 27.18C130.646 27.18 129.152 25.938 128.972 23.886H130.718C130.79 25.074 131.744 25.812 133.202 25.812C134.48 25.812 135.326 25.362 135.326 24.462C135.326 23.67 134.84 23.328 133.652 23.094L132.104 22.806C130.34 22.464 129.35 21.564 129.35 20.124C129.35 18.45 130.808 17.28 133.022 17.28C135.308 17.28 136.856 18.504 137.018 20.466H135.272C135.164 19.314 134.318 18.648 133.04 18.648C131.888 18.648 131.114 19.134 131.114 19.962C131.114 20.736 131.6 21.096 132.752 21.312L134.372 21.618C136.262 21.96 137.162 22.788 137.162 24.156ZM143.071 27.18C140.317 27.18 138.463 25.182 138.463 22.176C138.463 19.35 140.389 17.28 143.017 17.28C145.861 17.28 147.751 19.584 147.427 22.68H140.317C140.461 24.624 141.433 25.758 143.035 25.758C144.385 25.758 145.321 25.02 145.627 23.778H147.427C146.959 25.902 145.321 27.18 143.071 27.18ZM142.981 18.648C141.523 18.648 140.533 19.692 140.335 21.474H145.501C145.411 19.71 144.457 18.648 142.981 18.648Z" fill="white"/>
</svg>
