<svg width="24" height="24" viewBox="0 0 24 24" fill="none" xmlns="http://www.w3.org/2000/svg">
<path d="M12.6855 0.96512C12.2346 0.859283 11.7654 0.859283 11.3145 0.96512C10.7994 1.08602 10.3416 1.3845 9.82067 1.72411C7.57225 3.18562 5.32144 4.64352 3.07434 6.10706C2.73287 6.32946 2.56214 6.44066 2.50265 6.58197C2.45069 6.70542 2.45044 6.84473 2.50198 6.96836C2.56098 7.10987 2.73142 7.22172 3.0723 7.44542L10.793 12.5121C11.4927 12.9713 11.6396 13.0505 11.7698 13.0813C11.9212 13.1171 12.0789 13.1171 12.2303 13.0813C12.3604 13.0505 12.5074 12.9713 13.2071 12.5121L20.9277 7.44545C21.2686 7.22175 21.4391 7.1099 21.4981 6.96838C21.5496 6.84476 21.5494 6.70545 21.4974 6.582C21.4379 6.44069 21.2672 6.32949 20.9257 6.10709C18.6786 4.64354 16.4278 3.18559 14.1793 1.72411C13.6584 1.38451 13.2006 1.08602 12.6855 0.96512Z" fill="white"/>
<path d="M22.9965 9.96003C22.9962 9.47929 22.996 9.23892 22.8953 9.10546C22.8077 8.98918 22.6736 8.91689 22.5283 8.90751C22.3615 8.89674 22.1602 9.02882 21.7577 9.29299L17.1192 12.337C16.8236 12.531 16.6758 12.628 16.6157 12.7553C16.563 12.8668 16.5534 12.9939 16.5887 13.1121C16.6291 13.2469 16.7607 13.365 17.0238 13.6012L22.4258 18.4492C22.6241 18.6271 22.9341 18.5178 22.9558 18.2522C23 17.711 23 17.0467 23 16.2417C23 14.5363 22.9979 11.6908 22.9965 9.96003Z" fill="white"/>
<path d="M21.3424 21.2428C21.5253 21.1107 21.6167 21.0446 21.6713 20.9188C21.7137 20.8213 21.7217 20.6714 21.6898 20.5699C21.6488 20.4391 21.5471 20.3479 21.3439 20.1655L14.8118 14.3033C14.8076 14.2996 14.8055 14.2977 14.8036 14.296C14.636 14.1486 14.391 14.1302 14.2032 14.2508C14.2011 14.2522 14.1987 14.2537 14.194 14.2568C13.67 14.6017 13.2095 14.9048 12.6907 15.0276C12.2365 15.135 11.7636 15.135 11.3094 15.0276C10.7905 14.9048 10.33 14.6017 9.80602 14.2568C9.80124 14.2536 9.79885 14.2521 9.79669 14.2507C9.60893 14.1301 9.364 14.1486 9.19641 14.2959C9.19449 14.2976 9.19236 14.2995 9.1881 14.3033L2.65606 20.1654C2.4528 20.3478 2.35118 20.439 2.31013 20.5699C2.27828 20.6714 2.28621 20.8212 2.32859 20.9188C2.38322 21.0445 2.47465 21.1106 2.6575 21.2427C2.82371 21.3628 2.99965 21.4704 3.18404 21.5644C3.66937 21.8117 4.18608 21.9103 4.74817 21.9562C5.28936 22.0004 5.95372 22.0004 6.75868 22.0004H17.2413C18.0463 22.0004 18.7106 22.0004 19.2518 21.9562C19.8139 21.9103 20.3306 21.8117 20.816 21.5644C21.0003 21.4705 21.1762 21.3628 21.3424 21.2428Z" fill="white"/>
<path d="M1.04419 18.2522C1.06589 18.5177 1.3758 18.6271 1.57408 18.4491L6.97612 13.6011C7.23931 13.3649 7.3709 13.2468 7.41123 13.112C7.44656 12.9938 7.43698 12.8667 7.38431 12.7552C7.3242 12.6279 7.17637 12.5309 6.88071 12.3369L2.24229 9.29294C1.83976 9.02877 1.63849 8.89669 1.47169 8.90746C1.32637 8.91684 1.19233 8.98913 1.10466 9.10541C1.00404 9.23887 1.00384 9.47924 1.00346 9.95998C1.00206 11.6908 1 14.5363 1 16.2417C0.999988 17.0466 0.999977 17.711 1.04419 18.2522Z" fill="white"/>
</svg>
